/* XPM */
static char * animstop_xpm[] = {
"16 16 3 1",
" 	c None",
".	c #8E8484",
"+	c #000000",
"                ",
"                ",
"                ",
"   ..........   ",
"   . +++++++.   ",
"   .++++++++.   ",
"   .++++++++.   ",
"   .++++++++.   ",
"   .++++++++.   ",
"   .++++++++.   ",
"   .++++++++.   ",
"   .++++++++.   ",
"   ..........   ",
"                ",
"                ",
"                "};
