/* XPM */
static char * B_xpm[] = {
"16 16 5 1",
"  c #bfbfbf",
"c c #5f5f5f",
"# c #6C10DFDFB32C",
"b c #000000",
"a c #1861FFFFA699",
"    #aaaaa# a   ",
"   aaaa##aaaa   ",
"  aaaabbbbaaab  ",
"  aaaabbccbaab  ",
"  aaaaa#   bab  ",
"   aaaaaa#  bb  ",
"   baaaaaaa  b  ",
"    b#aaaaaa    ",
"     bb#aaaaa   ",
"  a   cb#aaaa   ",
"  aa    caaaab  ",
"  aaa    aaaab  ",
"  aaaa##aaaabb  ",
"  ab#aaaaa#bbb  ",
"   bbbbccbbbb   ",
"   b cbbbbbb    "};