/* XPM */
static char * B_xpm[] = {
"16 16 4 1",
" 	c #BFBFBFBFBFBF",
".	c #6C6CDFDFB3B3",
"X	c #1818FFFFA6A6",
"o	c #000000000000",
"    .XXXXX. X   ",
"   XXXX..XXXX   ",
"  XXXXooooXXXo  ",
"  XXXXoooooXXo  ",
"  XXXXX.   oXo  ",
"   XXXXXX.  oo  ",
"   oXXXXXXX  o  ",
"    o.XXXXXX    ",
"     oo.XXXXX   ",
"  X   oo.XXXX   ",
"  XX    oXXXXo  ",
"  XXX    XXXXo  ",
"  XXXX..XXXXoo  ",
"  Xo.XXXXX.ooo  ",
"   oooooooooo   ",
"   o ooooooo    "};
