/* XPM */
static char * Back_xpm[] = {
"16 16 3 1",
" 	c #BFBFBFBFBFBF",
".	c #60606060FFFF",
"X	c #000000000000",
"                ",
"                ",
"                ",
"     .          ",
"    ..          ",
"   ...........  ",
"  ............X ",
" .............X ",
"..............X ",
" X............X ",
"  X...........X ",
"   X..XXXXXXXXX ",
"    X.X         ",
"     XX         ",
"                ",
"                "};
