/* XPM */
static char * Back_xpm[] = {
"16 16 3 1",
" 	c #bfbfbf",
".	c #6060ff",
"X	c #000000",
"                ",
"                ",
"                ",
"     ..         ",
"    ...         ",
"   ............X",
"  .............X",
" ..............X",
"...............X",
" X.............X",
"  X............X",
"   X..XXXXXXXXXX",
"    X.X         ",
"     XX         ",
"                ",
"                "};
