/* XPM */
static char * Bmath_xpm[] = {
"24 18 3 1",
" 	c #FFFFFF",
".	c #BFBFBF",
"X	c #000000",
"                        ",
" ......................X",
" ......................X",
" ......................X",
" ......................X",
" ..X...X..........X....X",
" ..XX.XX......X...X....X",
" ..X.X.X..XXX.XXX.X.X..X",
" ..X.X.X.X..X.X...XX.X.X",
" ..X...X.X..X.X...X..X.X",
" ..X...X.X..X.X...X..X.X",
" ..X...X..XX.X.XX.X..X.X",
" ......................X",
" ......................X",
" ......................X",
" ......................X",
" ......................X",
"XXXXXXXXXXXXXXXXXXXXXXXX"};
