/* XPM */
static char * BNo_xpm[] = {
"16 16 3 1",
" 	c #BFBFBFBFBFBF",
".	c #FFFFFFFFFFFF",
"X	c #000000000000",
"    ....... .   ",
"   ..........   ",
"  ....XXXX...X  ",
"  ....XXXXX..X  ",
"  ......   X.X  ",
"   .......  XX  ",
"   X.......  X  ",
"    X.......    ",
"     XX......   ",
"  .   XX.....   ",
"  ..    X....X  ",
"  ...    ....X  ",
"  ..........XX  ",
"  .X.......XXX  ",
"   XXXXXXXXXX   ",
"   X XXXXXXX    "};
