/* XPM */
static char * Browser_xpm[] = {
"16 16 5 1",
" 	c #BFBFBF",
".	c #B27700",
"X	c #F7F7BABA3838",
"o	c #EFEF00000000",
"+	c #000000",
"           ....X",
" o        ....oX",
"  oo     ...ooXX",
"   ooo  ..oooXX.",
"    ooo..oooXX..",
"     ooooooXX..+",
"     .oooXXX..+ ",
"    +.ooooX..+  ",
"    oooXoooo+   ",
"   ooo +X.ooo   ",
"  oo+   +.+ oo  ",
" o +    ++   o  ",
"   +  +++     o ",
"  +++++         ",
"  ++            ",
" +              "};
