/* XPM */
static char * Browser_xpm[] = {
"16 16 6 1",
" 	c #bfbfbf",
".	c #000000",
"c	c #DBCEBD54F8A2",
"#	c #7BEF5D751C71",
"o	c #F7DEBAEA38E3",
"X	c #ef0000",
"           cccoo",
" X        ccoooo",
"  XX     ccoXXoo",
"   XXX  ccXXXooo",
"    XXXccXXXooo#",
"     XXXXXXooo#.",
"     cXXXoooo#. ",
"    ccXXXXoo#.  ",
"   cXXX#XXXX.   ",
"   XXX..#oXXX   ",
"  XX#  .##. XX  ",
" X c#  ...   XX ",
" Xc# ....     X ",
"  c ...         ",
"  c#.           ",
" .              "};



