/* XPM */
static char * Browser_xpm[] = {
"16 16 6 1",
" 	c #BFBFBFBFBFBF",
".	c #BABA8C8C2A2A",
"X	c #F7F7BABA3838",
"o	c #EFEF00000000",
"O	c #FFFF00000000",
"+	c #000000000000",
"           ....X",
" o        ....OX",
"  oo     ...ooXX",
"   ooo  ..oooXX.",
"    ooo..oooXX..",
"     ooooooXX..+",
"     .oooXXX..+ ",
"    +.ooooX..+  ",
"    oooXoooo+   ",
"   ooo +X.ooo   ",
"  oo+   +.+ oo  ",
" o +    ++   o  ",
"   +  +++     o ",
"  +++++         ",
"  ++            ",
" +              "};
