/* XPM */
static char * Bullet_xpm[] = {
"16 16 4 1",
" 	c #BFBFBF",
".	c #DEFFC1",
"X	c #FFCB69",
"o	c #000000",
"                ",
".XX.  XXXXXXXXX ",
"XXXX   ooooooooo",
"XXXX            ",
".XXoo XXXXXXXX  ",
" oooo  oooooooo ",
"  oo            ",
"      XXXXXXXXX ",
".XX.   ooooooooo",
"XXXX            ",
"XXXX  XXXXXXXXX ",
".XXoo  ooooooooo",
" oooo           ",
"  oo  XXXXXXX   ",
"       ooooooo  ",
"                "};
