/* XPM */
static char * BulletNo_xpm[] = {
"16 16 5 1",
" 	c #BFBFBF",
".	c #DFDFDFDFDFDF",
"X	c #FFFFFF",
"o	c #000000",
"O	c #808080808080",
"                ",
".XX.  XXXXXXXXX ",
"XXXX   ooooooooo",
"XXXXO           ",
".XXOo XXXXXXXX  ",
" oooo  oooooooo ",
" OooO           ",
"      XXXXXXXXX ",
".XX.   ooooooooo",
"XXXX            ",
"XXXXO XXXXXXXXX ",
".XXOo  ooooooooo",
" oooo           ",
" OooO XXXXXXX   ",
"       ooooooo  ",
"                "};
