/* XPM */
static char * Bullet_xpm[] = {
"16 16 5 1",
"  c #bfbfbf",
"b c #5f5f5f",
"# c #DFDFCD95B73C",
"c c #000000",
"a c #FFFFDB6CAEBA",
"                ",
"#aa#  aaaaaaaaa ",
"aaaa   ccccccccc",
"aaaab           ",
"#aa#c aaaaaaaa  ",
" cccc  cccccccc ",
" bccb           ",
"      aaaaaaaaa ",
"#aa#   ccccccccc",
"aaaa            ",
"aaaab aaaaaaaaa ",
"#aa#c  ccccccccc",
" cccc           ",
" bccb aaaaaaa   ",
"       ccccccc  ",
"                "};
