/* XPM */
static char * BulletNo_xpm[] = {
"18 18 5 1",
"  c #bfbfbf",
"b c #5f5f5f",
"# c #ffffff",
"c c #000000",
"a c #ffffff",
"                  ",
"                  ",
" #aa#  aaaaaaaaaa ",
" aaaa             ",
" aaaab  cccccccccc",
" #aa#c aaaaaaaaa  ",
"  cccc            ",
"  bccb  ccccccccc ",
"       aaaaaaaaaa ",
" #aa#             ",
" aaaa   cccccccccc",
" aaaab aaaaaaaaaa ",
" #aa#c            ",
"  cccc  cccccccccc",
"  bccb aaaaaaaa   ",
"                  ",
"        cccccccc  ",
"                  "};
