/* XPM */
static char * circle_xpm[] = {
"24 18 3 1",
" 	c #FFFFFF",
".	c #BFBFBF",
"X	c #000000",
"                        ",
" ......................X",
" ......................X",
" .........XXXX.........X",
" .......XX....XX.......X",
" ......X........X......X",
" ......X........X......X",
" .....X..........X.....X",
" .....X..........X.....X",
" .....X..........X.....X",
" .....X..........X.....X",
" ......X........X......X",
" ......X........X......X",
" .......XX....XX.......X",
" .........XXXX.........X",
" ......................X",
" ......................X",
"XXXXXXXXXXXXXXXXXXXXXXXX"};
