/* XPM */
static char * closed_xpm[] = {
"24 18 3 1",
" 	c #FFFFFF",
".	c #BFBFBF",
"X	c #000000",
"                        ",
" ......................X",
" ..............XXXX....X",
" ............XX....X...X",
" ...........X.......X..X",
" ...XXXX...X.........X.X",
" ..X....XXX..........X.X",
" .X..................X.X",
" .X..................X.X",
" .X.................X..X",
" .X.................X..X",
" ..X...............X...X",
" ..X..............X....X",
" ...X...........XX.....X",
" ....XX......XXX.......X",
" ......XXXXXX..........X",
" ......................X",
"XXXXXXXXXXXXXXXXXXXXXXXX"};
