/* XPM */
static char * DL_xpm[] = {
"16 16 3 1",
"  c #bfbfbf",
"a c #000000",
"# c #FFFFDB6CAEBA",
"######          ",
"######          ",
" aaaaaa         ",
" aa############ ",
"                ",
"    aaaaaaaaaaaa",
"   ############ ",
"                ",
"    aaaaaaaaaaaa",
"######          ",
"######          ",
" aaaaaa         ",
" aa############ ",
"                ",
"    aaaaaaaaaaa ",
"                "};
