/* XPM */
static char * Editor_xpm[] = {
"16 16 5 1",
" 	c #bfbfbf",
".	c #000000",
"c	c #DBCEBD54F8A2",
"#	c #7BEF5D751C71",
"o	c #F7DEBAEA38E3",
"           cccoo",
"          cccooo",
"         cccoooo",
"        cccooooo",
"       cccooooo#",
"      cccooooo#.",
"     cccooooo#. ",
"    cc##oooo#.  ",
"   c#####oo#.   ",
"   c#...#o#.    ",
"   c#  .##.     ",
"  c#   ...      ",
"  c# ....       ",
" c# ...         ",
"  c#.           ",
" .              "};
