/* XPM */
static char * Editor_xpm[] = {
"16 16 4 1",
" 	c #BFBFBF",
".	c #B27700",
"X	c #FFAA00",
"o	c #000000",
"           ....X",
"          ....XX",
"         ....XXX",
"        ....XXX.",
"       ....XXX..",
"      ....XXX..o",
"     ....XXX..o ",
"    .o..XXX..o  ",
"    oooXXX..o   ",
"    o  oX..o    ",
"   oo   o.o     ",
"   o    oo      ",
"   o  ooo       ",
"  ooooo         ",
"  oo            ",
" o              "};
