/* XPM */
static char * find_xpm[] = {
"16 16 4 1",
" 	c #BFBFBFBFBFBF",
".	c #FFFFCFCF1818",
"X	c #000000000000",
"o	c #FFFFFFFFFFFF",
"                ",
"     ....       ",
"   ........     ",
"   ..XXXo..X    ",
"  ..Xooooo..X   ",
"  ..Xooooo..X   ",
"  ..Xooooo..XX  ",
"  ..oooooo..XX  ",
"   ..oooo...XX  ",
"   ........XXX  ",
"    X....X..X   ",
"     XXXXXX..X  ",
"       XXX X..X ",
"            X..X",
"             X.X",
"              X "};
