/* XPM */
static char * find_xpm[] = {
"16 16 7 1",
"  c #bfbfbf",
"b c #5f5f5f",
"# c #67DFC77D6C10",
"c c #000000",
"a c #FFFFCF3C1861",
"x c #40327f",
". c #ffffff",
"   #aa#a##      ",
" #aa#aaaaa#     ",
"#a##aa###aa#    ",
"#aaa#...#aa#    ",
"#a#x..b..#aa#   ",
"#a#x.c...#aa#   ",
"#aax.c...#a#x   ",
"#a#x.b...#a#x   ",
"##a#....#a#x    ",
" #aa#aaa#aab    ",
" bc#aaaaa#a#x   ",
"  bccxxxxbx#ax  ",
"    bcccb   #ax ",
"             #ax",
"              xc",
"                "};
