/* XPM */
static char * find_xpm[] = {
"18 18 4 1",
" 	c #BFBFBFBFBFBF",
".	c #FFFFFFFFFFFF",
"X	c #7F7F7F7F7F7F",
"o	c #000000000000",
"                  ",
"                  ",
"                  ",
"                  ",
"     .....        ",
"   ..XXXXXoo      ",
"  .XXooooooXo     ",
" .Xoo      oXo    ",
" .Xo   oo   Xo    ",
" .Xo  oooo  oo    ",
" .Xoo oo oo oo    ",
"  oXo      ooo    ",
"   ooXooooooooo   ",
"     ooooo  ooooo ",
"              ooo ",
"                  ",
"                  ",
"                  "};
