/* XPM */
static char * folder_xpm[] = {
"28 22 7 1",
" 	c None",
".	c #FFFFFF",
"X	c #000000",
"o	c #FFFFC1C17A7A",
"O	c #FFFFDCDCAEAE",
"+	c #7F7F7F7F7F7F",
"@	c #BFBFBF",
"                            ",
"    XXXXXXXXX               ",
"   XoooooooooX              ",
"   XoooooooooX              ",
"  XooooooooooXXXXXXXXXXX    ",
" XXXXXXXXXXXXOOOOOOOOOOOX   ",
" XOOOOOOOOOOOOOOOOOOOOOOX+  ",
" XOOOOOOOOOOOOOOOOOOOOOOX+@ ",
" XOOOOOOOOOOOOOOOOOOOOOOX+@ ",
" XOOOOOOOOOOOOOOOOOOOOOOX+@ ",
" XOOOOOOOOOOOOOOOOOOOOOOX+@ ",
" XOOOOOOOOOOOOOOOOOOOOOOX+@ ",
" XOOOOOOOOOOOOOOOOOOOOOOX+@ ",
" XOOOOOOOOOOOOOOOOOOOOOOX+@ ",
" XOOOOOOOOOOOOOOOOOOOOOOX+@ ",
" XOOOOOOOOOOOOOOOOOOOOOOX+@ ",
" XOOOOOOOOOOOOOOOOOOOOOOX+@ ",
" XOOOOOOOOOOOOOOOOOOOOOOX+@ ",
" XXXXXXXXXXXXXXXXXXXXXXXX+@ ",
"  ++++++++++++++++++++++++@ ",
"   @@@@@@@@@@@@@@@@@@@@@@@@ ",
"                            "};
