/* XPM */
static char * Forward_xpm[] = {
"16 16 3 1",
" 	c #bfbfbf",
".	c #6060ff",
"X	c #000000",
"                ",
"                ",
"                ",
"         .X     ",
"         ..X    ",
"............X   ",
".............X  ",
"..............X ",
"...............X",
"..............X ",
".............X  ",
"XXXXXXXXX...X   ",
"         ..X    ",
"         .X     ",
"                ",
"                "};
