/* XPM */
static char * ForwardNo_xpm[] = {
"16 16 3 1",
" 	s None",
".	c #FFFFFF",
"X	c #000000",
"                ",
"                ",
"                ",
"         .      ",
"         ..     ",
" ...........    ",
" ............   ",
" .............  ",
" .............. ",
" .............X ",
" ............X  ",
"  XXXXXXX...X   ",
"         ..X    ",
"         .X     ",
"         X      ",
"                "};
