/* XPM */
static char * Graph_xpm[] = {
"16 16 5 1",
" 	c #BEFBBEFBBEFB",
".	c #6969FF",
"X	c #000000",
"O	c #00FF00",
"+	c #EE0000",
"       ......   ",
"       ......XX ",
"  OOO  ......XX ",
" OOOOO ......XX ",
" OOOOO ......XX ",
" OOOOO XXXXXXXX ",
" OOOOO  XXXXXXX ",
"  OOOXX         ",
"   XXXX  +      ",
"   XXX   ++ X   ",
"    +   + X+ X  ",
"   +++  + X + X ",
"  + X + + X  + X",
" + X + + X    + ",
"+ X   + X       ",
" X    + X       "};
