/* XPM */
static char * Graph_xpm[] = {
"18 18 5 1",
" 	c #BFBFBFBFBFBF",
".	c #61617979C7C7",
"X	c #D7D7E3E3FFFF",
"o	c #FFFFFFFFFFFF",
"O	c #A6A6C7C7E7E7",
"                  ",
"        ........X ",
"    .....oooooo.X ",
"   .OOOO.oooooo.X ",
"  .OOOOO.oooooo.X ",
"  .OOOOO.oooooo.X ",
"  .OOOOO........X ",
"  .OOOOOO.XXXXXXX ",
"   .OOOO.X        ",
"    ....X  .      ",
"     XX    ..     ",
"      .X  .X .    ",
"     ..X  .X ..   ",
"    .X .X.X  . .  ",
"   .X  .X.X     . ",
"  .X    .X        ",
"        .         ",
"                  "};
