/* XPM */
static char * GraphNo_xpm[] = {
"16 16 5 1",
" 	c #bfbfbf",
".	c #ffffff",
"X	c #000000",
"o	c #ffffff",
"O	c #ffffff",
"       oooooo   ",
"       oooooo X ",
"  OOO  oooooo X ",
" OOOOO oooooo X ",
" OOOOO oooooo X ",
" OOOOO        X ",
" OOOOO  XXXXXXX ",
"  OOO  X        ",
"      X  .      ",
"   XXX   .. X   ",
"    .   . X. X  ",
"   ...  . X . X ",
"  . X . . X  . X",
" . X . . X    . ",
". X   . X       ",
" X    . X       ",
"       X        "};
