/* XPM */
static char * group_xpm[] = {
"24 18 3 1",
" 	c #FFFFFF",
".	c #BFBFBF",
"X	c #000000",
"                        ",
" ......................X",
" ......................X",
" ......................X",
" .XXX..................X",
" X...X.................X",
" X.....X.X.XX..X.X.XXX.X",
" X..XX.XX.X..X.X.X.X..XX",
" X...X.X..X..X.X.X.X..XX",
" X...X.X..X..X.X.X.X..XX",
" .XXX..X...XX..XX..XXX.X",
" ..................X...X",
" ..................X...X",
" ......................X",
" ......................X",
" ......................X",
" ......................X",
"XXXXXXXXXXXXXXXXXXXXXXXX"};
