/* XPM */
static char * H1_xpm[] = {
"16 16 5 1",
" 	c #DF7DFFFFC71B",
".	c #E79DFFFF9658",
"X	c #BFBFBFBFBFBF",
"o	c #000000000000",
"O	c #71C675D671C6",
" .. X ... XXX XX",
" . oOX . oOX .OX",
"X.oOXXO.oOX ..OX",
"X.oXXXX.oX ...oX",
"X.oXXXX.oXXO..oX",
"X.oXXXX.oXXX..oX",
"X.......oXXX..oX",
"X.ooooo.oXXX..oX",
"X.oXXXX.oXXX..oX",
"X.oXXXX.oXXX..oX",
"X.oXXXX.oXXX..oX",
"X.oXXXX.oXXX..oX",
" . XXX . XX .. X",
" .. X ...  .....",
"OooOOXOoooOooooo",
"OoooOOOOoooOOooo"};
