/* XPM */
static char * H1_xpm[] = {
"16 16 4 1",
" 	c None",
".	c #E5FF95",
"+	c #000000",
"@	c #767676",
" ..   ...       ",
" . +@  . +@  .  ",
" .+@  @.+@  ..  ",
" .+    .+  ...+ ",
" .+    .+  @..+ ",
" .+    .+   ..+ ",
" .......+   ..+ ",
" .+++++.+   ..+ ",
" .+    .+   ..+ ",
" .+    .+   ..+ ",
" .+    .+   ..+ ",
" .+    .+   ..+ ",
" .     .    ..  ",
" ..   ...  .....",
" ++    +++@+++++",
" +++    +++  +++"};
