/* XPM */
static char * H1No_xpm[] = {
"16 16 5 1",
"  c #bfbfbf",
"b c #5f5f5f",
"# c #ffffff",
"c c #000000",
"a c #ffffff",
"#aa# #aaa#   #  ",
"#a#   #a#   #a  ",
"baccb baccb#aab ",
" acb   acb#aaac ",
" ac    ac   aac ",
" ac    ac  baac ",
" aaaaaaac   aac ",
" ac    ac   aac ",
" acccccac   aac ",
" ac    ac   aac ",
" ac    ac   aac ",
" ac    ac   aac ",
"#a#   #a#  #aa# ",
"#aa# #aaa#aaaaaa",
" bcb   ccb  bccb",
"bcccb bcccbccccc"};
