/* XPM */
static char * H2_xpm[] = {
"18 18 2 1",
" 	c #BFBFBFBFBFBF",
".	c #000000000000",
"                  ",
"                  ",
"                  ",
"   ..    ..       ",
"   ..    ..       ",
"   ..    ..       ",
"   ..    ..       ",
"   ........       ",
"   ..    ..       ",
"   ..    ..       ",
"   ..    ..       ",
"   ..    ..  ...  ",
"   ..    ..    .  ",
"              .   ",
"             .    ",
"             ...  ",
"                  ",
"                  "};
