/* XPM */
static char * H2_xpm[] = {
"16 16 5 1",
" 	c #BFBFBF",
".	c #DEFFC1",
"X	c #E5FF95",
"o	c #000000",
"O	c #767676",
"                ",
"                ",
".XX. .XXX.      ",
".X.oO .X.oO.XX. ",
"OXoO   Xoo.XXXX.",
" Xo    Xo X.OO.X",
" Xo    Xo XOoo.X",
" XXXXXXXo   o XO",
" XoooooXo    .XO",
" Xo    Xo   .XOO",
" Xo    Xo  .XXO ",
" Xo    Xo .XoO  ",
".X.   .X. XXXXX ",
".XX. .XXXoXXXXXO",
"OoooO OoooO oooo",
"OoooOOOOooooOooo"};
