/* XPM */
static char * H3_xpm[] = {
"16 16 5 1",
"  c #bfbfbf",
"b c #5f5f5f",
"# c #D7BEDFDFAB0B",
"c c #000000",
"a c #EFBEFFFF9658",
"                ",
"                ",
"#aa# #aaa#      ",
"#a#cb #a#cb#aaa ",
"bacb  bacb#a##aa",
" ac    ac aabc#a",
" ac    ac aacb#a",
" aaaaaaac  cc #a",
" acccccac    aab",
" ac    ac    c#a",
" ac    ac     ca",
" ac    ac a#  ca",
"#a#   #a# #a##a#",
"#aa# #aaa# #aaac",
"cccb  bccbbbcbbc",
"bcccbbbcccbbbccb"};
