/* XPM */
static char * H3_xpm[] = {
"16 16 5 1",
" 	c #BFBFBFBFBFBF",
".	c #D7D7DFDFABAB",
"X	c #EFEFFFFF9696",
"o	c #000000000000",
"O	c #5F5F5F5F5F5F",
"                ",
"                ",
"                ",
".XX. .XXX.      ",
".X.oO .X.o.XXX  ",
"OXoO  OXoOX..XX ",
" Xo    XoXXOo. o",
" Xo    Xo .oO.Xo",
" XXXXXXXo   XXOo",
" XoooooXo   o.. ",
" Xo    Xo    oXo",
" Xo    XoX.  oXo",
".X.   .X. X..X.o",
".XX. .XXX.oXXXoo",
"oooO  OooOOoOOo ",
"OoooOOOoooOOoo  "};
