/* XPM */
static char * H3No_xpm[] = {
"18 18 2 1",
" 	c #BEFBBEFBBEFB",
".	c #FFFFFFFFFFFF",
"                  ",
"                  ",
"                  ",
"   ..    ..       ",
"   ..    ..       ",
"   ..    ..       ",
"   ..    ..       ",
"   ........       ",
"   ..    ..       ",
"   ..    ..       ",
"   ..    ..       ",
"   ..    ..  ...  ",
"   ..    ..    .  ",
"              ..  ",
"               .  ",
"             ...  ",
"                  ",
"                  "};
