/* XPM */
static char * H3No_xpm[] = {
"16 16 5 1",
"  c #bfbfbf",
"b c #5f5f5f",
"# c #ffffff",
"c c #000000",
"a c #ffffff",
"                ",
"                ",
"#aa# #aaa#      ",
"#a#   #a#  #aaac",
"baccb bacc#a##aa",
" acb   acbaabc#a",
" ac    ac aacbba",
" aaaaaaac  cc #a",
" ac    ac  ccaa ",
" acccccac    c#a",
" ac    ac     ca",
" ac    ac a#  ca",
"#a#   #a# #a##a#",
"#aa# #aaa# #aaac",
" bcb   bcb bcbbc",
"bcccb bcccb bcb "};
