/* XPM */
static char * H3No_xpm[] = {
"16 16 4 1",
" 	c #BFBFBF",
".	c #FFFFFF",
"X	c #767676",
"o	c #000000",
"                ",
"                ",
"                ",
".... .....      ",
"...   ...  .... ",
"X.ooX X.oo......",
" .oX   .oX..Xo..",
" .o    .o .XoXX.",
" .......o  oX ..",
" .o    .o    ..X",
" .ooooo.o    o..",
" .o    .o ..  X.",
"...   ... ......",
".... ..... ....o",
" XoX   XoX XoXXo",
"XoooX XoooX XoX "};
