/* XPM */
static char * home_xpm[] = {
"16 16 5 1",
" 	c #bfbfbf",
"a      c #1861FFFFA699",
"#	c #2020FF",
"X	c #6C10DFDFB32C",
"o	c #5f5f5f",
"                ",
"            Xa  ",
"      aaaaa Xa  ",
"    a# aaaaaXa  ",
"   a#aX aaaaXX  ",
"  a#a  a aaaXX  ",
" a#a    a aaaaX ",
"aXa      a aaaaX",
" a        X aaa ",
" a         a##X ",
" a   aao   a##X ",
" a   aao   aXXX ",
" a   aao   #aa# ",
" a   aXo   aa#a ",
" a   aXo   a#a# ",
" a   XXo   a##a ",
"oooooooooooooooo",
"                "};
