/* XPM */
static char * I_xpm[] = {
"16 16 6 1",
"  c #bfbfbf",
"c c #5f5f5f",
"# c #6C10DFDFB32C",
"b c #000000",
"a c #1861FFFFA699",
"x c #0C307FFF534C",
"                "
"                ",
"     #aaaaaaaaa#",
"      #a#xxx#aac",
"      aabbbbbabc",
"     #a#bc    bb",
"     aabb#a     ",
"    #aaaaa#x    ",
"    aabb#acb    ",
"   #a#bbbbbc    ",
"   aabb         ",
"  #a#bc   ##    ",
"  aabb   aacc   ",
" #a#bc #aa#cc   ",
"#aaaaaaaaabb    ",
" cbbcxxxcbbc    ",
"cbbbbbbbbbb     "};
