/* XPM */
static char * I_xpm[] = {
"16 16 5 1",
" 	c #BFBFBF",
".	c #00FF00",
"X	c #C1FFC1",
"O	c #767676",
"o	c #000000",
"                ",
"                ",
"     .XXXXXXXXX.",
"      .X.ooo.XXO",
"      XXoooooXoO",
"     .X.oO    oo",
"     XXoo..     ",
"    .XXXXX.o    ",
"    XXoo.XOo    ",
"   .X.oooooO    ",
"   XXoo         ",
"  .X.oO   ..    ",
"  XXoo   XXOO   ",
" .X.oO .XX.OO   ",
".XXXXXXXXXoo    ",
" Ooooooooooo    "};
