/* XPM */
static char * ImageNo_xpm[] = {
"16 16 7 1",
" 	c #bfbfbf",
".	c #000000",
"X	c #ffffff",
"o	c #bfbfbf",
"O	c #808080",
"+	c #000000",
"@	c #bfbfbf",
"       ..       ",
"     ..  ..     ",
"   ..      ..   ",
"................",
".XXXXXXXXXXXXXX.",
".XooooooooooooX.",
".XooOOooooooooX.",
".XoOOOOooo+oooX.",
".XoOOOOoo+++ooX.",
".XooOOoo+++++oX.",
".Xoooooo+++++oX.",
".Xoooooo+++++oX.",
".X@@@@@@@@@@@@X.",
".X@@@@@@@@@@@@X.",
".XXXXXXXXXXXXXX.",
"................"};

