/* XPM */
static char * ImageNo_xpm[] = {
"18 18 3 1",
" 	c #BEFBBEFBBEFB",
".	c #FFFFFFFFFFFF",
"X	c #000000000000",
"                  ",
"        ..        ",
"      ..  ..      ",
"     ..     ..    ",
"                  ",
"  ..............  ",
"  .            .  ",
"  .  ..        .  ",
"  . ....   X   .  ",
"  . ....  XXX  .  ",
"  .  ..  XXXXX .  ",
"  .      XXXXX .  ",
"  .      XXXXX .  ",
"  ..X.X.X.X.X.X.  ",
"  .X.X.X.X.X.X..  ",
"  ..............  ",
"                  ",
"                  "};
