/* XPM */
static char * libsvg_xpm[] = {
"16 16 6 1",
" 	s None",
".	c #000000",
"X	c #ffffff",
"o	c #ffffff",
"O	c #ffffff",
"+	c #ffffff",
"                ",
"                ",
"                ",
"  ...     ....  ",
"  .X.  ....oo.  ",
"  .X....OO.oo.  ",
"  .X.++.OO.oo.  ",
"  .X.++.OO.oo.  ",
" ..X.++.OO.oo.. ",
" ..X.++.OO.oo.. ",
" ..X.++.OO.oo.. ",
" ..X.++.OO.oo.. ",
" ..X.++.OO.oo.. ",
"................",
"................",
"                "};
