/* XPM */
static char * line_xpm[] = {
"24 18 3 1",
" 	c #FFFFFFFFFFFF",
".	c #BFBFBFBFBFBF",
"X	c #000000000000",
"                        ",
" ......................X",
" ......................X",
" ......................X",
" ......................X",
" ...XX.................X",
" .....XX...............X",
" .......XX.............X",
" .........XX...........X",
" ...........XX.........X",
" .............XX.......X",
" ...............XX.....X",
" .................XX...X",
" ......................X",
" ......................X",
" ......................X",
" ......................X",
"XXXXXXXXXXXXXXXXXXXXXXXX"};
