/* XPM */
static char * LinkNo_xpm[] = {
"16 16 5 1",
"  c #bfbfbf",
"c c #5f5f5f",
"a c #ffffff",
"b c #000000",
"# c #ffffff",
"                ",
"###   #####   ##",
"###a a#####a a##",
"  a##a     a##a ",
"bbb#acbbbbbba#cb",
"  aa#ac    a#aac",
"  #ca#     #ac# ",
"  #bc#c    #cb#c",
"  #ca#b    #ac#b",
"  aa#ab    a#aab",
"   aacb     a# b",
"##a##ac####a##ac",
"###aa#######ac##",
"   ccbc     cbbc",
"bbbc cbbbbbbc cb",
"                "};
