/* XPM */
static char * Link_xpm[] = {
"16 16 4 1",
" 	c #BFBFBF",
".	c #FF6969",
"X	c #000000",
"o	c #767676",
"                ",
"...   .....   ..",
".... ....... ...",
"XX....ooXXX. ..o",
" o...oo    X..oX",
"  ....o    ....o",
"  .o..Xo   ..o. ",
"  .Xo.Xo   .oX.o",
"  .o..Xo   ..o.o",
"  ....Xo   ....X",
"   ..oo     ...X",
" .....o.. .....o",
"....X........o..",
"XXXXoXXXXXXXXoXo",
"XXo    oXXXo  oX",
"                "};
