/* XPM */
static char * Link_xpm[] = {
"16 16 5 1",
"  c #bfbfbf",
"c c #5f5f5f",
"a c #FFFF8A281040",
"b c #000000",
"# c #DFDFA4F367FF",
"                ",
"###   #####   ##",
"###a a#####a a##",
"bba# accbbba #a ",
"  ##acc    ba#cb",
"  aa#ac    a#aac",
"  #ca#b    #ac# ",
"  #bc#c    #cb#c",
"  #ca#c    aac#c",
"  aa#ab    a#aab",
"   aacb     aa#b",
" #a##ac## #a##ac",
"###aba######ac##",
"cccbcbbcccccbcbc",
"bbbc   bbcbb  cb",
"                "};
