/* XPM */
static char * logo_xpm[] = {
"45 36 3 1",
" 	s None",
".	c #000000000000",
"X	c #FFFF95959595",
"                                             ",
"            ...  ...            ....         ",
"           .. .  . .          ..   .  ...    ",
"            . ...  .  ...... ..   .. .  .    ",
"            .. . ..       ....  ...  . .     ",
"          .. .. ........  . .  ..   . .      ",
"   .     ...  ...     . .. ..   ..  . .  ..  ",
"   ...   . . ..        ..  .  ... . ...... . ",
"   .. .. . . . ..       ..   ..  ..  .   .. .",
"    .. . . .  .  . .   . .. . . . . ..    . .",
"      ... ...   .  .  .    .  .  ..   ..    .",
"  ...     .   ..............     ...   ..    ",
" ..  .... .... .     . .... . . .. ... ..    ",
" .   .  ..    .  X  . .     .   .    ..  ... ",
" . ..   .   ...  X  ... .   . ..          . .",
" ..     .....    X     ..  .    . . .. ....  ",
" .     X         X       ..   .  ..   ....   ",
"                 X      ..      .  ..     .. ",
"       X         X     ..  .   .    .. . . . ",
"                X XXX      .  .            . ",
"       XX      X XXXXX     .  .        X  . .",
"     XX XX    XXX  XX      .  .        X  .. ",
"    XXXXXXX    X  XXX      .  .        X     ",
"     XX XX        XXXX     .  .        X     ",
"        X          XX      .  .        X     ",
"                           .  .        X     ",
"    .....                  .  .       X XXX  ",
"   .   .                             X X XXX ",
"   .  . . . .  .   ..  .  .  ..      X  XXX  ",
"   . ..   .. .. .    . .  .    .        XXXX ",
"     .  . .  .  .  ... .  .  ...         XX  ",
"    ....  .  .  . .  .  . . .  .             ",
"   ..   . .  .  . .  .  ..  .  .             ",
"  ..   .. .  .  .  .. . ..   .. .            ",
"                       .                     ",
"                      ..                     "};
