/* XPM */
static char * logo_xpm[] = {
"51 40 3 1",
" 	s None",
".	c #000000000000",
"X	c #FFFF95959595",
"                                                   ",
"             ...   ...              ....           ",
"            .. .   . .           ...   .   ...     ",
"             . .. .  .   ...... ..    .. ..  .     ",
"             .. .. ..        ....   ...  .  .      ",
"           .. .. ..........  . .  ...   .. .       ",
"   .      ...  ....     .  .. ..    ..  .  .  ..   ",
"   ...    . . ..         ...  .   ... . . ..... .  ",
"   .. ..  . . . ...        ..   ...  ..  ..   .. . ",
"    .. .. . .  .   ..    .. .. .     .  ..     . . ",
"     .. ..   .  ..   .     ... ...... ......    .. ",
"      . .. ...    .  .   .    .  .   ..    ..    . ",
"  ...      .   ................  .   ...    ..     ",
" ..  ..... .... .      .. .... . .  .. ...  ..     ",
" .   .   ..    ..  X  . ..     . .  .    ...  ...  ",
" . ..    .   ...   X  ...  .   . . .           . . ",
" ..     X.....     X      ..  .  .  . . ..  ....   ",
" .      X          X        ..    .  ..   .....    ",
"        X          X       ..       .  ..      ..  ",
"        X          X      ... .    .    ...   .. . ",
"        X          X     ..   .    .      ....  .  ",
"        X         X XXX       .   .             .  ",
"       X X      XX XXXXX      .   .         X  . . ",
"     XX XXX    XXXX  XX       .   .         X  ..  ",
"    XXXX XXX    XX  XXX       .   .         X      ",
"     XX  XX         XXXX      .   .         X      ",
"         X           XX       .   .         X      ",
"                              .   .         X      ",
"   ......                     .   .        X XXX   ",
"  .    .                                 XX XXXXX  ",
"  .   ..                                 XXX  XX   ",
"  .  . .  . .  .    ..   .  .   ..       XX  XXX   ",
"  . .. .  .. .. .     .  .  .     .          XXXX  ",
"    .  .  .  .  .   ...  .  .   ...           XX   ",
"   .....  .  .  .  .  .  .  .  .  .                ",
"  ..   .  .  .  .  .  .   ..   .  .                ",
" ..   ... .  .  .   .. .  ..    .. .               ",
"                          .                        ",
"                         ..                        ",
"                                                   "};
