/* XPM */
static char * Math_xpm[] = {
"16 16 3 1",
" 	c #BFBFBF",
".	c #D369FF",
"X	c #000000",
"    ..   ..     ",
"     .. ..XX    ",
"      ...XX     ",
"       .XX      ",
"     ..X..      ",
"    ..XX ..     ",
"     XX   XX    ",
" .............  ",
"  XXXXXXXXXXXXX ",
"    ...   ..    ",
"     ... ..XX   ",
"      ....XX    ",
"    .. ..XX     ",
"     ...XX      ",
"      XXX       ",
"      XX        "};
