/* XPM */
static char * Math_xpm[] = {
"16 16 5 1",
"  c #bfbfbf",
"c c #5f5f5f",
"a c #A6991861FFFF",
"b c #000000",
"# c #B32C6C10DFDF",
"    a#   ##     ",
"    #aaba#bb    ",
"      #a#bb     ",
"       ##c      ",
"     #aba#b     ",
"   #a#bc #a#b   ",
"    bbc   bcbb  ",
" #############  ",
"  bbbbbbbbbbbbb ",
"   ##a   ###    ",
"     #a a#bbb   ",
"      #a#ab     ",
"   a# #acb      ",
"    a#acb       ",
"    cbcb        ",
"     cb         "};
