/* XPM */
static char * matrix_xpm[] = {
"24 18 3 1",
" 	c #FFFFFF",
".	s None",
"X	c #000000",
"                        ",
" ......................X",
" .X.X.X..X.X.X..X.X.X..X",
" ..X.X....X.X....X.X...X",
" .X.X.X..X.X.X..X.X.X..X",
" ..X.X....X.X....X.X...X",
" ......................X",
" .X.X.X..X.X.X..X.X.X..X",
" ..X.X....X.X....X.X...X",
" .X.X.X..X.X.X..X.X.X..X",
" ..X.X....X.X....X.X...X",
" ......................X",
" .X.X.X..X.X.X..X.X.X..X",
" ..X.X....X.X....X.X...X",
" .X.X.X..X.X.X..X.X.X..X",
" ..X.X....X.X....X.X...X",
" ......................X",
"XXXXXXXXXXXXXXXXXXXXXXXX"};
