/* XPM */
static char * Num_xpm[] = {
"16 16 5 1",
" 	c #BFBFBFBFBFBF",
".	c #DFDFCDCDB7B7",
"X	c #FFFFDBDBAEAE",
"o	c #000000000000",
"O	c #5F5F5F5F5F5F",
" .X             ",
" XXo  XXXXXXXXX ",
"  Xo   ooooooooo",
"  XO            ",
" .X.  XXXXXXXX  ",
" XXXO  oooooooo ",
"  oOOO          ",
"      XXXXXXXXX ",
" .X.   ooooooooo",
" X.XO           ",
"  oXO XXXXXXXXX ",
" .Xoo  ooooooooo",
" Xoo            ",
" XXXO XXXXXXX   ",
"  oOOO ooooooo  ",
"                "};
