/* XPM */
static char * Num_xpm[] = {
"16 16 5 1",
"  c #bfbfbf",
"c c #5f5f5f",
"# c #DFDFCD95B73C",
"b c #000000",
"a c #FFFFDB6CAEBA",
" #a             ",
" aab  aaaaaaaaa ",
"  ab   bbbbbbbbb",
"  ac            ",
" #a#  aaaaaaaa  ",
" aaac  bbbbbbbb ",
"  bccc          ",
"      aaaaaaaaa ",
" #a#   bbbbbbbbb",
" a#ac           ",
"  #ac aaaaaaaaa ",
" #a#b  bbbbbbbbb",
" a#b            ",
" aaac aaaaaaa   ",
"  bccc bbbbbbb  ",
"                "};
