/* XPM */
static char * NumNo_xpm[] = {
"16 16 5 1",
" 	c #BFBFBFBFBFBF",
".	c #DFDFDFDFDFDF",
"X	c #FFFFFFFFFFFF",
"o	c #000000000000",
"O	c #5F5F5F5F5F5F",
" .X             ",
" XXo  XXXXXXXXX ",
"  Xo   ooooooooo",
"  Xo            ",
" .X.  XXXXXXXX  ",
" XXXo  oooooooo ",
"  OoOo          ",
"      XXXXXXXXX ",
" .X.   ooooooooo",
" X.Xo           ",
"  oXO XXXXXXXXX ",
" .X.o  ooooooooo",
" Xoo            ",
" XXXO XXXXXXX   ",
"  oOo  ooooooo  ",
"                "};
