/* XPM */
static char * NumNo_xpm[] = {
"16 16 5 1",
"  c #bfbfbf",
"c c #5f5f5f",
"# c #ffffff",
"b c #000000",
"a c #ffffff",
" #a             ",
" aa   aaaaaaaaa ",
"  ab            ",
"  ab   bbbbbbbbb",
" #a#  aaaaaaaa  ",
" aaa            ",
"  cbc  bbbbbbbb ",
"  bbb aaaaaaaaa ",
" #a#            ",
" a#a   bbbbbbbbb",
"  #ac aaaaaaaaa ",
" #a#b           ",
" a# b  bbbbbbbbb",
" aaac aaaaaaa   ",
"  bc            ",
"  bbb  bbbbbbb  "};
