/* XPM */
static char * Plugin_xpm[] = {
"18 18 5 1",
" 	c #BFBFBFBFBFBF",
".	c #A6A6C7C7E7E7",
"X	c #61617979C7C7",
"o	c #000000000000",
"O	c #D7D7E3E3FFFF",
"                  ",
"                  ",
"         ......   ",
"        XXXXXXXo  ",
"    OOOOXXXXXXXo  ",
"   .....XXXXXXXo  ",
"   oooo XXXXXXXo  ",
"        XXXXXXXo  ",
"        XXXXXXXo  ",
"        XXXXXXXo  ",
"    OOOOXXXXXXXo  ",
"   .....XXXXXXXo  ",
"   oooo XXXXXXXo  ",
"        XXXXXXXo  ",
"         oooooo   ",
"                  ",
"                  ",
"                  "};
