/* XPM */
static char * Print_xpm[] = {
"16 16 5 1",
" 	c #BFBFBF",
".	c #000000",
"X	c #FFFFFF",
"o	c #6969FF",
"O	c #95E4FF",
"                ",
"   ..........   ",
"   .XXXXXXXX.   ",
"   .X.....XX.   ",
"   .XXXXXXXX.   ",
"   .X....XXX.   ",
"   .XXXXXXXX.   ",
"   .X......X.   ",
" ...XXXXXXXX... ",
" .oooooooooooo. ",
" .oooooooooooo. ",
" .oooooooooooo. ",
" .OOOOOOOOOOOO. ",
" ..oooooooooo.. ",
"  ............  ",
"                "};
