/* XPM */
static char * Print_xpm[] = {
"16 16 5 1",
" 	c #BEFBBEFBBEFB",
".	c #FFFFFFFFFFFF",
"X	c #000000000000",
"o	c #9658FFFFF7DE",
"O	c #30C275D6FFFF",
"                ",
"                ",
"                ",
"     ......     ",
"     ......     ",
"     .XX...     ",
"     ......     ",
"     ......     ",
"     ...XX.     ",
" oOOOOOOOOOOOOO ",
" oOOOOOOOOOOOOX ",
" oooooooooooooX ",
" oOOOOOOOOOOOOX ",
" oOOOOOOOOOOOOX ",
" oXXXXXXXXXXXXX ",
"                "};
