/* XPM */
static char * Reload_xpm[] = {
"16 16 5 1",
"  c #bfbfbf",
"b c #5f5f5f",
"# c #4747df",
"c c #000000",
"a c #6060ff",
"                ",
"     #aaaa#     ",
"    aaa##ac     ",
"   aaabccc      ",
"   aacccc    a  ",
"   aacc     aaa ",
"aaaaaaaa   aaaa ",
"aaaaaaa   aaaaaa",
" aaaacccbaaaaaaa",
"  aacccb   aaccc",
"   cccb    aaccb",
"   ccc     aacc ",
"    c a# #aaccc ",
"      #aaaaccc  ",
"       cbcbcc   ",
"        bcb     ",
"                "};
