/* XPM */
static char * Reload_xpm[] = {
"16 16 5 1",
" 	c #BFBFBFBFBFBF",
".	c #90909090EFEF",
"X	c #60606060FFFF",
"o	c #7F7F7F7F7F7F",
"O	c #000000000000",
"                ",
"     .XXX.      ",
"    XXX.o.X     ",
"   .XXOOOOO     ",
"   XXOoO    .   ",
"   XXOO    XX.  ",
"XXXXXXXX  XXXX. ",
".XXXXXXO XXXXXX.",
" .XXXOOOXXXXXXXX",
"  .XOOOo  XXOOOO",
"   OOOo   XXOOoo",
"    Oo    XXOO  ",
"     X. .XXOOo  ",
"     .XXXXOOO   ",
"      OOOOOo    ",
"       ooo      "};
