/* XPM */
static char * Reload_xpm[] = {
"16 16 4 1",
" 	c #BFBFBF",
".	c #6969FF",
"X	c #000000",
"o	c #6969FF",
"                ",
"     .....      ",
"    ....X.o     ",
"   ...XXXXX     ",
"   ..XXX    .   ",
"   ..XX    ...  ",
"........  ..... ",
".......X .......",
" ....XXX........",
"  ..XXXX  ..XXXX",
"   XXXX   ..XXXX",
"    XX    ..XX  ",
"     o. ...XXX  ",
"     .....XXX   ",
"      XXXXXX    ",
"       XXX      "};
