/* XPM */
static char * Reload_xpm[] = {
"16 16 6 1",
" 	c #BFBFBFBFBFBF",
".	c #96589248EFBE",
"X	c #69A669A6FFFF",
"o	c #79E77DF779E7",
"O	c #61856185FFFF",
"+	c #000000000000",
"                ",
"     .XXX.      ",
"    XXX.o.O     ",
"   .XX+++++     ",
"   XX+o+    .   ",
"   XX++    XX.  ",
"XXXXXXXX  XXXX. ",
".XXXXXX+ XXXXXX.",
" .XXX+++XXXXXXXX",
"  .X+++o  XX++++",
"   +++o   XX++oo",
"    +o    XX++  ",
"     O. .XX++o  ",
"     .XXXX+++   ",
"      +++++o    ",
"       ooo      "};
