/* XPM */
static char * save_xpm[] = {
"16 16 4 1",
" 	c #BFBFBFBFBFBF",
".	c #69A669A6FFFF",
"X	c #000000000000",
"o	c #FFFFFFFFFFFF",
"                ",
" .............X ",
" ...oooooooo..X ",
" ...oooooooo..X ",
" ...oooooooo..X ",
" ...oooooooo..X ",
" ...oooooooo..X ",
" ...oooooooo..X ",
" .............X ",
" .............X ",
" ...        ..X ",
" ... XX     ..X ",
" ... XX     ..X ",
" ... XX     ..X ",
"  XXXXXXXXXXXXX ",
"                "};
