/* XPM */
static char * save_xpm[] = {
"16 16 4 1",
" 	c #bfbfbf",
".	c #ffffff",
"X	c #6060ff",
"o	c #000000",
"                ",
" .............. ",
".XXooooooooooXXo",
".XXo........oXXo",
".XXo........oXXo",
".XXo........oXXo",
".XXo........oXXo",
".XXooooooooooXXo",
".XXXXXXXXXXXXXXo",
".XXXXXXXXXXXXXXo",
".XXXXXXXXXXXXXXo",
".XXooooooo..oXXo",
".XXooooooo..oXXo",
" XXooooooo..oXXo",
"  ooooooooooooo ",
"                "};
