/* XPM */
static char * stopN_xpm[] = {
"16 16 3 1",
" 	c #BFBFBFBFBFBF",
".	c #FFFFFFFFFFFF",
"X	c #000000000000",
"                ",
"    ........    ",
"   ..........   ",
"  ............  ",
" .............. ",
" ..X.XXX.X..XX.X",
" .X.X.X.X.X.X.XX",
" ..X..X.X.X.XX.X",
" .X.X.X.X.X.X..X",
" ..X..X..X..X..X",
" ..............X",
"  ............X ",
"   ..........X  ",
"    ........X   ",
"     XXXXXXX    ",
"                "};
