/* XPM */
static char * stopR_xpm[] = {
"16 16 4 1",
" 	c #BFBFBFBFBFBF",
".	c #FFFFFFFFFFFF",
"X	c #EEEE00000000",
"o	c #000000000000",
"     .......    ",
"    .XXXXXXXo   ",
"   .XXXXXXXXXo  ",
"  .XXXXXXXXXXXo ",
" .XXXXXXXXXXXXXo",
" .X.X...X.XX..Xo",
" ..X.X.X.X.X.X.o",
" .X.XX.X.X.X..Xo",
" ..X.X.X.X.X.XXo",
" .X.XX.XX.XX.XXo",
" .XXXXXXXXXXXXXo",
"  oXXXXXXXXXXXo ",
"   oXXXXXXXXXo  ",
"    oXXXXXXXo   ",
"     ooooooo    ",
"                "};
