/* XPM */
static char * stopR_xpm[] = {
"16 16 4 1",
" 	c #bfbfbf",
".	c #ffffff",
"X	c #000000",
"o	c #ee0000",
"     ......X    ",
"    .oooooooX   ",
"   .oooooooooX  ",
"  .oooooooooooX ",
" .oooooooooooooX",
" .oXoXXXoXooXXoX",
" .XoXoXoXoXoXoXX",
" .oXooXoXoXoXXoX",
" .XoXoXoXoXoXooX",
" .oXooXooXooXooX",
" XoooooooooooooX",
"  XoooooooooooX ",
"   XoooooooooX  ",
"    XoooooooX   ",
"     XXXXXXX    ",
"                "};
