/* XPM */
static char * stopR_xpm[] = {
"16 16 4 1",
" 	c #BFBFBFBFBFBF",
".	c #FFFFFFFFFFFF",
"X	c #EEEE00000000",
"o	c #000000000000",
"     .......    ",
"    .XXXXXXXo   ",
"   .XXXXXXXXXo  ",
"  .XXXXXXXXXXXo ",
" .XXXXXXXXXXXXXo",
" .XoXoooXoXXooXo",
" .oXoXoXoXoXoXoo",
" .XoXXoXoXoXooXo",
" .oXoXoXoXoXoXXo",
" .XoXXoXXoXXoXXo",
" .XXXXXXXXXXXXXo",
"  oXXXXXXXXXXXo ",
"   oXXXXXXXXXo  ",
"    oXXXXXXXo   ",
"     ooooooo    ",
"                "};
