/* XPM */
static char * T_xpm[] = {
"16 16 6 1",
" 	c #BFBFBFBFBFBF",
".	c #1818FFFFA6A6",
"X	c #6C6CDFDFB3B3",
"o	c #0C0C7F7F5353",
"O	c #5F5F5F5F5F5F",
"+	c #000000000000",
"     .....X X   ",
"   X.Xoooo.X.   ",
"  X.OO+++++..O  ",
"  .XO+     o.+  ",
" X.O+       .+  ",
" ..+O       X+  ",
" ..+         +  ",
" ..O            ",
" ..O            ",
" ..O            ",
" X..       X.   ",
"  ..       .X   ",
"  X..X   X.XO+  ",
"   oX.....XoO+  ",
"    Oo.XXXoO+   ",
"     O+++++     "};
