/* XPM */
static char * T_xpm[] = {
"16 16 6 1",
"  c #bfbfbf",
"b c #5f5f5f",
"# c #6C10DFDFB32C",
"c c #000000",
"a c #1861FFFFA699",
"x c #0C307FFF534C",
"    #aaaaa# #   ",
"   #a#xxx#a#a   ",
"  #a#bcccc#aab  ",
"  a#bcb   b#ac  ",
" #abcb     bac  ",
" aacb       #c  ",
" aac         c  ",
" aab         b  ",
" aab            ",
" aab            ",
" #aa       #a   ",
" #aa#     #a#   ",
"  #aa#   #a#bc  ",
"  x##aaaaa##bc  ",
"    bcx###xbc   ",
"     bcccccb    "};
