/* XPM */
static char * T_xpm[] = {
"16 16 6 1",
" 	c #BFBFBFBFBFBF",
".	c #0000FFFFAEBA",
"X	c #0000E79D9E79",
"o	c #0000B2CA0000",
"O	c #71C675D671C6",
"+	c #000000000000",
"     .....X X   ",
"   X.Xoooo.X.   ",
"  X.OO+++++..O  ",
"  .XO+     o.+  ",
" X.O+       .+  ",
" ..OO       X+  ",
" ..O         +  ",
" ..O            ",
" ..O            ",
" ..O            ",
" X.X       X.   ",
"  ..       .X   ",
"  X..X   X.XO+  ",
"   oX......oO+  ",
"    OO..oooO+   ",
"     O+++++     "};
