/* XPM */
static char * TableNo_xpm[] = {
"16 16 3 1",
" 	c #BFBFBFBFBFBF",
".	c #FFFFFFFFFFFF",
"X	c #000000000000",
"                ",
" .............. ",
" .XXX.XXXX.XXX.X",
" .X  .X   .X  .X",
" .X  .X   .X  .X",
" ..............X",
" .XXX.XXXX.XXX.X",
" .X  .X   .X  .X",
" .X  .X   .X  .X",
" ..............X",
" .XXX.XXXX.XXX.X",
" .X  .X   .X  .X",
" .X  .X   .X  .X",
" .X  .X   .X  .X",
" ..............X",
"  XXXXXXXXXXXXXX"};
