/* XPM */
static char * TableNo_xpm[] = {
"16 16 3 1",
"  c #bfbfbf",
"a c #000000",
"# c #ffffff",
" ############## ",
" #   #    #   # ",
" #aaa#aaaa#aaa#a",
" #a  #a   #a  #a",
" ##############a",
" #a  #a   #a  #a",
" #aaa#aaaa#aaa#a",
" #a  #a   #a  #a",
" ##############a",
" #a  #a   #a  #a",
" #aaa#aaaa#aaa#a",
" #a  #a   #a  #a",
" #a  #a   #a  #a",
" ##############a",
"  a   a    a   a",
"  aaaaaaaaaaaaaa"};
