/* XPM */
static char * text_xpm[] = {
"24 18 3 1",
" 	c #FFFFFFFFFFFF",
".	c #BFBFBFBFBFBF",
"X	c #000000000000",
"                        ",
" ......................X",
" ......................X",
" ......................X",
" ...........X..........X",
" ..........XX..........X",
" ..........XX..........X",
" .........X.XX.........X",
" .........X.XX.........X",
" ........X..XX.........X",
" ........XXXXXX........X",
" .......X....XX........X",
" .......X....XX........X",
" ......XXX..XXXX.......X",
" ......................X",
" ......................X",
" ......................X",
"XXXXXXXXXXXXXXXXXXXXXXXX"};
