/* XPM */
static char * TNo_xpm[] = {
"16 16 5 1",
"  c #bfbfbf",
"b c #5f5f5f",
"# c #ffffff",
"c c #000000",
"a c #ffffff",
"    #aaaaa# #   ",
"   #a#   #a#a   ",
"  #a#bcccc#aab  ",
"  a#bcb   b#ac  ",
" #abcb     bac  ",
" aacb       #c  ",
" aac         c  ",
" aab         b  ",
" aab            ",
" aab            ",
" #aa       #a   ",
" #aa#     #a#   ",
"  #aa#   #a#bc  ",
"   b#aaaaa# bc  ",
"    bcb    bc   ",
"     bcccccb    "};
