/* XPM */
static char * TNo_xpm[] = {
"18 18 2 1",
" 	c #BEFBBEFBBEFB",
".	c #FFFFFFFFFFFF",
"                  ",
"                  ",
"                  ",
"                  ",
" ....... .......  ",
" .  .  . .  .  .  ",
"    .       .     ",
"    .       .     ",
"    .       .     ",
"    .       .     ",
"    .       .     ",
"    .       .     ",
"    .       .     ",
"   ...     ...    ",
"                  ",
"                  ",
"                  ",
"                  "};
