/* XPM */
static char * AligneG_xpm[] = {
"48 35 5 1",
" 	c #BFBFBFBFBFBF",
".	c #000000000000",
"X	c #0000FFFF0000",
"o	c #FFFFFFFF0000",
"O	c #00000000FFFF",
"................................................",
".         .                                    .",
".         ...............                      .",
".         .XXXXXXXXXXXXX.                      .",
".         .XXXXXXXXXXXXX.                      .",
".         .XXXXXXXXXXXXX.                      .",
".         .XXXXXXXXXXXXX.                      .",
".         .XXXXXXXXXXXXX.                      .",
".         .XXXXXXXXXXXXX.                      .",
".         ...............                      .",
".         .                                    .",
".         .                                    .",
".         .................................    .",
".         .ooooooooooooooooooooooooooooooo.    .",
".         .ooooooooooooooooooooooooooooooo.    .",
".         .ooooooooooooooooooooooooooooooo.    .",
".         .ooooooooooooooooooooooooooooooo.    .",
".         .ooooooooooooooooooooooooooooooo.    .",
".         .ooooooooooooooooooooooooooooooo.    .",
".         .ooooooooooooooooooooooooooooooo.    .",
".         .ooooooooooooooooooooooooooooooo.    .",
".         .................................    .",
".         .                                    .",
".         .                                    .",
".         ...................                  .",
".         .OOOOOOOOOOOOOOOOO.                  .",
".         .OOOOOOOOOOOOOOOOO.                  .",
".         .OOOOOOOOOOOOOOOOO.                  .",
".         .OOOOOOOOOOOOOOOOO.                  .",
".         .OOOOOOOOOOOOOOOOO.                  .",
".         .OOOOOOOOOOOOOOOOO.                  .",
".         .OOOOOOOOOOOOOOOOO.                  .",
".         ...................                  .",
".         .                                    .",
"................................................"};
