/* XPM */
static char * AligneC_xpm[] = {
"48 35 5 1",
" 	c #000000000000",
".	c #BFBFBFBFBFBF",
"X	c #0000FFFF0000",
"o	c #FFFFFFFF0000",
"O	c #00000000FFFF",
"                                                ",
" ...................... ....................... ",
" ...............               ................ ",
" ............... XXXXXX XXXXXX ................ ",
" ............... XXXXXXXXXXXXX ................ ",
" ............... XXXXXX XXXXXX ................ ",
" ............... XXXXXXXXXXXXX ................ ",
" ............... XXXXXX XXXXXX ................ ",
" ............... XXXXXXXXXXXXX ................ ",
" ...............               ................ ",
" .............................................. ",
" ...................... ....................... ",
" ......                                 ....... ",
" ...... ooooooooooooooooooooooooooooooo ....... ",
" ...... ooooooooooooooo ooooooooooooooo ....... ",
" ...... ooooooooooooooooooooooooooooooo ....... ",
" ...... ooooooooooooooo ooooooooooooooo ....... ",
" ...... ooooooooooooooooooooooooooooooo ....... ",
" ...... ooooooooooooooo ooooooooooooooo ....... ",
" ...... ooooooooooooooooooooooooooooooo ....... ",
" ...... ooooooooooooooo ooooooooooooooo ....... ",
" ......                                 ....... ",
" ...................... ....................... ",
" .............................................. ",
" .............                   .............. ",
" ............. OOOOOOOOOOOOOOOOO .............. ",
" ............. OOOOOOOO OOOOOOOO .............. ",
" ............. OOOOOOOOOOOOOOOOO .............. ",
" ............. OOOOOOOO OOOOOOOO .............. ",
" ............. OOOOOOOOOOOOOOOOO .............. ",
" ............. OOOOOOOO OOOOOOOO .............. ",
" ............. OOOOOOOOOOOOOOOOO .............. ",
" .............                   .............. ",
" ...................... ....................... ",
"                                                "};
