/* XPM */
static char * AligneD_xpm[] = {
"48 35 5 1",
" 	c #000000000000",
".	c #BFBFBFBFBFBF",
"X	c #0000FFFF0000",
"o	c #FFFFFFFF0000",
"O	c #00000000FFFF",
"                                                ",
" ......................................... .... ",
" ............................              .... ",
" ............................ XXXXXXXXXXXX .... ",
" ............................ XXXXXXXXXXXX .... ",
" ............................ XXXXXXXXXXXX .... ",
" ............................ XXXXXXXXXXXX .... ",
" ............................ XXXXXXXXXXXX .... ",
" ............................ XXXXXXXXXXXX .... ",
" ............................              .... ",
" ......................................... .... ",
" ......................................... .... ",
" .........                                 .... ",
" ......... ooooooooooooooooooooooooooooooo .... ",
" ......... ooooooooooooooooooooooooooooooo .... ",
" ......... ooooooooooooooooooooooooooooooo .... ",
" ......... ooooooooooooooooooooooooooooooo .... ",
" ......... ooooooooooooooooooooooooooooooo .... ",
" ......... ooooooooooooooooooooooooooooooo .... ",
" ......... ooooooooooooooooooooooooooooooo .... ",
" ......... ooooooooooooooooooooooooooooooo .... ",
" .........                                 .... ",
" ......................................... .... ",
" ......................................... .... ",
" .......................                   .... ",
" ....................... OOOOOOOOOOOOOOOOO .... ",
" ....................... OOOOOOOOOOOOOOOOO .... ",
" ....................... OOOOOOOOOOOOOOOOO .... ",
" ....................... OOOOOOOOOOOOOOOOO .... ",
" ....................... OOOOOOOOOOOOOOOOO .... ",
" ....................... OOOOOOOOOOOOOOOOO .... ",
" ....................... OOOOOOOOOOOOOOOOO .... ",
" .......................                   .... ",
" ......................................... .... ",
"                                                "};
