/* XPM */
static char * AligneM_xpm[] = {
"48 35 5 1",
" 	c #000000000000",
".	c #BFBFBFBFBFBF",
"X	c #0000FFFF0000",
"o	c #00000000FFFF",
"O	c #FFFFFFFF0000",
"                                                ",
" .............................................. ",
" .............................................. ",
" .............................................. ",
" ..        .................................... ",
" .. XXXXXX .................................... ",
" .. XXXXXX ..........................        .. ",
" .. XXXXXX ........          ........ oooooo .. ",
" .. XXXXXX ........ OOOOOOOO ........ oooooo .. ",
" .. XXXXXX ........ OOOOOOOO ........ oooooo .. ",
" .. XXXXXX ........ OOOOOOOO ........ oooooo .. ",
" .. XXXXXX ........ OOOOOOOO ........ oooooo .. ",
" .. XXXXXX ........ OOOOOOOO ........ oooooo .. ",
" .. XXXXXX ........ OOOOOOOO ........ oooooo .. ",
" .. XXXXXX ........ OOOOOOOO ........ oooooo .. ",
" .. XXXXXX ........ OOOOOOOO ........ oooooo .. ",
" .. XXXXXX ........ OOOOOOOO ........ oooooo .. ",
" .  X X X   . . . . O O O O   . . . . o o o   . ",
" .. XXXXXX ........ OOOOOOOO ........ oooooo .. ",
" .. XXXXXX ........ OOOOOOOO ........ oooooo .. ",
" .. XXXXXX ........ OOOOOOOO ........ oooooo .. ",
" .. XXXXXX ........ OOOOOOOO ........ oooooo .. ",
" .. XXXXXX ........ OOOOOOOO ........ oooooo .. ",
" .. XXXXXX ........ OOOOOOOO ........ oooooo .. ",
" .. XXXXXX ........ OOOOOOOO ........ oooooo .. ",
" .. XXXXXX ........ OOOOOOOO ........ oooooo .. ",
" .. XXXXXX ........ OOOOOOOO ........ oooooo .. ",
" .. XXXXXX ........ OOOOOOOO ........ oooooo .. ",
" .. XXXXXX ........          ........ oooooo .. ",
" .. XXXXXX ..........................        .. ",
" .. XXXXXX .................................... ",
" ..        .................................... ",
" .............................................. ",
" .............................................. ",
"                                                "};
