/* XPM */
static char * AligneH_xpm[] = {
"48 35 5 1",
" 	c #000000000000",
".	c #BFBFBFBFBFBF",
"X	c #0000FFFF0000",
"o	c #FFFFFFFF0000",
"O	c #00000000FFFF",
"                                                ",
" .............................................. ",
" .............................................. ",
" .............................................. ",
" .         . . . .           . . . .          . ",
" .. XXXXXX ........ oooooooo ........ OOOOOO .. ",
" .. XXXXXX ........ oooooooo ........ OOOOOO .. ",
" .. XXXXXX ........ oooooooo ........ OOOOOO .. ",
" .. XXXXXX ........ oooooooo ........ OOOOOO .. ",
" .. XXXXXX ........ oooooooo ........ OOOOOO .. ",
" .. XXXXXX ........ oooooooo ........ OOOOOO .. ",
" .. XXXXXX ........ oooooooo ........ OOOOOO .. ",
" .. XXXXXX ........ oooooooo ........ OOOOOO .. ",
" .. XXXXXX ........ oooooooo ........ OOOOOO .. ",
" .. XXXXXX ........ oooooooo ........ OOOOOO .. ",
" .. XXXXXX ........ oooooooo ........ OOOOOO .. ",
" .. XXXXXX ........ oooooooo ........ OOOOOO .. ",
" .. XXXXXX ........ oooooooo ........ OOOOOO .. ",
" .. XXXXXX ........ oooooooo ........ OOOOOO .. ",
" .. XXXXXX ........ oooooooo ........ OOOOOO .. ",
" .. XXXXXX ........ oooooooo ........ OOOOOO .. ",
" .. XXXXXX ........ oooooooo ........ OOOOOO .. ",
" .. XXXXXX ........ oooooooo ........ OOOOOO .. ",
" .. XXXXXX ........ oooooooo ........ OOOOOO .. ",
" .. XXXXXX ........ oooooooo ........ OOOOOO .. ",
" .. XXXXXX ........          ........ OOOOOO .. ",
" .. XXXXXX .......................... OOOOOO .. ",
" .. XXXXXX ..........................        .. ",
" .. XXXXXX .................................... ",
" .. XXXXXX .................................... ",
" .. XXXXXX .................................... ",
" ..        .................................... ",
" .............................................. ",
" .............................................. ",
"                                                "};
