/* XPM */
static char * ArrierePlan_xpm[] = {
"48 35 4 1",
" 	c #000000000000",
".	c #BFBFBFBFBFBF",
"X	c #00000000FFFF",
"o	c #FFFFFFFFFFFF",
"                                                ",
" ............................. ................ ",
" .............................  ..         .... ",
" ...............                 . XXXXXXX .... ",
" ...............                 . XXXXXXX .... ",
" ...............  ............  .. XXXXXXX .... ",
" ...............  ............ ... XXXXXXX .... ",
" ...............  .........         XXXXXX .... ",
" ...............  .........  o o o  XXXXXX .... ",
" ...............  ......... ooooooo XXXXXX .... ",
" ...............  .........  o o o  XXXXXX .... ",
" ...............  ..         oooooo XXXXXX .... ",
" ...............  .. o o o o o o o  XXXXXX .... ",
" ...............  .. ooooooo oooooo XXXXXX .... ",
" ................... o o o o o o o  XXXXXX .... ",
" ............         oooooo oooooo XXXXXX .... ",
" ............ XoXoXoX  o o o o o o         .... ",
" ............ oXoXoXo oooooo oooooo ........... ",
" ............ XoXoXoX  o o o o o o  ........... ",
" .....         XoXoXo oooooo oooooo ........... ",
" ..... o o o o oXoXoX  o o o        ........... ",
" ..... ooooooo XoXoXo oooooo .................. ",
" ..... o o o o oXoXoX  o o o .................. ",
" ..... ooooooo XoXoXo oooooo .................. ",
" ..... o o o o oXoXoX        .................. ",
" ..... ooooooo XoXoXo ......................... ",
" ..... o o o o oXoXoX ......................... ",
" ..... ooooooo XoXoXo ......................... ",
" ..... o o o o        ......................... ",
" ..... ooooooo ................................ ",
" ..... o o o o ................................ ",
" ..... ooooooo ................................ ",
" .....         ................................ ",
" .............................................. ",
"                                                "};
