/* XPM */
static char * Couleur_xpm[] = {
"48 35 9 1",
" 	c #000000000000",
".	c #BFBFBFBFBFBF",
"X	c #0000FFFFFFFF",
"o	c #FFFF0000FFFF",
"O	c #FFFFFFFF0000",
"+	c #00000000FFFF",
"@	c #FFFF00000000",
"#	c #FFFFFFFFFFFF",
"$	c #0000FFFF0000",
"                                                ",
" .............................................. ",
" .XXXXXXXXXXXXXXooooooooooooooooOOOOOOOOOOOOOO. ",
" .XXXXXXXXXXXXXXooooooooooooooooOOOOOOOOOOOOOO. ",
" .XXXXXXXXXXXXXXooooooooooooooooOOOOOOOOOOOOOO. ",
" .XXXXXXXXXXXXXXooooooooooooooooOOOOOOOOOOOOOO. ",
" .XXXXXXXXXXXXXXooooooooooooooooOOOOOOOOOOOOOO. ",
" .XXXXXXXXXXXXXXooooooooooooooooOOOOOOOOOOOOOO. ",
" .XXXXXXXXXXXXXXooooooooooooooooOOOOOOOOOOOOOO. ",
" .XXXXXXXXXXXXXXooooooooooooooooOOOOOOOOOOOOOO. ",
" .XXXXXXXXXXXXXXooooooooooooooooOOOOOOOOOOOOOO. ",
" .XXXXXXXXXXXXXXooooooooooooooooOOOOOOOOOOOOOO. ",
" .XXXXXXXXXXXXXXooooooooooooooooOOOOOOOOOOOOOO. ",
" .++++++++++++++@@@@@@@@@@@@@@@@##############. ",
" .++++++++++++++@@@@@@@@@@@@@@@@##############. ",
" .++++++++++++++@@@@@@@@@@@@@@@@##############. ",
" .++++++++++++++@@@@@@@@@@@@@@@@##############. ",
" .++++++++++++++@@@@@@@@@@@@@@@@##############. ",
" .++++++++++++++@@@@@@@@@@@@@@@@##############. ",
" .++++++++++++++@@@@@@@@@@@@@@@@##############. ",
" .++++++++++++++@@@@@@@@@@@@@@@@##############. ",
" .++++++++++++++@@@@@@@@@@@@@@@@##############. ",
" .++++++++++++++@@@@@@@@@@@@@@@@##############. ",
" .++++++++++++++@@@@@@@@@@@@@@@@##############. ",
" .              $$$$$$$$$$$$$$$$# # # # # # # . ",
" .              $$$$$$$$$$$$$$$$ # # # # # # #. ",
" .              $$$$$$$$$$$$$$$$# # # # # # # . ",
" .              $$$$$$$$$$$$$$$$ # # # # # # #. ",
" .              $$$$$$$$$$$$$$$$# # # # # # # . ",
" .              $$$$$$$$$$$$$$$$ # # # # # # #. ",
" .              $$$$$$$$$$$$$$$$# # # # # # # . ",
" .              $$$$$$$$$$$$$$$$ # # # # # # #. ",
" .              $$$$$$$$$$$$$$$$# # # # # # # . ",
" .............................................. ",
"                                                "};
