/* XPM */
static char * Dupliquer_xpm[] = {
"48 35 4 1",
" 	c #000000000000",
".	c #BFBFBFBFBFBF",
"X	c #0000FFFF0000",
"o	c #00000000FFFF",
"                                                ",
" .............................................. ",
" .............................................. ",
" ..            ................................ ",
" .. XXXXXXXXXX ................................ ",
" .. XXXXXXXXXX ................................ ",
" .. XXXXXXXXXX ......                 ......... ",
" .. XXXXXXXXXX ......                 ......... ",
" .. XXXXXXX      ....                 ......... ",
" .. XXXXXX oooooo .................   ......... ",
" .. XXXXX oooooooo ................   ......... ",
" ..      oooooooooo ...............   ......... ",
" ....... oooooooooo ...............   ......... ",
" ....... oooooooooo .............       ....... ",
" ........ oooooooo ...............     ........ ",
" ......... oooooo .................   ......... ",
" ..........      ................... .......... ",
" .............................................. ",
" ...........................            ....... ",
" ........................... XXXXXXXXXX ....... ",
" ........................... XXXXXXXXXX ....... ",
" ........................... XXXXXXXXXX ....... ",
" ........................... XXXXXXXXXX ....... ",
" ........................... XXXXXXX      ..... ",
" ........................... XXXXXX oooooo .... ",
" ........................... XXXXX oooooooo ... ",
" ...........................      oooooooooo .. ",
" ................................ oooooooooo .. ",
" ................................ oooooooooo .. ",
" ................................. oooooooo ... ",
" .................................. oooooo .... ",
" ...................................      ..... ",
" .............................................. ",
" .............................................. ",
"                                                "};
