/* XPM */
static char * Eloigner_xpm[] = {
"48 35 4 1",
" 	c #000000000000",
".	c #BFBFBFBFBFBF",
"X	c #FFFFFFFFFFFF",
"o	c #00000000FFFF",
"                                                ",
" .............................................. ",
" .................................         .... ",
" .................................  X X X  .... ",
" ................................. XXXXXXX .... ",
" .................................  X X X  .... ",
" ................................. XXXXXXX .... ",
" ..........................         X X X  .... ",
" ............... ..........  X X X  XXXXXX .... ",
" ...............  ......... XXXXXXX X X X  .... ",
" ............      ........  X X X  XXXXXX .... ",
" ............      .         XXXXXX X X X  .... ",
" ............  .  .. ooooooo X X X  XXXXXX .... ",
" ............  . ... ooooooo XXXXXX X X X  .... ",
" ................... ooooooo X X X  XXXXXX .... ",
" ............         oooooo XXXXXX X X X  .... ",
" ............ oXoXoXo oooooo X X X         .... ",
" ............ XoXoXoX oooooo XXXXXX ........... ",
" ............ oXoXoXo oooooo X X X  ........... ",
" .....         oXoXoX oooooo XXXXXX ........... ",
" ..... X X X X XoXoXo oooooo        ........... ",
" ..... XXXXXXX oXoXoX oooooo .................. ",
" ..... X X X X XoXoXo oooooo .................. ",
" ..... XXXXXXX oXoXoX oooooo .................. ",
" ..... X X X X XoXoXo        .................. ",
" ..... XXXXXXX oXoXoX ......................... ",
" ..... X X X X XoXoXo ......................... ",
" ..... XXXXXXX oXoXoX ......................... ",
" ..... X X X X        ......................... ",
" ..... XXXXXXX ................................ ",
" ..... X X X X ................................ ",
" ..... XXXXXXX ................................ ",
" .....         ................................ ",
" .............................................. ",
"                                                "};
