/* XPM */
static char * Equidistant_xpm[] = {
"48 35 5 1",
" 	c #000000000000",
".	c #BFBFBFBFBFBF",
"X	c #0000FFFF0000",
"o	c #FFFFFFFF0000",
"O	c #00000000FFFF",
"                                                ",
" .............................................. ",
" ..                        .................... ",
" .. XXXXXXXXXXXXXXXXXXXXXX .................... ",
" .. XXXXXXXXXXXXXXXXXXXXXX .................... ",
" .. XXXXXXXXXXXXXXXXXXXXXX .................... ",
" .. XXXXXXXXXXXXXXXXXXXXXX .................... ",
" .. XXXXXXXXXXXXXXXXXXXXXX .................... ",
" .. XXXXXXXXXXXXXXXXXXXXXX .................... ",
" .. XXXXXXXXXXXXXXXXXXXXXX .................... ",
" ..                        .................... ",
" .............................................. ",
" .............................................. ",
" ...........                       ............ ",
" ........... ooooooooooooooooooooo ............ ",
" ........... ooooooooooooooooooooo ............ ",
" ........... ooooooooooooooooooooo ............ ",
" ........... ooooooooooooooooooooo ............ ",
" ........... ooooooooooooooooooooo ............ ",
" ........... ooooooooooooooooooooo ............ ",
" ........... ooooooooooooooooooooo ............ ",
" ...........                       ............ ",
" .............................................. ",
" .............................................. ",
" ...................                         .. ",
" ................... OOOOOOOOOOOOOOOOOOOOOOO .. ",
" ................... OOOOOOOOOOOOOOOOOOOOOOO .. ",
" ................... OOOOOOOOOOOOOOOOOOOOOOO .. ",
" ................... OOOOOOOOOOOOOOOOOOOOOOO .. ",
" ................... OOOOOOOOOOOOOOOOOOOOOOO .. ",
" ................... OOOOOOOOOOOOOOOOOOOOOOO .. ",
" ................... OOOOOOOOOOOOOOOOOOOOOOO .. ",
" ...................                         .. ",
" .............................................. ",
"                                                "};
