/* XPM */
static char * Groupe_xpm[] = {
"48 35 5 1",
" 	c #000000000000",
".	c #BFBFBFBFBFBF",
"o	c #0000FFFF0000",
"O	c #00000000FFFF",
"+	c #FFFFFFFF0000",
"                                                ",
" .............................................. ",
" .......................         .............. ",
" ....................               ........... ",
" ..................     .........     ......... ",
" .................   ...............   ........ ",
" ...............   ...................   ...... ",
" ..............   .....................   ..... ",
" .............   .......................   .... ",
" .............  .............           .  .... ",
" ............  .............. ooooooooo ..  ... ",
" ...........   .           .. ooooooooo ..   .. ",
" ...........  .. OOOOOOOOO .. ooooooooo ...  .. ",
" ...........  .. OOOOOOOOO .. ooooooooo ...  .. ",
" ..........  ... OOOOOOOOO .. ooooooooo ....  . ",
" ..........  ... OOOOOOOOO .. ooooooooo ....  . ",
" ..........  ...           .. ooooooooo ....  . ",
" ..........  ................ ooooooooo ....  . ",
" ..........  ................ ooooooooo ....  . ",
" ..........  .........           oooooo ....  . ",
" ..........  ......   +++++++++++   ooo ....  . ",
" ...........  .... +++++++++++++++++ oo ...  .. ",
" ...........  .... +++++++++++++++++ oo ...  .. ",
" ...........   ....   +++++++++++   ooo ..   .. ",
" ............  .......           oooooo ..  ... ",
" .............  .............           .  .... ",
" .............   .......................   .... ",
" ..............   .....................   ..... ",
" ...............   ...................   ...... ",
" .................   ...............   ........ ",
" ..................     .........     ......... ",
" ....................               ........... ",
" .......................         .............. ",
" .............................................. ",
"                                                "};
