/* XPM */
static char * inactpolygone_xpm[] = {
"20 20 2 1",
" 	c #BFBFBFBFBFBF",
".	c #000000000000",
"                    ",
"                    ",
"        . .         ",
"      .     .       ",
"                    ",
"    .         .     ",
"   .           .    ",
"                    ",
"  .             .   ",
"                    ",
"  .             .   ",
"                    ",
"   .           .    ",
"              .     ",
"     .              ",
"      .     .       ",
"        . .         ",
"                    ",
"                    ",
"                    "};
