/* XPM */
static char * inactimage_xpm[] = {
"20 20 7 1",
" 	c #BFBFBFBFBFBF",
".	c #000000000000",
"X	c #FFFFFFFFFFFF",
"o	c #A4A4D6D6FEFE",
"O	c #FFFFE5E50000",
"+	c #B2B242420000",
"@	c #0000B2B20000",
"                    ",
"         ..         ",
"       .    .       ",
"     .        .     ",
"   . . . . . . . .  ",
" .X X X X X X X X . ",
"     X X X X X X X  ",
" .X o o o o o o X . ",
"   X o O o o o o X  ",
" .X o O O o + o X . ",
"   XoO O o + + o X. ",
" .X o O o + + + X   ",
"   X o o o + +   X. ",
" .  o o o + + + X   ",
"   X @ @ @ @ @ @ X. ",
" .X @ @ @ @ @ @ X   ",
"   X X X X X X X X. ",
" .X X X X X X X     ",
"  . . . . . . . . . ",
"                    "};
