/* XPM */
static char * LabelBG_xpm[] = {
"48 35 3 1",
" 	c #000000000000",
".	c #BFBFBFBFBFBF",
"X	c #0000FFFF0000",
"                                                ",
" .............................................. ",
" .............................................. ",
" .............................................. ",
" .............................................. ",
" .............................................. ",
" ...                                        ... ",
" ... XXXXXXXXXXXXXXXXXXXXXXXXXXXXXXXXXXXXXX ... ",
" ... XXXXXXXXXXXXXXXXXXXXXXXXXXXXXXXXXXXXXX ... ",
" ... XXXXXXXXXXXXXXXXXXXXXXXXXXXXXXXXXXXXXX ... ",
" ... XXXXXXXXXXXXXXXXXXXXXXXXXXXXXXXXXXXXXX ... ",
" ... XXXXXXXXXXXXXXXXXXXXXXXXXXXXXXXXXXXXXX ... ",
" ... XXXXXXXXXXXXXXXXXXXXXXXXXXXXXXXXXXXXXX ... ",
" ... XXXXXXXXXXXXXXXXXXXXXXXXXXXXXXXXXXXXXX ... ",
" ... XXXXXXXXXXXXXXXXXXXXXXXXXXXXXXXXXXXXXX ... ",
" ... XXXXXXXXXXXXXXXXXXXXXXXXXXXXXXXXXXXXXX ... ",
" ... XXXXXXXXXXXXXXXXXXXXXXXXXXXXXXXXXXXXXX ... ",
" ... XXXXXXXXXXXXXXXXXXXXXXXXXXXXXXXXXXXXXX ... ",
" ... X   XXXXXXXXXX  XXXXXXXXXX  XXXXXXXXXX ... ",
" ... XX XXXXXXXXXXXX XXXXXXXXXXX XXXXXXXXXX ... ",
" ... XX XXXXXXXXXXXX XXXXXXXXXXX XXXXXXXXXX ... ",
" ... XX XXXXXXX  XXX   XXXX  XXX XXXXXXXXXX ... ",
" ... XX XXXXXX XX XX XX XX XX XX XXXXXXXXXX ... ",
" ... XX XXXXXXX   XX XX XX    XX XXXXXXXXXX ... ",
" ... XX XXXXXX XX XX XX XX XXXXX XXXXXXXXXX ... ",
" ... XX XXX XX XX XX XX XX  XX X XXXXXXXXXX ... ",
" ... X      XXX  X X   XXXX   X   XXXXXXXXX ... ",
" ... XXXXXXXXXXXXXXXXXXXXXXXXXXXXXXXXXXXXXX ... ",
" ...                                        ... ",
" .............................................. ",
" .............................................. ",
" .............................................. ",
" .............................................. ",
" .............................................. ",
"                                                "};
