/* XPM */
static char * LabelHG_xpm[] = {
"48 35 3 1",
" 	c #000000000000",
".	c #BFBFBFBFBFBF",
"X	c #0000FFFF0000",
"                                                ",
" .............................................. ",
" .............................................. ",
" .............................................. ",
" .............................................. ",
" .............................................. ",
" ...                                        ... ",
" ... XXXXXXXXXXXXXXXXXXXXXXXXXXXXXXXXXXXXXX ... ",
" ...    XXXXXXXXXX  XXXXXXXXXX  XXXXXXXXXXX ... ",
" ... X XXXXXXXXXXXX XXXXXXXXXXX XXXXXXXXXXX ... ",
" ... X XXXXXXXXXXXX XXXXXXXXXXX XXXXXXXXXXX ... ",
" ... X XXXXXXX  XXX   XXXX  XXX XXXXXXXXXXX ... ",
" ... X XXXXXX XX XX XX XX XX XX XXXXXXXXXXX ... ",
" ... X XXXXXXX   XX XX XX    XX XXXXXXXXXXX ... ",
" ... X XXXXXX XX XX XX XX XXXXX XXXXXXXXXXX ... ",
" ... X XXX XX XX XX XX XX  XX X XXXXXXXXXXX ... ",
" ...       XXX  X X   XXXX   X   XXXXXXXXXX ... ",
" ... XXXXXXXXXXXXXXXXXXXXXXXXXXXXXXXXXXXXXX ... ",
" ... XXXXXXXXXXXXXXXXXXXXXXXXXXXXXXXXXXXXXX ... ",
" ... XXXXXXXXXXXXXXXXXXXXXXXXXXXXXXXXXXXXXX ... ",
" ... XXXXXXXXXXXXXXXXXXXXXXXXXXXXXXXXXXXXXX ... ",
" ... XXXXXXXXXXXXXXXXXXXXXXXXXXXXXXXXXXXXXX ... ",
" ... XXXXXXXXXXXXXXXXXXXXXXXXXXXXXXXXXXXXXX ... ",
" ... XXXXXXXXXXXXXXXXXXXXXXXXXXXXXXXXXXXXXX ... ",
" ... XXXXXXXXXXXXXXXXXXXXXXXXXXXXXXXXXXXXXX ... ",
" ... XXXXXXXXXXXXXXXXXXXXXXXXXXXXXXXXXXXXXX ... ",
" ... XXXXXXXXXXXXXXXXXXXXXXXXXXXXXXXXXXXXXX ... ",
" ... XXXXXXXXXXXXXXXXXXXXXXXXXXXXXXXXXXXXXX ... ",
" ...                                        ... ",
" .............................................. ",
" .............................................. ",
" .............................................. ",
" .............................................. ",
" .............................................. ",
"                                                "};
