/* XPM */
static char * LabelBD_xpm[] = {
"48 35 3 1",
" 	c #000000000000",
".	c #BFBFBFBFBFBF",
"X	c #0000FFFF0000",
"                                                ",
" .............................................. ",
" .............................................. ",
" .............................................. ",
" .............................................. ",
" .............................................. ",
" ...                                        ... ",
" ... XXXXXXXXXXXXXXXXXXXXXXXXXXXXXXXXXXXXXX ... ",
" ... XXXXXXXXXXXXXXXXXXXXXXXXXXXXXXXXXXXXXX ... ",
" ... XXXXXXXXXXXXXXXXXXXXXXXXXXXXXXXXXXXXXX ... ",
" ... XXXXXXXXXXXXXXXXXXXXXXXXXXXXXXXXXXXXXX ... ",
" ... XXXXXXXXXXXXXXXXXXXXXXXXXXXXXXXXXXXXXX ... ",
" ... XXXXXXXXXXXXXXXXXXXXXXXXXXXXXXXXXXXXXX ... ",
" ... XXXXXXXXXXXXXXXXXXXXXXXXXXXXXXXXXXXXXX ... ",
" ... XXXXXXXXXXXXXXXXXXXXXXXXXXXXXXXXXXXXXX ... ",
" ... XXXXXXXXXXXXXXXXXXXXXXXXXXXXXXXXXXXXXX ... ",
" ... XXXXXXXXXXXXXXXXXXXXXXXXXXXXXXXXXXXXXX ... ",
" ... XXXXXXXXXXXXXXXXXXXXXXXXXXXXXXXXXXXXXX ... ",
" ... XXXXXXXXXX   XXXXXXXXXX  XXXXXXXXXX  X ... ",
" ... XXXXXXXXXXX XXXXXXXXXXXX XXXXXXXXXXX X ... ",
" ... XXXXXXXXXXX XXXXXXXXXXXX XXXXXXXXXXX X ... ",
" ... XXXXXXXXXXX XXXXXXX  XXX   XXXX  XXX X ... ",
" ... XXXXXXXXXXX XXXXXX XX XX XX XX XX XX X ... ",
" ... XXXXXXXXXXX XXXXXXX   XX XX XX    XX X ... ",
" ... XXXXXXXXXXX XXXXXX XX XX XX XX XXXXX X ... ",
" ... XXXXXXXXXXX XXX XX XX XX XX XX  XX X X ... ",
" ... XXXXXXXXXX      XXX  X X   XXXX   X    ... ",
" ... XXXXXXXXXXXXXXXXXXXXXXXXXXXXXXXXXXXXXX ... ",
" ...                                        ... ",
" .............................................. ",
" .............................................. ",
" .............................................. ",
" .............................................. ",
" .............................................. ",
"                                                "};
