/* XPM */
static char * lien1_xpm[] = {
"48 35 3 1",
" 	c #000000000000",
".	c #BFBFBFBFBFBF",
"X	c #FFFF00000000",
"                                                ",
" .............................................. ",
" .............................................. ",
" .............................................. ",
" .............................................. ",
" .............................................. ",
" .............................................. ",
" .............................................. ",
" .............................................. ",
" ........................................X..... ",
" ........................................XX.... ",
" ........................................XXX... ",
" ........................................XXXX.. ",
" ........................................XXXXX. ",
" XXXXXXXXXXXXXXXXXXXXXXXXXXXXXXXXXXXXXXXXXXXXXX ",
" XXXXXXXXXXXXXXXXXXXXXXXXXXXXXXXXXXXXXXXXXXXXXX ",
" ........................................XXXXX. ",
" ........................................XXXX.. ",
" ........................................XXX... ",
" ........................................XX.... ",
" ........................................X..... ",
" .............................................. ",
" .............................................. ",
" .............................................. ",
" .............................................. ",
" .............................................. ",
" .............................................. ",
" .............................................. ",
" .............................................. ",
" .............................................. ",
" .............................................. ",
" .............................................. ",
" .............................................. ",
" .............................................. ",
"                                                "};
