/* XPM */
static char * lien3_xpm[] = {
"48 35 4 1",
" 	c #000000000000",
".	c #BFBFBFBFBFBF",
"X	c #FFFFFFFFFFFF",
"o	c #FFFF00000000",
"                                                ",
" .............................................. ",
" ...................... X...................... ",
" ......................X ...................... ",
" ...................... X...................... ",
" ......................X ...................... ",
" ...................... X...................... ",
" ......................X ...................... ",
" ...................... X...................... ",
" ......................X ...................... ",
" ...................... X...................... ",
" ......................X ...................... ",
" ...................... X...................... ",
" ......................X ...................... ",
" ...................... X...................... ",
" .oooooooooooooooooooooooooooooooooooooooooooo. ",
" .oooooooooooooooooooooooooooooooooooooooooooo. ",
" . X...........X ..............X ........... X. ",
" .X ........... X.............. X...........X . ",
" . X...........X ..............X ........... X. ",
" .X ........... X.............. X...........X . ",
" . X...........X ..............X ........... X. ",
" .X ........... X.............. X...........X . ",
" . X...........X ..............X ........... X. ",
" .X ........... X.............. X...........X . ",
" . X...........X ..............X ........... X. ",
" .X ........... X.............. X...........X . ",
" . X...........X ..............X ........... X. ",
" .X ........... X.............. X...........X . ",
" . X...........X ..............X ........... X. ",
" .X ........... X.............. X...........X . ",
" . X...........X ..............X ........... X. ",
" .............................................. ",
" .............................................. ",
"                                                "};
