/* XPM */
static char * lien2_xpm[] = {
"48 35 4 1",
" 	c #000000000000",
".	c #BFBFBFBFBFBF",
"X	c #FFFF00000000",
"o	c #FFFF0000FFFF",
"                                                ",
" .............................................. ",
" .............................................. ",
" .............................................. ",
" .............................................. ",
" .............................................. ",
" .............................................. ",
" .............................................. ",
" .............................................. ",
" ....................................X......... ",
" ....................................XX........ ",
" ....................................XoX....... ",
" ....................................XooX...... ",
" ....................................XoooX..... ",
" .XXXXXXXXXXXXXXXXXXXXXXXXXXXXXXXXXXXXooooX.... ",
" .XooooooooooooooooooooooooooooooooooooooooX... ",
" .XoooooooooooooooooooooooooooooooooooooooooX.. ",
" .XoooooooooooooooooooooooooooooooooooooooooX.. ",
" .XooooooooooooooooooooooooooooooooooooooooX... ",
" .XXXXXXXXXXXXXXXXXXXXXXXXXXXXXXXXXXXXooooX.... ",
" ....................................XoooX..... ",
" ....................................XooX...... ",
" ....................................XoX....... ",
" ....................................XX........ ",
" ....................................X......... ",
" .............................................. ",
" .............................................. ",
" .............................................. ",
" .............................................. ",
" .............................................. ",
" .............................................. ",
" .............................................. ",
" .............................................. ",
" .............................................. ",
"                                                "};
