/* XPM */
static char * Loupe_xpm[] = {
"48 35 4 1",
" 	c #000000000000",
".	c #BFBFBFBFBFBF",
"X	c #00000000FFFF",
"o	c #0000FFFF0000",
"                                                ",
" .............................................. ",
" .............................................. ",
" ................            .................. ",
" ..............                ................ ",
" .............    XXXXXXXXXX    ............... ",
" ...........    XXXXXXXXXXXXXX    ............. ",
" ..........   XXXXXXXXXXXXXXXXXX   ............ ",
" ..........  XXXXXXXXXXXXXXXXXXXX  ............ ",
" .........                          ........... ",
" ........   oooooooooooooooooooooo   .......... ",
" ........  oooooooooooooooooooooooo  .......... ",
" .......   ooooooooo ooooo     oooo   ......... ",
" .......  ooooooooo o oooo oooo oooo  ......... ",
" .......  ooooooooo o oooo oooo oooo  ......... ",
" .......  oooooooo ooo ooo oooo oooo  ......... ",
"          oooooooo ooo ooo     ooooo            ",
"  oooooo  oooooooo     ooo oooo oooo  oooooooo  ",
"  oooooo  ooooooo ooooo oo oooo oooo  oooooooo  ",
"  oooooo  ooooooo ooooo oo oooo oooo  oooooooo  ",
"          ooooooo ooooo oo     ooooo            ",
" .......  oooooooooooooooooooooooooo  ......... ",
" .......   oooooooooooooooooooooooo   ......... ",
" ........  oooooooooooooooooooooooo  .......... ",
" ........   oooooooooooooooooooooo   .......... ",
" .........                            ......... ",
" ..........  XXXXXXXXXXXXXXXXXXXX      ........ ",
" ..........   XXXXXXXXXXXXXXXXXX         ...... ",
" ...........    XXXXXXXXXXXXXX    .       ..... ",
" .............    XXXXXXXXXX    ....        ... ",
" ..............                .......        . ",
" ................            ...........        ",
" ........................................       ",
" ..........................................     ",
"                                                "};
