/* XPM */
static char * MemeGroupe_xpm[] = {
"48 35 6 1",
" 	c #000000000000",
".	c #BFBFBFBFBFBF",
"X	c #FFFFFFFFFFFF",
"o	c #00000000FFFF",
"O	c #0000FFFF0000",
"+	c #FFFFFFFF0000",
"                                                ",
" .............................................. ",
" .           ...........         .............. ",
" . oXoXoXoXo ..........             ........... ",
" . XoXoXoXoX .        . .........     ......... ",
" . oXoXoXoXo .        ..............   ........ ",
" . XoXoXoXoX .......  ................   ...... ",
" .           .....      ...............   ..... ",
" .............   ..    .................   .... ",
" .............  ....  .......           .  .... ",
" ............  .............. OOOOOOOOO ..  ... ",
" ...........   .           .. OOOOOOOOO ..   .. ",
" ...........  .. ooooooooo .. OOOOOOOOO ...  .. ",
" ...........  .. ooooooooo .. OOOOOOOOO ...  .. ",
" ..........  ... ooooooooo .. OOOOOOOOO ....  . ",
" ..........  ... ooooooooo .. OOOOOOOOO ....  . ",
" ..........  ...           .. OOOOOOOOO ....  . ",
" ..........  ................ OOOOOOOOO ....  . ",
" ..........  ................ OOOOOOOOO ....  . ",
" ..........  .........           OOOOOO ....  . ",
" ..........  ......   +++++++++++   OOO ....  . ",
" ...........  .... +++++++++++++++++ OO ...  .. ",
" ...........  .... +++++++++++++++++ OO ...  .. ",
" ...........   ....   +++++++++++   OOO ..   .. ",
" ............  .......           OOOOOO ..  ... ",
" .............  .............           .  .... ",
" .............   .......................   .... ",
" ..............   .....................   ..... ",
" ...............   ...................   ...... ",
" .................   ...............   ........ ",
" ..................     .........     ......... ",
" ....................               ........... ",
" .......................         .............. ",
" .............................................. ",
"                                                "};
