/* XPM */
static char * MemeDimension_xpm[] = {
"48 35 5 1",
" 	c #000000000000",
".	c #BFBFBFBFBFBF",
"X	c #0000FFFF0000",
"o	c #FFFFFFFF0000",
"O	c #00000000FFFF",
"                                                ",
" .............................................. ",
" .............................................. ",
" ..                                       ..... ",
" .. XXXXXXXXXXXXXXXXXXXXXXXXXXXXXXXXXXXXX ..... ",
" .. XXXXXXXXXXXXXXXXXXXXXXXXXXXXXXXXXXXXX ..... ",
" .. XXXXXXXXXXXXXXXXXXXXXXXXXXXXXXXXXXXXX ..... ",
" .. XXXXXXXXXXXXXXXXXXXXXXXXXXXXXXXXXXXXX ..... ",
" .. XXXXXXXXXXXXXXXXXXXXXXXXXXXXXXXXXXXXX ..... ",
" ..                                       ..... ",
" .............................................. ",
" .............................................. ",
" .............................................. ",
" .............................................. ",
" ..                    .  .  .  .  .  .  ...... ",
" .. ooooooooooooooooo ooooooooooooooooooo ..... ",
" .. ooooooooooooooooo ooooooooooooooooooo ..... ",
" .. ooooooooooooooooo ooooooooooooooooooo...... ",
" ..                   ooooooooooooooooooo ..... ",
" .. ooooooooooooooooooooooooooooooooooooo ..... ",
" ..  .  .  .  .  .  .  .  .  .  .  .  .  ...... ",
" .............................................. ",
" .............................................. ",
" .............................................. ",
" .............................................. ",
" ..                             .  .  .  ...... ",
" .. OOOOOOOOOOOOOOOOOOOOOOOOOO OOOOOOOOOO ..... ",
" .. OOOOOOOOOOOOOOOOOOOOOOOOOO OOOOOOOOOO ..... ",
" .. OOOOOOOOOOOOOOOOOOOOOOOOOO OOOOOOOOOO...... ",
" .. OOOOOOOOOOOOOOOOOOOOOOOOOO OOOOOOOOOO ..... ",
" .. OOOOOOOOOOOOOOOOOOOOOOOOOO OOOOOOOOOO ..... ",
" ..                             .  .  .  ...... ",
" .............................................. ",
" .............................................. ",
"                                                "};
