/* XPM */
static char *image_xpm[] = {
/* width height ncolors chars_per_pixel */
"48 48 11 1",
/* colors */
"` c black",
"a c lime green",
"b c green",
"c c gainsboro",
"d c firebrick",
"e c peru",
"f c sky blue",
"g c dark slate grey",
"h c sea green",
"i c white",
"j c gold",
/* pixels */
"iiiiiiiiiiiiiiiiiiiiiiiiiiiiiiiiiiiiiiiiiiiiiiii",
"iiiiiiiiiiiiiiiiiiiiiiiiiiiiiiiiiiiiiiiiiiiiiiii",
"iiiiiiiiiiiiiiiiiiiiiiiiiiiiiiiiiiiiiiiiiiiiiiii",
"iiiiiiiiiiiiiiiiiiiiiiiiiiiiiiiiiiiiiiiiiiiiiiii",
"iiiiiiiiiiiiiiiiiiiiiiiiiiiiiiiiiiiiiiiiiiiiiiii",
"iiiiiiiiiiiiiiiiiiiiiiiiiiiiiiiiiiiiiiiiiiiiiiii",
"iiiiiiiiiiiiiiiiiiiiiiiiiiiiiiiiiiiiiiiiiiiiiiii",
"eeeeeeeeeeeeeeeeeeeeeeeeeeeeeeeeeeeeeeeeeeeeeeeg",
"eeeeeeeeeeeeeeeeeeeeeeeeeeeeeeeeeeeeeeeeeeeeeegg",
"eegggggggggggggggggggggggggggggggggggggggggggegg",
"eeggggggggggggggggggggggggggggggggggggggggggeegg",
"eeggffffbfffffffffffffffffffffffffffffffffffeegg",
"eeggffbfbfffbfffffffffffffffffffffffffffffffeegg",
"eeggfffbfbhbfbffffffffffffffffffffffffffffffeegg",
"eeggfffhhb`fhfbfffffffffffffffffffffffffffffeegg",
"eeggfhb`hbbh`fbfffffffffffffffffffffffffffffeegg",
"eeggffb``h````bfffffffffffffffffffffffffffffeegg",
"eeggfffbbgbbb`ffffffffffffffffffffffffffffffeegg",
"eeggffbg``b```bfffffffffffffffffffffffffffffeegg",
"eeggfffgghb`bfgccccccccccccccccccccccccccccceegg",
"eeggccbhggbg`hgcccccccccccccccccccccccccccgfeegg",
"eeggccbgbh``chcccccccccccgcccccccggggggcggggeegg",
"eeggc`g`gg```bb`cccgggggggggggggggggggggggggeegg",
"eeggccbggbhggbggccggggggggggggggggggggggggggeegg",
"eeggh`gb```ghbhghhhhhhhbhhhhhhhhhhggggggggggeegg",
"eegghgb`bbbgggh`hhhhhhjhhhh`````````hhhhggggeegg",
"eegghbgbgbg`g`gghhhhhhjhhh````````````hhhhhheegg",
"eegggbghg`h`hhhhhhhhhhjhhh`````````````hhhhheegg",
"eegghhhhhhh`hhhhhhhhhjjhhh`dddddddddddhhhhhheegg",
"eegghhhhhhh`hhhhhhhhhjjhhh`dddddddddddhhhhhheegg",
"eegghhhhhhh`hhhhhhhhjjjhhh`dd````dddddhhhhhheegg",
"eegghhhhhhh`hhhhhhhhjjjhhh`dd````dddddhhhhhheegg",
"eegghhhhhhhhhhhhhhhjjjjhhh`dddddddddddhhhhhheegg",
"eegghhhhghhhghhahhhjjjjjhh`ddddddddddhhhhhhheegg",
"eegghhhhgahggaaahhjjjjjjhaaaaaaaaaaaaag```hheegg",
"eegghhhhgaaagaaahhjjjjjjhhaaaaaaaaa``aagaghheegg",
"eegghaaaggaagghahjjjjjjjhhaaaaaaaaa`aaahahhheegg",
"eegghhhhhhhhhhhhjjjjjjjjhhhaaaaaaaaaaaaaaaaaeegg",
"eeggeeeeeeeeeeeeeeeeeeeeeeeeeeeeeeeeeeeeeeeeeegg",
"eegeeeeeeeeeeeeeeeeeeeeeeeeeeeeeeeeeeeeeeeeeeegg",
"eegggggggggggggggggggggggggggggggggggggggggggggg",
"eggggggggggggggggggggggggggggggggggggggggggggggg",
"iiiiiiiiiiiiiiiiiiiiiiiiiiiiiiiiiiiiiiiiiiiiiiii",
"iiiiiiiiiiiiiiiiiiiiiiiiiiiiiiiiiiiiiiiiiiiiiiii",
"iiiiiiiiiiiiiiiiiiiiiiiiiiiiiiiiiiiiiiiiiiiiiiii",
"iiiiiiiiiiiiiiiiiiiiiiiiiiiiiiiiiiiiiiiiiiiiiiii",
"iiiiiiiiiiiiiiiiiiiiiiiiiiiiiiiiiiiiiiiiiiiiiiii",
"iiiiiiiiiiiiiiiiiiiiiiiiiiiiiiiiiiiiiiiiiiiiiiii"
};
