/* XPM */
static char * Rapprocher_xpm[] = {
"48 35 4 1",
" 	c #000000000000",
".	c #BFBFBFBFBFBF",
"X	c #FFFFFFFFFFFF",
"o	c #00000000FFFF",
"                                                ",
" .............................................. ",
" .................................         .... ",
" .................................  X X X  .... ",
" ................................. XXXXXXX .... ",
" .................................  X X X  .... ",
" ................................. XXXXXXX .... ",
" ..........................         X X X  .... ",
" ..............        ....  X X X  XXXXXX .... ",
" ..............        .... XXXXXXX X X X  .... ",
" ..............  ..........  X X X  XXXXXX .... ",
" ............      .         XXXXXX X X X  .... ",
" .............    .. XoXoXoX X X X  XXXXXX .... ",
" ..............  ... oXoXoXo XXXXXX X X X  .... ",
" ................... XoXoXoX X X X  XXXXXX .... ",
" ............         XoXoXo XXXXXX X X X  .... ",
" ............ ooooooo oXoXoX X X X         .... ",
" ............ ooooooo XoXoXo XXXXXX ........... ",
" ............ ooooooo oXoXoX X X X  ........... ",
" .....         oooooo XoXoXo XXXXXX ........... ",
" ..... X X X X oooooo oXoXoX        ........... ",
" ..... XXXXXXX oooooo XoXoXo .................. ",
" ..... X X X X oooooo oXoXoX .................. ",
" ..... XXXXXXX oooooo XoXoXo .................. ",
" ..... X X X X oooooo        .................. ",
" ..... XXXXXXX oooooo ......................... ",
" ..... X X X X oooooo ......................... ",
" ..... XXXXXXX oooooo ......................... ",
" ..... X X X X        ......................... ",
" ..... XXXXXXX ................................ ",
" ..... X X X X ................................ ",
" ..... XXXXXXX ................................ ",
" .....         ................................ ",
" .............................................. ",
"                                                "};
