/* XPM */
static char * Texture_xpm[] = {
"48 35 14 1",
" 	c #000000000000",
".	c #BFBFBFBFBFBF",
"X	c #FFFFFFFFFFFF",
"o	c #FFFF00000000",
"O	c #3333FFFFFFFF",
"+	c #00000000DDDD",
"@	c #0000DDDD0000",
"#	c #0000FFFF0000",
"$	c #F8F86969A6A6",
"%	c #B1B12929F8F8",
"&	c #14142929F8F8",
"*	c #99990000FFFF",
"=	c #FFFF00009999",
"-	c #FFFFFFFF3333",
"                                                ",
" .............................................. ",
" .XXXXXX XXXXXXX XXXXX X XXXXX XXX XXX XXX XXX. ",
" .               XXXXX X XXXXX XXXX XXX XXX XX. ",
" .XX XXXXXXX XXX XXXXX X XXXXX XXX XXX XXX XXX. ",
" .XX XXXXXXX XXXX XXX XXX XXX XXX XXX XXX XXX . ",
" .XX XXXXXXX XXXXX   XXXXX   XXX XXX XXX XXX X. ",
" .              XXXXXXXXXXXXXXXXX XXX XXX XXX . ",
" .XXXXXX XXXXXXX XXXXX   XXXXX  XX XXX XXX XXX. ",
" .XXXXXX XXXXXXXX XXX XXX XXX XXXXX XXX XXX XX. ",
" .XXXXXX XXXXXXXXX X XXXXX X XXXXX XXX XXX XXX. ",
" .              XX X XXXXX X XXXX XXX XXX XXX . ",
" .XX XXXXXXX XXXXX X XXXXX X XXX XXX XXX XXX X. ",
" .oO++@oOOoO++@   ### $   %%% & XXXXXXXXXXXXXX. ",
" .***+=@X-***+=@   ###     %%%  XXXXXXXXXXXXXX. ",
" .@@Xoo@--@@Xoo@  $ ###   & %%% XXXXXXXXXXXXXX. ",
" .@@oo+@OO@@oo+@ $$$ ### &&& %%%XXXXXXXXXXXXXX. ",
" .@@*+++OO@@*+++$$$   # &&&   % XXXXXXXXXXXXXX. ",
" .==X+++-O==X+++$$     &&&     $XXXXXXXXXXXXXX. ",
" .===O*+=====O*+$ %   &&& #   $$XXXXXXXXXXXXXX. ",
" .oo=@@@Xooo=@@@ %%% &&& ### $$$XXXXXXXXXXXXXX. ",
" .oO++@oOOoO++@   %%% &   ### $ XXXXXXXXXXXXXX. ",
" .***+=@X-***+=@   %%%     ###  XXXXXXXXXXXXXX. ",
" .@@Xoo@--@@Xoo@  & %%%   $     XXXXXXXXXXXXXX. ",
" .XX=XXX=XXXXXXXXXX XXX XXX XXX X X X X X X X . ",
" .XXX=XXXXXXXXXX XXX XXX XXX XXX X X X X X X X. ",
" .XXXX=XXXXXXXXXX XXX XXX XXX XXX X X X X X X . ",
" .oooXX=XXXXXXX@XX XXX XXX XXX X X X X X X X X. ",
" .XXXXXX=XXXXX@XXXX XXX XXX XXX X X X X X X X . ",
" .XXXXXXXXXXX@XX XXX XXX XXX XXX X X X X X X X. ",
" .OXX+++++XX@XXXX XXX XXX XXX XXX X X X X X X . ",
" .OXXXXXXXX@XXXXXX XXX XXX XXX X X X X X X X X. ",
" .X*XXXXXXXXXXXXXXX XXX XXX XXX X X X X X X X . ",
" .............................................. ",
"                                                "};
