/* XPM */
static char * ThotDraw_xpm[] = {
"66 48 6 1",
" 	c #000000000000",
".	c #EFEFFBFBFFFF",
/* "X	c #5A5AD3D3FFFF", */
"X	c #BFBFBFBFBFBF",
"o	c #0000FFFF0000",
"O	c #FFFF00000000",
"+	c #00000000FFFF",
"                                                                  ",
" . . . . . . . . . . . . . . . . . . . . . . . . . . . . . . . .  ",
"  XXXXXXXXXXXXXXXXXXXXXXXXXXXXXXXXXXXXXXXXXXXXXXXXXXXXXXXXXXXXXX. ",
" .XXXXXX         XXXXXXXXXXXXXXXXXXXXXXXXXXXXXXXX         XXXXXX  ",
"  XXXX  ooooooooo  XXXXXXXXXXXXXXXXXXXXXXXOXXXX  ooooooooo  XXXX. ",
" .XXX ooooooooooooo XXXXXXXXXXXXXXXXXXXXXXOOXX ooooooooooooo XXX  ",
"  XX ooooooooooooooo OOOOOOOOOOOOOOOOOOOOOOOO ooooooooooooooo XX. ",
" .XX ooooooooooooooo XXXXXXXXXXXXXXXXXXXXXOOX ooooooooooooooo XX  ",
"  XXX ooooooooooooo XXXXXXXXXXXXXXXXXXXXXXOXXX ooooooooooooo XXX. ",
" .XXXX  ooooooooo  XXXXXXXXXXXXXXXXXXXXXXXXXXXX  ooooooooo  XXXX  ",
"  XXXXXX         XXXXXXXXXXXXXXXXXXXXXXXXXXXXXXXX         XXXXXX. ",
" .XXXXXXXXXXOXXXXXXXXXXXXXXXXXXXXXXXXXXXXXXXXXXXXXXXXOXXXXXXXXXX  ",
"  XXXXXXXXXXOXXXXXXXXXXXXXXXXXXXXXXXXXXXXXXXXXXXXXXXXOXXXXXXXXXX. ",
" .XXXXXXXXXXOXXXXXXXXXXXXXXXXXXXXXXXXXXXXXXXXXXXXXXXXOXXXXXXXXXX  ",
"  XXXXXXXOOOOOOOOOOOOOOOOOOOOOOOOOOOOOOOOOOOOOOOOOOOOOOOOXXXXXXX. ",
" .XXXXXXXOXXXXXXXXXXXXXXXXXXXXXXXXOXXXXXXXXXXXXXXXXXXXXXOXXXXXXX  ",
"  XXXXXXXOXXXXXXXXXXXXXXXXXXXXXXXXOXXXXXXXXXXXXXXXXXXXXXOXXXXXXX. ",
" .XXXXXXXOXXXXXXXXXXXXXXXXXXXXXXXXOXXXXXXXXXXXXXXXXXXXXXOXXXXXXX  ",
"  X                XXXXXXXX               XXXXXXX              X. ",
" .X ++++++++++++++ XXXXXXXX +++++++++++++ XXXXXXX ++++++++++++ X  ",
"  X ++++++++++++++ XXXXXXXX +++++++++++++ XXXXXXX ++++++++++++ X. ",
" .X ++++++++++++++ XXXXXXXX +++++++++++++ XXXXXXX ++++++++++++ X  ",
"  X ++++++++++++++ XXXXXXXX +++++++++++++ XXXXXXX ++++++++++++ X. ",
" .X ++++++++++++++ XXXXXXXX +++++++++++++ XXXXXXX ++++++++++++ X  ",
"  X ++++++++++++++ XXXXXXXX +++++++++++++ XXXXXXX ++++++++++++ X. ",
" .X                XXXXXXXX               XXXXXXX              X  ",
"  XXXXXXXXXXXXXXXXXXXXXXXXXXXXXXXXXXXXXXXXXXXXXXXXXXXXXXXXXXXXXX. ",
" .XXXXXXXXXXXXXXXXXXXXXXXXXXXXXXXXXXXXXXXXXXXXXXXXXXXXXXXXXXXXXX  ",
"  XXXXXXXXXXXXXXXXXXXXXXXXXXXXXXXXXXXXXXXXXXXXXXXXXXXXXXXXXXXXXX. ",
" .XXXXXXXXXXXXXXXXXXXXXXXXXXXXXXXXXXXXXXXXXXXXXXXXXXXXXXXXXXXXXX  ",
"  XXXXXXXXXXXXXXXXXXXXXXXXXXXXXXXXXXXXXXXXXXXXXXXXXXXXXXXXXXXXXX. ",
" .XXXXXXXXXXXXXXXXXXXXXXXXXXXXXXXXXXXXXXXXXXXXXXXXXXXXXXXXXXXXXX  ",
"  XXXXXXXXXXXXXXXXXXXXXXXXXXXXXXXXXXXXXXXXXXXXXXXXXXXXXXXXXXXXXX. ",
" .XXXXXXXXXXXXXXXXXXXXXXXXXXXXXXXXXXXXXXXXXXXXXXXXXXXXXXXXXXXXXX  ",
"  XX          XXXXXXXXXXXXX  XXXXXXX     XXXXXXXXXXXXXXXXXXXXXXX. ",
" .XXXXX  XXX  XXXXXXXXXXXXX  XXXXXXX  XX  XXXXXXXXXXXXXXXXXXXXXX  ",
"  XXXX  XXX  X  XXX    XX     XXXXX  XXX  X  X      X  XX  XX  X. ",
" .XXXX  XXX   X  X  XX  XX  XXXXXXX  XXX  X      XX    XX  XX  X  ",
"  XXX  XXX  XXX    XXX  X  XXXXXXX  XXXX     XXXXXX    X   X  XX. ",
" .XXX  XXX  XX  X  XX  XX  XXXXXXX  XXX  X  XXX     X  X   X  XX  ",
"  XXX  XXX  XX    XXX  XX  XXXXXXX  XXX  X  XX  XX  XX X X X XXX. ",
" .XX  XXX  XX  X  XX  XX  XXXXXXX  XXX  X  XXX XX  XXX   X   XXX  ",
"  XX  XXX  XX  XX    XXX   XXXXXX      XX  XXX   X  XX  XX  XXXX. ",
" .XXXXXXXXXXXXXXXXXXXXXXXXXXXXXXXXXXXXXXXXXXXXXXXXXXXXXXXXXXXXXX  ",
"  XXXXXXXXXXXXXXXXXXXXXXXXXXXXXXXXXXXXXXXXXXXXXXXXXXXXXXXXXXXXXX. ",
" .XXXXXXXXXXXXXXXXXXXXXXXXXXXXXXXXXXXXXXXXXXXXXXXXXXXXXXXXXXXXXX  ",
"  . . . . . . . . . . . . . . . . . . . . . . . . . . . . . . . . ",
"                                                                  "};
