/* XPM */
static char * TraitH_xpm[] = {
"48 35 2 1",
" 	c #000000000000",
".	c #BFBFBFBFBFBF",
"                                                ",
" .............................................. ",
" .............................................. ",
" .............................................. ",
" .............................................. ",
" .............................................. ",
" .............................................. ",
" ......   ..  ..  ..  ..  ..  ..  ..  .. ...... ",
" ....................................... ...... ",
" .............................................. ",
" .............................................. ",
" ...... ................................ ...... ",
" ...... ................................ ...... ",
" .............................................. ",
" .............................................. ",
" ...... ................................ ...... ",
" ...... ..                            .. ...... ",
" .........                            ......... ",
" .........                            ......... ",
" ...... ................................ ...... ",
" ...... ................................ ...... ",
" .............................................. ",
" .............................................. ",
" ...... ................................ ...... ",
" ...... ................................ ...... ",
" .............................................. ",
" .............................................. ",
" ......  ..  ..  ..  ..  ..  ..  ..  ..  ...... ",
" .............................................. ",
" .............................................. ",
" .............................................. ",
" .............................................. ",
" .............................................. ",
" .............................................. ",
"                                                "};
