/* XPM */
static char * TraitDot_xpm[] = {
"48 35 3 1",
" 	c #000000000000",
".	c #BFBFBFBFBFBF",
"X	c #FFFFFFFFFFFF",
"                                                ",
" .............................................. ",
" .............................................. ",
" .............................................. ",
" .............................................. ",
" .............................................. ",
" .............................................. ",
" .............................................. ",
" .............................................. ",
" .............................................. ",
" .............................................. ",
" .............................................. ",
" .............................................. ",
" .............................................. ",
" .............................................. ",
" .... .... .... .... .... .... .... .... ...... ",
" ...   ..   ..   ..   ..   ..   ..   ..   ..... ",
" ...   ..   ..   ..   ..   ..   ..   ..   ..... ",
" .... .... .... .... .... .... .... .... ...... ",
" .............................................. ",
" .............................................. ",
" .............................................. ",
" .............................................. ",
" .............................................. ",
" .............................................. ",
" .............................................. ",
" .............................................. ",
" .............................................. ",
" .............................................. ",
" .............................................. ",
" .............................................. ",
" .............................................. ",
" .............................................. ",
" .............................................. ",
"                                                "};
