/* XPM */
static char * VersPalette_xpm[] = {
"48 35 4 1",
" 	c #000000000000",
".	c #BFBFBFBFBFBF",
"X	c #FFFFFFFF0000",
"O	c #00000000FFFF",
"                                                ",
" .............................................. ",
" .............................................. ",
" .      ....       ............................ ",
" . XXXX .... XXXXX ..      .................... ",
" . XXXX .... XXXXX ..      .................... ",
" .      ....       ......  .................... ",
" ... .......... .........  .................... ",
" ... .......... .........  .................... ",
" ...            .........  ....    ............ ",
" ...... ...............      .        ......... ",
" ...... ................    ..          ....... ",
" .....   ................  ..   ......   ...... ",
" .... OOO ...................  ........   ..... ",
" ... OOOOO ..................  ..........  .... ",
" .... OOO .......       .....  ...........  ... ",
" .....   ......          ....  ...........  ... ",
" .............    .....   ..  .............  .. ",
" .............  ........     ..............  .. ",
" ............  ..........   ................  . ",
" ............  .    ........................  . ",
" ...........  ... .. .... ..... .. .........  . ",
" ...........  ... .. .  . .. ..  .  .. .....  . ",
" ...........  ...   ... . . . . .. .. . ....  . ",
" ...........  ... ...   . .   . .. ..   ...   . ",
" ...........  ... ... . . . ... .. .. .....  .. ",
" ...........   .   ..   .  .  ..  .  .  ..   .. ",
" ............   .........................   ... ",
" .............   ......................    .... ",
" ..............    ..................    ...... ",
" ...............       ..........       ....... ",
" ..................                  .......... ",
" ......................           ............. ",
" .............................................. ",
"                                                "};
