<?xml version="1.0" encoding="UTF-8"?>
<!-- Created with Inkscape (http://www.inkscape.org/) -->
<svg xmlns="http://www.w3.org/2000/svg" width="200" height="200">
  <path d="M 29.48403,38.329239 C 27.07474,38.811097 34.398035,38.329239 36.855037,38.329239 C 40.28763,38.329239 43.243243,37.056993 43.243243,40.786241 C 43.243243,43.626206 43.056668,45.818496 44.226044,48.157249 C 46.426633,52.558426 52.704177,55.836119 57.002457,57.985258 C 57.657658,58.312859 58.312858,58.640459 58.968059,58.968059 C 63.554004,61.261032 68.506805,62.980118 73.218673,64.864865 C 79.873118,67.526643 87.354562,69.013088 94.348894,70.761671 C 98.406928,71.776179 99.919748,71.423446 99.262898,68.796069 C 98.616938,66.212217 98.803078,63.548552 98.280098,60.933661 C 97.354815,56.307245 97.88098,49.661439 98.771498,45.208846 C 99.333148,42.400606 101.78027,39.743076 104.17691,37.346438 C 109.00985,32.5135 113.01769,27.153201 118.42752,23.095824 C 122.57954,19.981814 126.80004,15.474438 131.69534,14.250615 C 133.32975,13.84201 131.67947,16.279675 131.20394,18.181819 C 130.44663,21.211027 134.51921,20.147421 136.60934,20.147421 C 139.81439,20.147421 141.30747,19.283935 142.01475,22.113023 C 142.49207,24.02232 137.24873,26.215931 136.60934,26.535627 C 134.17834,27.751126 134.23852,29.195241 131.69534,30.466831 C 126.64359,32.992706 123.66428,43.089139 121.37593,47.665848 C 119.4021,51.613499 117.94064,56.001574 116.95332,59.95086 C 116.13677,63.217067 115.82322,66.436886 114.98772,69.77887 C 113.89588,74.146218 112.26342,75.251099 116.46192,74.201475 C 122.78031,72.621877 129.35784,70.854645 135.62654,69.28747 C 142.22944,67.636745 148.76028,60.837981 153.80836,56.511057 C 154.77969,55.678486 155.77396,54.873055 156.75676,54.054055 C 160.16728,51.211955 168.14709,43.027315 169.04177,42.260443 C 170.45752,41.046944 175.64245,47.107985 175.92138,47.665848 C 176.86141,49.545909 176.41278,52.794484 176.41278,55.036856 C 176.41278,57.174579 170.08904,59.886399 168.55037,61.425062 C 165.63556,64.339873 162.9382,66.390758 159.21376,67.321868 C 155.6273,68.218484 152.70938,70.57406 149.38575,72.235873 C 146.12603,73.865737 143.53772,76.253346 141.03195,78.132679 C 136.44097,81.575914 137.10074,81.482883 137.10074,87.960688 C 137.10074,91.536392 136.87994,92.604092 134.64374,94.840295 C 133.02929,96.454747 130.41576,98.994079 128.74693,100.2457 C 126.93194,101.60695 123.04146,102.60704 120.88452,103.68551 C 116.7739,105.74082 112.36277,107.25127 108.59951,110.07371 C 106.84131,111.39237 114.83718,117.89921 117.44472,121.37592 C 119.79935,124.51543 119.79337,127.1064 118.42752,131.20393 C 112.29667,149.59649 91.794509,159.80254 79.115479,172.48157 C 70.610741,180.98631 55.400847,186.44706 44.226044,190.17199 C 38.612145,192.04329 33.08282,194.92701 37.837838,190.17199 C 40.340932,187.6689 42.470733,184.5563 45.208845,181.81818 C 47.274828,179.7522 47.613597,177.60458 47.665848,177.39558 C 48.038925,175.90327 55.930521,173.16268 57.493858,171.99017 C 62.155626,168.49385 64.799824,164.19281 68.796069,160.19656 C 73.454247,155.53838 78.689191,149.11343 82.063882,143.48894 C 84.464831,139.48736 87.486792,135.59153 89.43489,131.69533 C 90.980744,128.60362 92.533768,125.68803 93.366093,122.35872 C 94.147694,119.23232 94.98799,116.75731 93.366093,113.51351 C 91.988141,110.75761 91.400492,108.83076 91.400492,105.65111 C 91.400492,101.71882 90.731856,100.80962 93.366093,97.297298 C 95.265926,94.764188 96.079276,93.18832 97.788698,90.909091 C 97.936051,90.712621 89.691352,90.666979 83.046683,88.452089 C 78.493883,86.934489 74.855124,84.409616 72.727273,81.572482 C 67.808993,75.014776 61.229089,70.074298 55.528256,64.373465 C 52.096118,60.941327 48.891882,57.24569 46.191646,54.545455 C 44.22246,52.576269 41.729272,50.952974 39.312039,49.14005 C 37.843473,48.038625 36.293699,46.262044 34.889435,45.208846 C 33.156348,43.90903 31.449632,42.990652 31.449632,40.294841 C 31.449632,39.96724 31.449632,39.63964 31.449632,39.31204"
        style="fill:#aa5b00;fill-opacity:1;stroke:none;stroke-width:1px;stroke-opacity:1"
        id="path2184"/>
  <g transform="translate(44.226044,-7.3710066)" id="g11205">
    <path
          d="M 35.380835,128.74693 C 32.309997,129.46365 31.91894,131.15975 33.415233,134.15233 C 34.87249,137.06685 38.464829,134.59277 38.820639,133.16953 C 39.356346,131.0267 38.820639,128.02037 38.820639,125.79853 C 38.820639,124.28836 34.474738,127.5388 35.380835,128.74693 z "
          style="fill:#ff5555;fill-opacity:1;stroke:#ff0000;stroke-width:1px;stroke-opacity:1"
          id="path8162"/>
    <path
          d="M 38.329238,125.30713 C 38.139924,125.68575 39.420387,119.84371 37.837838,113.51351 C 37.027807,110.27339 37.837838,105.59103 37.837838,102.2113 C 37.837838,101.18602 38.267703,100.06197 38.329238,99.7543"
          style="fill:#ff2a2a;fill-opacity:0.75;stroke:#e30000;stroke-width:1px;stroke-opacity:1"
          id="path10104"/>
  </g>
  <g transform="translate(8.353808,-46.683046)" id="g2222">
    <path
          d="M 35.380835,128.74693 C 32.309997,129.46365 31.91894,131.15975 33.415233,134.15233 C 34.87249,137.06685 38.464829,134.59277 38.820639,133.16953 C 39.356346,131.0267 38.820639,128.02037 38.820639,125.79853 C 38.820639,124.28836 34.474738,127.5388 35.380835,128.74693 z "
          style="fill:#ff5555;fill-opacity:1;stroke:#ff0000;stroke-width:1px;stroke-opacity:1"
          id="path2224"/>
    <path
          d="M 38.329238,125.30713 C 38.139924,125.68575 39.420387,119.84371 37.837838,113.51351 C 37.027807,110.27339 37.837838,105.59103 37.837838,102.2113 C 37.837838,101.18602 38.267703,100.06197 38.329238,99.7543"
          style="fill:#ff2a2a;fill-opacity:0.75;stroke:#e30000;stroke-width:1px;stroke-opacity:1"
          id="path2226"/>
  </g>
  <g transform="translate(-3.4398038,-62.407862)" id="g2228">
    <path
          d="M 35.380835,128.74693 C 32.309997,129.46365 31.91894,131.15975 33.415233,134.15233 C 34.87249,137.06685 38.464829,134.59277 38.820639,133.16953 C 39.356346,131.0267 38.820639,128.02037 38.820639,125.79853 C 38.820639,124.28836 34.474738,127.5388 35.380835,128.74693 z "
          style="fill:#ff5555;fill-opacity:1;stroke:#ff0000;stroke-width:1px;stroke-opacity:1"
          id="path2230"/>
    <path
          d="M 38.329238,125.30713 C 38.139924,125.68575 39.420387,119.84371 37.837838,113.51351 C 37.027807,110.27339 37.837838,105.59103 37.837838,102.2113 C 37.837838,101.18602 38.267703,100.06197 38.329238,99.7543"
          style="fill:#ff2a2a;fill-opacity:0.75;stroke:#e30000;stroke-width:1px;stroke-opacity:1"
          id="path2232"/>
  </g>
  <g transform="translate(22.113022,-29.975429)" id="g2234">
    <path
          d="M 35.380835,128.74693 C 32.309997,129.46365 31.91894,131.15975 33.415233,134.15233 C 34.87249,137.06685 38.464829,134.59277 38.820639,133.16953 C 39.356346,131.0267 38.820639,128.02037 38.820639,125.79853 C 38.820639,124.28836 34.474738,127.5388 35.380835,128.74693 z "
          style="fill:#ff5555;fill-opacity:1;stroke:#ff0000;stroke-width:1px;stroke-opacity:1"
          id="path2236"/>
    <path
          d="M 38.329238,125.30713 C 38.139924,125.68575 39.420387,119.84371 37.837838,113.51351 C 37.027807,110.27339 37.837838,105.59103 37.837838,102.2113 C 37.837838,101.18602 38.267703,100.06197 38.329238,99.7543"
          style="fill:#ff2a2a;fill-opacity:0.75;stroke:#e30000;stroke-width:1px;stroke-opacity:1"
          id="path2238"/>
  </g>
  <g transform="matrix(-1,0,0,1,161.06322,-0.9828002)" id="g2240">
    <path
          d="M 35.380835,128.74693 C 32.309997,129.46365 31.91894,131.15975 33.415233,134.15233 C 34.87249,137.06685 38.464829,134.59277 38.820639,133.16953 C 39.356346,131.0267 38.820639,128.02037 38.820639,125.79853 C 38.820639,124.28836 34.474738,127.5388 35.380835,128.74693 z "
          style="fill:#ff5555;fill-opacity:1;stroke:#ff0000;stroke-width:1px;stroke-opacity:1"
          id="path2242"/>
    <path
          d="M 38.329238,125.30713 C 38.139924,125.68575 39.420387,119.84371 37.837838,113.51351 C 37.027807,110.27339 37.837838,105.59103 37.837838,102.2113 C 37.837838,101.18602 38.267703,100.06197 38.329238,99.7543"
          style="fill:#ff2a2a;fill-opacity:0.75;stroke:#e30000;stroke-width:1px;stroke-opacity:1"
          id="path2244"/>
  </g>
  <g transform="matrix(-1,0,0,1,178.26224,-22.604422)" id="g2246">
    <path
          d="M 35.380835,128.74693 C 32.309997,129.46365 31.91894,131.15975 33.415233,134.15233 C 34.87249,137.06685 38.464829,134.59277 38.820639,133.16953 C 39.356346,131.0267 38.820639,128.02037 38.820639,125.79853 C 38.820639,124.28836 34.474738,127.5388 35.380835,128.74693 z "
          style="fill:#ff5555;fill-opacity:1;stroke:#ff0000;stroke-width:1px;stroke-opacity:1"
          id="path2248"/>
    <path
          d="M 38.329238,125.30713 C 38.139924,125.68575 39.420387,119.84371 37.837838,113.51351 C 37.027807,110.27339 37.837838,105.59103 37.837838,102.2113 C 37.837838,101.18602 38.267703,100.06197 38.329238,99.7543"
          style="fill:#ff2a2a;fill-opacity:0.75;stroke:#e30000;stroke-width:1px;stroke-opacity:1"
          id="path2250"/>
  </g>
  <g transform="matrix(-1,0,0,1,210.20327,-44.226044)" id="g2252">
    <path
          d="M 35.380835,128.74693 C 32.309997,129.46365 31.91894,131.15975 33.415233,134.15233 C 34.87249,137.06685 38.464829,134.59277 38.820639,133.16953 C 39.356346,131.0267 38.820639,128.02037 38.820639,125.79853 C 38.820639,124.28836 34.474738,127.5388 35.380835,128.74693 z "
          style="fill:#ff5555;fill-opacity:1;stroke:#ff0000;stroke-width:1px;stroke-opacity:1"
          id="path2254"/>
    <path
          d="M 38.329238,125.30713 C 38.139924,125.68575 39.420387,119.84371 37.837838,113.51351 C 37.027807,110.27339 37.837838,105.59103 37.837838,102.2113 C 37.837838,101.18602 38.267703,100.06197 38.329238,99.7543"
          style="fill:#ff2a2a;fill-opacity:0.75;stroke:#e30000;stroke-width:1px;stroke-opacity:1"
          id="path2256"/>
  </g>
  <g transform="matrix(-1,0,0,1,169.90843,-72.235871)" id="g2258">
    <path
          d="M 35.380835,128.74693 C 32.309997,129.46365 31.91894,131.15975 33.415233,134.15233 C 34.87249,137.06685 38.464829,134.59277 38.820639,133.16953 C 39.356346,131.0267 38.820639,128.02037 38.820639,125.79853 C 38.820639,124.28836 34.474738,127.5388 35.380835,128.74693 z "
          style="fill:#ff5555;fill-opacity:1;stroke:#ff0000;stroke-width:1px;stroke-opacity:1"
          id="path2260"/>
    <path
          d="M 38.329238,125.30713 C 38.139924,125.68575 39.420387,119.84371 37.837838,113.51351 C 37.027807,110.27339 37.837838,105.59103 37.837838,102.2113 C 37.837838,101.18602 38.267703,100.06197 38.329238,99.7543"
          style="fill:#ff2a2a;fill-opacity:0.75;stroke:#e30000;stroke-width:1px;stroke-opacity:1"
          id="path2262"/>
  </g>
  <g transform="matrix(-1,0,0,1,153.20081,-55.528255)" id="g2264">
    <path
          d="M 35.380835,128.74693 C 32.309997,129.46365 31.91894,131.15975 33.415233,134.15233 C 34.87249,137.06685 38.464829,134.59277 38.820639,133.16953 C 39.356346,131.0267 38.820639,128.02037 38.820639,125.79853 C 38.820639,124.28836 34.474738,127.5388 35.380835,128.74693 z "
          style="fill:#ff5555;fill-opacity:1;stroke:#ff0000;stroke-width:1px;stroke-opacity:1"
          id="path2266"/>
    <path
          d="M 38.329238,125.30713 C 38.139924,125.68575 39.420387,119.84371 37.837838,113.51351 C 37.027807,110.27339 37.837838,105.59103 37.837838,102.2113 C 37.837838,101.18602 38.267703,100.06197 38.329238,99.7543"
          style="fill:#ff2a2a;fill-opacity:0.75;stroke:#e30000;stroke-width:1px;stroke-opacity:1"
          id="path2268"/>
  </g>
  <g transform="translate(61.425061,-43.734643)" id="g2270">
    <path
          d="M 35.380835,128.74693 C 32.309997,129.46365 31.91894,131.15975 33.415233,134.15233 C 34.87249,137.06685 38.464829,134.59277 38.820639,133.16953 C 39.356346,131.0267 38.820639,128.02037 38.820639,125.79853 C 38.820639,124.28836 34.474738,127.5388 35.380835,128.74693 z "
          style="fill:#ff5555;fill-opacity:1;stroke:#ff0000;stroke-width:1px;stroke-opacity:1"
          id="path2272"/>
    <path
          d="M 38.329238,125.30713 C 38.139924,125.68575 39.420387,119.84371 37.837838,113.51351 C 37.027807,110.27339 37.837838,105.59103 37.837838,102.2113 C 37.837838,101.18602 38.267703,100.06197 38.329238,99.7543"
          style="fill:#ff2a2a;fill-opacity:0.75;stroke:#e30000;stroke-width:1px;stroke-opacity:1"
          id="path2274"/>
  </g>
  <g transform="translate(72.727273,-10.31941)" id="g2276">
    <path
          d="M 35.380835,128.74693 C 32.309997,129.46365 31.91894,131.15975 33.415233,134.15233 C 34.87249,137.06685 38.464829,134.59277 38.820639,133.16953 C 39.356346,131.0267 38.820639,128.02037 38.820639,125.79853 C 38.820639,124.28836 34.474738,127.5388 35.380835,128.74693 z "
          style="fill:#ff5555;fill-opacity:1;stroke:#ff0000;stroke-width:1px;stroke-opacity:1"
          id="path2278"/>
    <path
          d="M 38.329238,125.30713 C 38.139924,125.68575 39.420387,119.84371 37.837838,113.51351 C 37.027807,110.27339 37.837838,105.59103 37.837838,102.2113 C 37.837838,101.18602 38.267703,100.06197 38.329238,99.7543"
          style="fill:#ff2a2a;fill-opacity:0.75;stroke:#e30000;stroke-width:1px;stroke-opacity:1"
          id="path2280"/>
  </g>
  <g transform="translate(82.063882,-76.167075)" id="g2282">
    <path
          d="M 35.380835,128.74693 C 32.309997,129.46365 31.91894,131.15975 33.415233,134.15233 C 34.87249,137.06685 38.464829,134.59277 38.820639,133.16953 C 39.356346,131.0267 38.820639,128.02037 38.820639,125.79853 C 38.820639,124.28836 34.474738,127.5388 35.380835,128.74693 z "
          style="fill:#ff5555;fill-opacity:1;stroke:#ff0000;stroke-width:1px;stroke-opacity:1"
          id="path2284"/>
    <path
          d="M 38.329238,125.30713 C 38.139924,125.68575 39.420387,119.84371 37.837838,113.51351 C 37.027807,110.27339 37.837838,105.59103 37.837838,102.2113 C 37.837838,101.18602 38.267703,100.06197 38.329238,99.7543"
          style="fill:#ff2a2a;fill-opacity:0.75;stroke:#e30000;stroke-width:1px;stroke-opacity:1"
          id="path2286"/>
  </g>
  <g transform="translate(-1.965602,0.982801)" id="g11265">
    <path
          d="M 44.226044,44.71744 C 44.35275,44.71744 44.814328,39.31902 45.208845,37.34644 C 45.806982,34.35575 40.416781,34.88943 38.329238,34.88943 C 35.175136,34.88943 33.167501,35.5047 30.46683,36.85504 C 21.976199,41.10035 16.76797,42.69149 9.8280094,49.63145 C 5.6710264,53.78843 3.2739174,57.666 1.9656024,62.89926 C 1.8176424,63.4911 7.3189994,58.03727 8.3538084,57.00246 C 10.377026,54.97924 14.77884,53.29854 17.199017,52.08845 C 22.296024,49.53995 28.110925,47.17445 33.906633,47.17445 C 37.526242,47.17445 41.455569,46.93382 44.226044,44.71744 z "
          style="fill:#00a900;fill-opacity:1;stroke:none;stroke-width:1px;stroke-opacity:1"
          id="path3198"/>
    <path
          d="M 59.95086,64.37346 C 60.077566,64.37346 60.539144,58.97504 60.933661,57.00246 C 61.531798,54.01177 56.141597,54.54545 54.054054,54.54545 C 50.899952,54.54545 48.892317,55.16072 46.191646,56.51106 C 37.701015,60.75637 32.492786,62.34751 25.552825,69.28747 C 21.395842,73.44445 18.998733,77.32202 17.690418,82.55528 C 17.542458,83.14712 23.043815,77.69329 24.078624,76.65848 C 26.101842,74.63526 30.503656,72.95456 32.923833,71.74447 C 38.02084,69.19597 43.835741,66.83047 49.631449,66.83047 C 53.251058,66.83047 57.180385,66.58984 59.95086,64.37346 z "
          style="fill:#00a900;fill-opacity:1;stroke:none;stroke-width:1px;stroke-opacity:1"
          id="path5169"/>
    <path
          d="M 105.65111,49.140044 C 105.77781,49.140044 106.23939,43.741624 106.63391,41.769044 C 107.23204,38.778354 101.84184,39.312034 99.754299,39.312034 C 96.600197,39.312034 94.592562,39.927304 91.891891,41.277644 C 83.40126,45.522954 78.193031,47.114094 71.253071,54.054054 C 67.096088,58.211034 64.698979,62.088604 63.390664,67.321864 C 63.242704,67.913704 68.744061,62.459874 69.77887,61.425064 C 71.802087,59.401844 76.203901,57.721144 78.624078,56.511054 C 83.721085,53.962554 89.535986,51.597054 95.331694,51.597054 C 98.951303,51.597054 102.88063,51.356424 105.65111,49.140044 z "
          style="fill:#00a900;fill-opacity:1;stroke:none;stroke-width:1px;stroke-opacity:1"
          id="path5171"/>
    <path
          d="M 130.75564,94.840292 C 130.62893,94.840292 130.16736,89.441872 129.77284,87.469292 C 129.1747,84.478602 134.5649,85.012282 136.65245,85.012282 C 139.80655,85.012282 141.81418,85.627552 144.51485,86.977892 C 153.00549,91.223202 158.21371,92.814342 165.15368,99.754302 C 169.31066,103.91128 171.70777,107.78885 173.01608,113.02211 C 173.16404,113.61395 167.66269,108.16012 166.62788,107.12531 C 164.60466,105.10209 160.20284,103.42139 157.78267,102.2113 C 152.68566,99.662802 146.87076,97.297302 141.07505,97.297302 C 137.45544,97.297302 133.52612,97.056672 130.75564,94.840292 z "
          style="fill:#00a900;fill-opacity:1;stroke:none;stroke-width:1px;stroke-opacity:1"
          id="path5175"/>
    <path
          d="M 73.442819,70.020646 C 73.569519,70.020646 74.031099,64.622226 74.425619,62.649646 C 75.023759,59.658956 69.633559,60.192636 67.546009,60.192636 C 64.391909,60.192636 62.384279,60.807906 59.683599,62.158246 C 51.192969,66.403556 45.984739,67.994696 39.044779,74.934656 C 34.887799,79.091636 32.490689,82.969206 31.182379,88.202466 C 31.034419,88.794306 36.535769,83.340476 37.570579,82.305666 C 39.593799,80.282446 43.995609,78.601746 46.415789,77.391656 C 51.512799,74.843156 57.327699,72.477656 63.123409,72.477656 C 66.743019,72.477656 70.672339,72.237026 73.442819,70.020646 z "
          style="fill:#00a900;fill-opacity:1;stroke:none;stroke-width:1px;stroke-opacity:1"
          id="path5177"/>
    <path
          d="M 89.167629,89.676666 C 89.294339,89.676666 89.755919,84.278246 90.150439,82.305666 C 90.748569,79.314976 85.358369,79.848656 83.270829,79.848656 C 80.116729,79.848656 78.109089,80.463926 75.408419,81.814266 C 66.917789,86.059576 61.709559,87.650716 54.769599,94.590676 C 50.612619,98.747656 48.215509,102.62523 46.907189,107.85849 C 46.759229,108.45033 52.260589,102.9965 53.295399,101.96169 C 55.318619,99.938466 59.720429,98.257766 62.140609,97.047676 C 67.237609,94.499176 73.052519,92.133676 78.848219,92.133676 C 82.467829,92.133676 86.397159,91.893046 89.167629,89.676666 z "
          style="fill:#00a900;fill-opacity:1;stroke:none;stroke-width:1px;stroke-opacity:1"
          id="path5179"/>
    <path
          d="M 106.36665,95.082071 C 106.49335,95.082071 106.95493,89.683651 107.34945,87.711071 C 107.94758,84.720381 102.55738,85.254061 100.46984,85.254061 C 97.315741,85.254061 95.308111,85.869331 92.607441,87.219671 C 84.116801,91.464981 78.908581,93.056121 71.968621,99.996081 C 67.81163,104.15306 65.41452,108.03063 64.10621,113.26389 C 63.95825,113.85573 69.45961,108.4019 70.49441,107.36709 C 72.517631,105.34387 76.919451,103.66317 79.339621,102.45308 C 84.436631,99.904581 90.251531,97.539081 96.047241,97.539081 C 99.666851,97.539081 103.59617,97.298451 106.36665,95.082071 z "
          style="fill:#00a900;fill-opacity:1;stroke:none;stroke-width:1px;stroke-opacity:1"
          id="path5181"/>
    <path
          d="M 139.10945,81.081078 C 138.98274,81.081078 138.52117,75.682658 138.12665,73.710078 C 137.52851,70.719388 142.91871,71.253068 145.00626,71.253068 C 148.16036,71.253068 150.16799,71.868338 152.86866,73.218678 C 161.3593,77.463988 166.56752,79.055128 173.50749,85.995088 C 177.66447,90.152066 180.06158,94.029636 181.36989,99.262896 C 181.51785,99.854736 176.0165,94.400906 174.98169,93.366096 C 172.95847,91.342876 168.55665,89.662176 166.13648,88.452086 C 161.03947,85.903588 155.22457,83.538088 149.42886,83.538088 C 145.80925,83.538088 141.87993,83.297458 139.10945,81.081078 z "
          style="fill:#00a900;fill-opacity:1;stroke:none;stroke-width:1px;stroke-opacity:1"
          id="path5189"/>
    <path
          d="M 108.15121,60.442258 C 108.0245,60.442258 107.56293,55.043838 107.16841,53.071258 C 106.57027,50.080568 111.96047,50.614248 114.04802,50.614248 C 117.20212,50.614248 119.20975,51.229518 121.91042,52.579858 C 130.40106,56.825168 135.60928,58.416308 142.54925,65.356268 C 146.70623,69.513246 149.10334,73.390816 150.41165,78.624076 C 150.55961,79.215916 145.05826,73.762086 144.02345,72.727276 C 142.00023,70.704056 137.59841,69.023356 135.17824,67.813266 C 130.08123,65.264768 124.26633,62.899268 118.47062,62.899268 C 114.85101,62.899268 110.92169,62.658638 108.15121,60.442258 z "
          style="fill:#00a900;fill-opacity:1;stroke:none;stroke-width:1px;stroke-opacity:1"
          id="path5191"/>
    <path
          d="M 122.40183,42.75184 C 122.27512,42.75184 121.81355,37.35342 121.41903,35.38084 C 120.82089,32.39015 126.21109,32.92383 128.29864,32.92383 C 131.45274,32.92383 133.46037,33.5391 136.16104,34.88944 C 144.65168,39.13475 149.8599,40.72589 156.79987,47.66585 C 160.95685,51.822828 163.35396,55.700398 164.66227,60.933658 C 164.81023,61.525498 159.30888,56.071668 158.27407,55.036858 C 156.25085,53.013638 151.84903,51.332938 149.42886,50.122848 C 144.33185,47.57435 138.51695,45.20885 132.72124,45.20885 C 129.10163,45.20885 125.17231,44.96822 122.40183,42.75184 z "
          style="fill:#00a900;fill-opacity:1;stroke:none;stroke-width:1px;stroke-opacity:1"
          id="path5193"/>
    <path
          d="M 65.847666,74.201473 C 68.925191,74.201473 62.520014,79.537523 61.916462,82.555283 C 61.422665,85.024263 61.425061,87.689463 61.425061,90.417693 C 61.425061,93.524173 61.425061,96.465943 61.425061,91.400493 C 61.425061,88.491593 63.729767,85.706753 65.356265,83.538083 C 67.530811,80.638693 69.326285,79.387033 72.235872,77.641273 C 75.048438,75.953733 75.29376,75.580193 71.744472,74.692873 C 70.077735,74.276193 68.237662,74.201473 65.847666,74.201473 z "
          style="fill:#009b20;fill-opacity:1;stroke:none;stroke-width:1px;stroke-opacity:1"
          id="path5203"/>
    <path
          d="M 136.78463,26.535625 C 133.7071,26.535625 140.11228,31.871678 140.71583,34.889438 C 141.20963,37.358418 141.20723,40.023618 141.20723,42.751848 C 141.20723,45.858328 141.20723,48.800098 141.20723,43.734648 C 141.20723,40.825748 138.90252,38.040908 137.27603,35.872238 C 135.10148,32.972848 133.30601,31.721188 130.39642,29.975428 C 127.58385,28.287888 127.33853,27.914345 130.88782,27.027025 C 132.55456,26.610345 134.39463,26.535625 136.78463,26.535625 z "
          style="fill:#009b20;fill-opacity:1;stroke:none;stroke-width:1px;stroke-opacity:1"
          id="path6182"/>
    <path
          d="M 105.20281,97.297294 C 105.0761,97.297294 104.61453,91.898874 104.22001,89.926294 C 103.62187,86.935604 109.01207,87.469284 111.09962,87.469284 C 114.25372,87.469284 116.26135,88.084554 118.96202,89.434894 C 127.45266,93.680204 132.66088,95.271344 139.60085,102.2113 C 143.75783,106.36828 146.15494,110.24585 147.46325,115.47911 C 147.61121,116.07095 142.10986,110.61712 141.07505,109.58231 C 139.05183,107.55909 134.65001,105.87839 132.22984,104.6683 C 127.13283,102.1198 121.31793,99.754304 115.52222,99.754304 C 111.90261,99.754304 107.97329,99.513674 105.20281,97.297294 z "
          style="fill:#00a900;fill-opacity:1;stroke:none;stroke-width:1px;stroke-opacity:1"
          id="path6184"/>
    <path
          d="M 113.55662,83.53808 C 113.42991,83.53808 112.96834,78.13966 112.57382,76.16708 C 111.97568,73.17639 117.36588,73.71007 119.45343,73.71007 C 122.60753,73.71007 124.61516,74.32534 127.31583,75.67568 C 135.80647,79.92099 141.01469,81.51213 147.95466,88.45209 C 152.11164,92.609068 154.50875,96.486638 155.81706,101.7199 C 155.96502,102.31174 150.46367,96.857908 149.42886,95.823098 C 147.40564,93.799878 143.00382,92.119178 140.58365,90.909088 C 135.48664,88.36059 129.67174,85.99509 123.87603,85.99509 C 120.25642,85.99509 116.3271,85.75446 113.55662,83.53808 z "
          style="fill:#00a900;fill-opacity:1;stroke:none;stroke-width:1px;stroke-opacity:1"
          id="path6186"/>
    <path
          d="M 154.34286,66.830464 C 154.21615,66.830464 153.75458,61.432044 153.36006,59.459464 C 152.76192,56.468774 158.15212,57.002454 160.23967,57.002454 C 163.39377,57.002454 165.4014,57.617724 168.10207,58.968064 C 176.59271,63.213374 181.80093,64.804514 188.7409,71.744474 C 192.89788,75.901452 195.29499,79.779022 196.6033,85.012282 C 196.75126,85.604122 191.24991,80.150292 190.2151,79.115482 C 188.19188,77.092262 183.79006,75.411562 181.36989,74.201472 C 176.27288,71.652974 170.45798,69.287474 164.66227,69.287474 C 161.04266,69.287474 157.11334,69.046844 154.34286,66.830464 z "
          style="fill:#00a900;fill-opacity:1;stroke:none;stroke-width:1px;stroke-opacity:1"
          id="path6188"/>
    <path
          d="M 162.69667,53.07125 C 162.56996,53.07125 162.10839,47.67283 161.71387,45.70025 C 161.11573,42.70956 166.50593,43.24324 168.59348,43.24324 C 171.74758,43.24324 173.75521,43.85851 176.45588,45.20885 C 184.94652,49.45416 190.15474,51.0453 197.09471,57.98526 C 201.25169,62.142238 203.6488,66.019808 204.95711,71.253068 C 205.10507,71.844908 199.60372,66.391078 198.56891,65.356268 C 196.54569,63.333048 192.14387,61.652348 189.7237,60.442258 C 184.62669,57.89376 178.81179,55.52826 173.01608,55.52826 C 169.39647,55.52826 165.46715,55.28763 162.69667,53.07125 z "
          style="fill:#00a900;fill-opacity:1;stroke:none;stroke-width:1px;stroke-opacity:1"
          id="path6190"/>
    <path
          d="M 101.2285,64.86486 C 101.35521,64.86486 101.81679,59.46644 102.2113,57.49386 C 102.80944,54.50317 97.419238,55.03685 95.331695,55.03685 C 92.177593,55.03685 90.169958,55.65212 87.469287,57.00246 C 78.978656,61.24777 73.770427,62.83891 66.830466,69.77887 C 62.673483,73.93585 60.276374,77.81342 58.968059,83.04668 C 58.820099,83.63852 64.321456,78.18469 65.356265,77.14988 C 67.379483,75.12666 71.781297,73.44596 74.201474,72.23587 C 79.298481,69.68737 85.113382,67.32187 90.90909,67.32187 C 94.528699,67.32187 98.458026,67.08124 101.2285,64.86486 z "
          style="fill:#00a900;fill-opacity:1;stroke:none;stroke-width:1px;stroke-opacity:1"
          id="path6192"/>
    <path
          d="M 114.72046,70.512046 C 114.84716,70.512046 115.30874,65.113626 115.70326,63.141046 C 116.3014,60.150356 110.9112,60.684036 108.82365,60.684036 C 105.66955,60.684036 103.66192,61.299306 100.96124,62.649646 C 92.47061,66.894956 87.26238,68.486096 80.32242,75.426056 C 76.16544,79.583036 73.76833,83.460606 72.46002,88.693866 C 72.31206,89.285706 77.81341,83.831876 78.84822,82.797066 C 80.87144,80.773846 85.27325,79.093146 87.69343,77.883056 C 92.79044,75.334556 98.60534,72.969056 104.40105,72.969056 C 108.02066,72.969056 111.94998,72.728426 114.72046,70.512046 z "
          style="fill:#00a900;fill-opacity:1;stroke:none;stroke-width:1px;stroke-opacity:1"
          id="path6194"/>
    <path
          d="M 107.12531,74.692873 C 110.20283,74.692873 103.79766,80.028923 103.1941,83.046683 C 102.70031,85.515663 102.7027,88.180863 102.7027,90.909093 C 102.7027,94.015573 102.7027,96.957343 102.7027,91.891893 C 102.7027,88.982993 105.00741,86.198153 106.63391,84.029483 C 108.80845,81.130093 110.60393,79.878433 113.51351,78.132673 C 116.32608,76.445133 116.5714,76.071593 113.02211,75.184273 C 111.35538,74.767593 109.5153,74.692873 107.12531,74.692873 z "
          style="fill:#009b20;fill-opacity:1;stroke:none;stroke-width:1px;stroke-opacity:1"
          id="path6196"/>
    <path
          d="M 131.24704,22.60442 C 131.12033,22.60442 130.65876,17.206 130.26424,15.23342 C 129.6661,12.24273 135.0563,12.77641 137.14385,12.77641 C 140.29795,12.77641 142.30558,13.39168 145.00625,14.74202 C 153.49689,18.98733 158.70511,20.57847 165.64508,27.51843 C 169.80206,31.675408 172.19917,35.552978 173.50748,40.786238 C 173.65544,41.378078 168.15409,35.924248 167.11928,34.889438 C 165.09606,32.866218 160.69424,31.185518 158.27407,29.975428 C 153.17706,27.42693 147.36216,25.06143 141.56645,25.06143 C 137.94684,25.06143 134.01752,24.8208 131.24704,22.60442 z "
          style="fill:#00a900;fill-opacity:1;stroke:none;stroke-width:1px;stroke-opacity:1"
          id="path6198"/>
    <path
          d="M 115.94896,33.65701 C 116.07567,33.65701 116.53724,28.25859 116.93176,26.28601 C 117.5299,23.29532 112.1397,23.829 110.05215,23.829 C 106.89805,23.829 104.89042,24.44427 102.18975,25.79461 C 93.699121,30.03992 88.490891,31.63106 81.550931,38.57102 C 77.393941,42.728 74.996831,46.60557 73.688521,51.83883 C 73.540561,52.43067 79.041921,46.97684 80.076721,45.94203 C 82.099941,43.91881 86.501761,42.23811 88.921931,41.02802 C 94.018941,38.47952 99.833837,36.11402 105.62955,36.11402 C 109.24916,36.11402 113.17849,35.87339 115.94896,33.65701 z "
          style="fill:#00a900;fill-opacity:1;stroke:none;stroke-width:1px;stroke-opacity:1"
          id="path6200"/>
    <path
          d="M 132.36202,74.973997 C 129.2845,74.973997 135.68968,69.637937 136.29323,66.620177 C 136.78703,64.151197 136.78463,61.485997 136.78463,58.757767 C 136.78463,55.65129 136.78463,52.70952 136.78463,57.774967 C 136.78463,60.683867 134.47992,63.468707 132.85342,65.637377 C 130.67888,68.536767 128.8834,69.788427 125.97382,71.534187 C 123.16124,73.221727 122.91592,73.595277 126.46522,74.482597 C 128.13195,74.899277 129.97203,74.973997 132.36202,74.973997 z "
          style="fill:#009b20;fill-opacity:1;stroke:none;stroke-width:1px;stroke-opacity:1"
          id="path6202"/>
    <path
          d="M 47.174447,57.002453 C 47.301153,57.002453 47.762731,51.604033 48.157248,49.631453 C 48.755385,46.640763 43.365184,47.174443 41.277641,47.174443 C 38.123539,47.174443 36.115904,47.789713 33.415233,49.140053 C 24.924602,53.385363 19.716373,54.976503 12.776412,61.916463 C 8.6194292,66.073443 6.2223202,69.951013 4.9140052,75.184273 C 4.7660452,75.776113 10.267402,70.322283 11.302211,69.287473 C 13.325429,67.264253 17.727243,65.583553 20.14742,64.373463 C 25.244427,61.824963 31.059328,59.459463 36.855036,59.459463 C 40.474645,59.459463 44.403972,59.218833 47.174447,57.002453 z "
          style="fill:#00a900;fill-opacity:1;stroke:none;stroke-width:1px;stroke-opacity:1"
          id="path6204"/>
    <path
          d="M 41.277641,50.78456 C 41.262201,50.77838 50.538625,49.66 60.933661,52.25876 C 68.082171,54.04589 74.624451,59.10415 80.589681,62.08677 C 82.784567,63.18421 76.720201,52.92251 76.167076,52.25876 C 72.722883,48.12573 69.932091,46.03171 65.356265,44.88775 C 62.344809,44.13489 58.912068,44.62805 56.019656,43.90495 C 53.748385,43.33713 50.527831,43.90495 48.157248,43.90495 C 44.727665,43.90495 43.830225,44.30077 42.260442,45.87055 C 41.464901,46.66609 41.459157,49.87698 41.277641,50.78456 z "
          style="fill:#0e9d09;fill-opacity:0.9122257;stroke:none;stroke-width:1px;stroke-opacity:1"
          id="path6214"/>
    <path
          d="M 37.346437,39.482349 C 37.330997,39.476169 46.607421,38.357789 57.002457,40.956549 C 64.150967,42.743679 70.693247,47.801939 76.658477,50.784559 C 78.853363,51.881999 72.788997,41.620299 72.235872,40.956549 C 68.791679,36.823519 66.000887,34.729499 61.425061,33.585539 C 58.413605,32.832679 54.980864,33.325839 52.088452,32.602739 C 49.817181,32.034919 46.596627,32.602739 44.226044,32.602739 C 40.796461,32.602739 39.899021,32.998559 38.329238,34.568339 C 37.533697,35.363879 37.527953,38.574769 37.346437,39.482349 z "
          style="fill:#0e9d09;fill-opacity:0.9122257;stroke:none;stroke-width:1px;stroke-opacity:1"
          id="path8156"/>
    <path
          d="M 107.65981,47.174445 C 107.5331,47.174445 107.07153,41.776025 106.67701,39.803445 C 106.07887,36.812755 111.46907,37.346435 113.55662,37.346435 C 116.71072,37.346435 118.71835,37.961705 121.41902,39.312045 C 129.90966,43.557355 135.11788,45.148495 142.05785,52.088455 C 146.21483,56.245433 148.61194,60.123003 149.92025,65.356263 C 150.06821,65.948103 144.56686,60.494273 143.53205,59.459463 C 141.50883,57.436243 137.10701,55.755543 134.68684,54.545453 C 129.58983,51.996955 123.77493,49.631455 117.97922,49.631455 C 114.35961,49.631455 110.43029,49.390825 107.65981,47.174445 z "
          style="fill:#00a900;fill-opacity:1;stroke:none;stroke-width:1px;stroke-opacity:1"
          id="path8158"/>
    <path
          d="M 135.11358,15.966593 C 135.24029,15.966593 135.70186,10.568173 136.09638,8.5955931 C 136.69452,5.6049028 131.30432,6.1385828 129.21677,6.1385828 C 126.06267,6.1385828 124.05504,6.7538528 121.35437,8.1041931 C 112.86374,12.349503 107.65551,13.940643 100.71555,20.880603 C 96.55856,25.037583 94.16145,28.915153 92.85314,34.148413 C 92.70518,34.740253 98.20654,29.286423 99.24134,28.251613 C 101.26456,26.228393 105.66638,24.547693 108.08655,23.337603 C 113.18356,20.789103 118.99846,18.423603 124.79417,18.423603 C 128.41378,18.423603 132.34311,18.182973 135.11358,15.966593 z "
          style="fill:#00a900;fill-opacity:1;stroke:none;stroke-width:1px;stroke-opacity:1"
          id="path8160"/>
  </g>
  <path d="M 35.872236,193.12039 C 40.146952,193.12039 48.683752,193.12039 54.545455,193.12039 C 58.968059,193.12039 63.390663,193.12039 67.813268,193.12039 C 71.515352,193.12039 75.149652,192.1549 78.132678,190.66339 C 82.098083,188.68069 85.65158,186.65824 89.434889,184.76658 C 92.612798,183.17763 96.112921,181.13147 99.262899,180.34398 C 101.89073,179.68702 104.37357,178.92873 107.12531,178.37838 C 111.25567,177.55231 115.69211,176.97378 119.90172,175.92138 C 121.20061,175.59665 123.58938,175.61371 124.32432,175.42998 C 128.51776,174.38162 134.18808,175.42998 138.57494,175.42998 C 140.82939,175.42998 143.50651,175.92138 145.94595,175.92138 C 148.97234,175.92138 150.81678,176.89339 152.82555,177.39558 C 155.1195,177.96906 157.60223,177.88698 159.70516,177.88698 C 162.40068,177.88698 163.04874,177.4918 164.61916,175.92138 C 166.44019,174.10035 168.6005,174.39704 170.51597,172.48157 C 172.85284,170.14471 172.97297,168.79112 172.97297,165.60197 C 175.33533,163.23961 166.38609,164.44665 163.14496,163.63636 C 159.56353,162.74101 156.68736,161.03916 153.31695,160.19656 C 152.66175,160.03276 152.00655,159.86896 151.35135,159.70516 C 147.71148,158.79519 144.34423,158.72236 140.54054,158.72236 C 137.91974,158.72236 135.29894,158.72236 132.67813,158.72236 C 129.32737,158.72236 125.88675,158.49871 122.85012,157.73956 C 120.57941,157.17188 117.74831,157.69261 115.97052,157.24816 C 113.75588,156.6945 113.59265,153.88749 112.53071,152.82555 C 112.18324,152.47808 111.54791,152.82555 111.05651,152.82555 C 108.2551,150.02414 104.58061,157.76148 100.7371,158.72236 C 97.194448,159.60802 98.734088,161.51985 100.2457,162.65356 C 102.06495,164.018 104.58063,163.83822 106.14251,164.61916 C 108.03931,165.56757 110.78212,166.58477 113.02211,166.58477 C 115.24613,166.58477 117.39859,167.56757 119.90172,167.56757"
        style="fill:#000000;fill-opacity:1;stroke:#000000;stroke-width:1px;stroke-opacity:1"
        id="path2229"/>
  <path d="M 119.41032,168.05897 L 35.380835,193.12039"
        style="fill:none;fill-opacity:0.75;stroke:#000000;stroke-width:1px;stroke-opacity:1"
        id="path2233"/>
  <text x="120" y="190" style="font-weight:bold;font-size:18px;fill:#000070;font-family:sans serif">Amaya</text>
</svg>
