<?xml version="1.0" encoding="iso-8859-1"?>
<svg xmlns="http://www.w3.org/2000/svg" width="200" height="100">
  <g transform="translate(-100,-150)" id="Arrow3">
    <path
       d="M 225,150 L 293,199.749 L 225,250 L 225,219.347 L 189,219.347 L 189,179.648 L 225,179.648 L 225,150 z M 183,179.648 L 183,219.347 L 165.5,219.347 L 165.5,179.648 L 183,179.648 z M 160,179.648 L 160,219.347 L 146,219.347 L 146,179.648 L 160,179.648 z M 140.5,179.648 L 140.5,219.347 L 130,219.347 L 130,179.648 L 140.5,179.648 z M 125,179.648 L 125,219.347 L 117.5,219.347 L 117.5,179.648 L 125,179.648 z M 113.5,179.648 L 113.5,219.347 L 109,219.347 L 109,179.648 L 113.5,179.648 z " />
  </g>
</svg>
