<?xml version="1.0" encoding="iso-8859-1"?>
<!DOCTYPE svg PUBLIC "-//W3C//DTD SVG 20000303 Stylable//EN"   "http://www.w3.org/TR/2000/03/WD-SVG-20000303/DTD/svg-20000303-stylable.dtd">
<svg xmlns="http://www.w3.org/2000/svg" width="332" height="332">
  <g id="audio">
    <path style="stroke:none;fill:#505050"
          d="M86.39,170.146c0,34.299,33.839,62.203,75.432,62.203c14.396,0,28.209-3.33,40.245-9.598c0.271,0.11,0.857,0.35,0.857,0.35c17.425,7.072,40.147,16.894,56.849,36.601l2.156-0.919c-4.387-37.987-16.784-56.18-28.878-68.156    c2.768-6.553,4.202-13.412,4.202-20.48c0-34.299-33.839-62.203-75.432-62.203S86.39,135.846,86.39,170.146z"/>
    <path style="fill:none;stroke:none;"
          d="M332.407,332.407H0V0h332.407v332.407z"/>
    <path
            style="fill: #FF6969; stroke: #000000"
            d="M255.9,249.514c-7.642-29.519-19.59-44.858-33.472-57.644c3.807-6.788,5.926-14.32,5.926-22.25c0-29.935-30.189-54.203-67.431-54.203c-37.242,0-67.432,24.268-67.432,54.203c0,29.936,30.19,54.203,67.432,54.203     c14.872,0,28.617-3.873,39.768-10.43c19.567,8.033,43.059,16.401,55.209,36.12z"/>        
    <path
          style="fill: #00FFFF; stroke: #000000"
          d="M170.363,149.35c3.872,3.872,16.46,3.952,16.46,15.268c3.873-16.43-13.255-15.578-19.072-30.197l0.055,43.937c-3.139-2.409-8.712-3.041-14.422-1.265c-7.732,2.405-12.773,8.305-11.257,13.176c1.515,4.874,9.013,6.872,16.745,4.466    c7.043-2.189,11.833-7.277,11.492-11.849V149.35z"/>
   </g>
</svg>
