<?xml version="1.0" encoding="iso-8859-1"?>
<!DOCTYPE svg PUBLIC "-//W3C//DTD SVG 20000303 Stylable//EN"   "http://www.w3.org/TR/2000/03/WD-SVG-20000303/DTD/svg-20000303-stylable.dtd">
<svg xmlns="http://www.w3.org/2000/svg" width="327" height="257">
     <g id="colorbox"
    style="fill-rule:nonzero;clip-rule:nonzero;stroke:#000000;stroke-miterlimit:4;">
          <path style="opacity:0.35;stroke:none;"
          d="M123.653,254.91c0,0,9.342,6.749,29.065,0s141.677-37.547,169.237-54.885c10.514-6.614,5.98-15.021-3.545-20.559c-28.795-16.739-152.243-34.918-152.243-34.918S34.152,191.262,23.943,195.343    s-12.835,15.637-1.805,18.788l101.515,40.778z"/>
            <path style="stroke:none;"
          d="M175.471,2.247l-0.148,0.074c-0.045,0.023-25.723,13.835-29.228,15.721c-0.92,0.025-30.122,0.825-30.122,0.825L10.52,62.288l0.007,0.019C7.197,63.679,0,68.092,0,80.611l0.053,1.907C0.054,82.54,6.935,188.77,6.958,189.131    c0.03,2.896,0.608,8.348,4.079,13.039c3.597,4.864,8.57,7.104,10.542,7.84c38.205,15.058,96.108,37.906,98.901,39.082c4.941,2.146,10.464,2.328,12.039,2.332l0.195,0.002l0.302-0.009c1.509-0.047,6.886-0.442,12.165-3.583l85.203-50.326    c3.083-1.611,8.788-5.329,11.371-11.571c1.878-4.534,2.151-8.969,2.187-10.555h0.002l3.143-105.328l0.001-0.239c0-8.074-3.224-12.99-5.927-15.691c0.071,0.076-3.144-3.515-3.144-3.515l-0.022,0.02c-0.104-0.101-0.236-0.231-0.435-0.426l0.015-0.015L197.34,5.994    C194.213,2.211,189.589,0,184.719,0c-4.314,0-7.904,1.571-9.248,2.247z"/>
                         <path style="fill:red;stroke:none;"
          d="M13.154,73.618l116.717,39.412l98.527-50.78l-1.723-0.478L116.229,31.176L13.154,73.618z"/>
                         <path style="fill:blue;stroke:none;"
          d="M23.943,195.343c0,0,96.605,38.07,99.347,39.262s6.581,1.205,6.581,1.205V113.03L13.154,73.618c0,0-2.148,0.461-1.818,6.526l6.923,106.862c0,0-0.094,3.289,1.338,5.225c1.628,2.201,4.347,3.112,4.347,3.112z"/>
                                         <path
          style="fill:green;stroke:none;"
          d="M228.398,62.25c0,0,1.993,1.382,1.993,5.951l-3.138,105.149c0,0-0.031,2.966-1.129,5.617s-5.344,4.746-5.344,4.746l-85.452,50.474c-2.578,1.533-5.458,1.623-5.458,1.623V113.03l98.527-50.78z"/>
                         <path style="fill:yellow;stroke:none;"
          d="M13.154,73.618l64.422,5.306l93.979-49.264l-55.326,1.516L13.154,73.618z"/>
                         <path style="fill:orange;stroke:none;"
          d="M225.146,58.617l-0.421,5.499l3.674-1.866l-3.253-3.633z"/>
                         <path style="fill:pink;stroke:none;"
          d="M224.527,64.245l-87.77,45.235c0,0-3.895,1.627-6.215,1.397c-2.462-0.245-4.208-2.121-4.208-2.121L84.553,67.711c0,0-0.739-0.845-0.492-2.43c0.238-1.522,2.425-2.347,2.425-2.347l92.578-49.796    c0,0,1.499-0.753,2.958-0.753c1.36,0,2.102,1.234,2.102,1.234l40.403,44.378c0,0,1.968,1.623,1.968,3.725c0,1.336-1.968,2.522-1.968,2.522z"/>
                         <path style="fill:black;stroke:none;"
          d="M138.446,108.144c0,0-3.68,3.052-6.687,0.051L91.168,67.679c-1.093-1.093-1.082-2.379,0.419-3.233l86.877-50.985c0,0-91.04,48.472-92.449,49.279c-2.254,1.291-2.875,3.652-1.028,5.759    c0.978,1.116,31.47,30.688,41.951,40.849c2.183,2.116-2.376,2.099-2.376,2.099s11.617,3.345,13.884-3.303z"/>
                         <path style="fill:black;stroke:none;"
          d="M132.616,228.874c0.991-28.968,0.878-99.175,0.878-101.548c0-3.089-0.778-12.398,7.418-17.201l85.583-46.894l-92.507,47.187c-6.525,2.959-11.758-0.335-23.465-3.921c0.565,0.385-94.451-32.819-94.451-32.819    s-5.279-2.134-4.764,4.801l6.998,109.68c0.205,3.3,2.124,6.003,5.638,7.185c-2.709-1.534-3.866-4.707-4.061-6.556L12.83,79.574c-0.157-1.449,0.504-1.984,1.702-1.718c0,0,101.682,34.757,104.689,35.828c6.445,2.294,5.726,11.131,5.771,13.2    s3.082,103.125,3.082,103.125s4.243,7.611,4.543-1.136z"/>
            <path style="fill:yellow;stroke:none;"
          d="M27.532,71.216l88.697-40.04L13.447,73.62l7.64,0.544l56.489,4.76l-50.044-7.708z"/>
            <path style="fill:#A6A698;stroke:none;"
          d="M227.254,173.35l2.658-89.088l-6.082,89.898c0,1.739-0.863,3.25-1.612,3.831l-26.381,20.457c0,0,25.565-15.015,27.378-16.18c2.098-1.349,4.039-3.813,4.039-8.918z"/>
                         <path style="fill:darkblue;stroke:none;"
          d="M121.607,233.921c6.791,3.338,11.146,2.042,17.658-2.06c0,0-6.515-0.528-6.515-7.433c-0.359-0.592-4.759,0.55-4.849-0.097c0.171,5.96-3.141,9.589-6.295,9.589z"/>
           </g>
      </svg>
