<?xml version="1.0" encoding="iso-8859-1"?>
<!DOCTYPE svg PUBLIC "-//W3C//DTD SVG 20000303 Stylable//EN"   "http://www.w3.org/TR/2000/03/WD-SVG-20000303/DTD/svg-20000303-stylable.dtd">
<svg xmlns="http://www.w3.org/2000/svg" width="200" height="200"
   xml:space="preserve">
  <g id="forward"
    style="stroke:#000000;stroke-miterlimit:4;">
     <path style="stroke:none;"
          d="M0,100.477c0,55.403,45.074,100.477,100.477,100.477s100.477-45.073,100.477-100.477C200.954,45.074,155.88,0,100.477,0S0,45.074,0,100.477z"/>
     <path
          style="fill: #E50000; stroke: #000000"
          d="M185.192,99.477c0,47.339-38.376,85.715-85.715,85.715c-47.339,0-85.715-38.376-85.715-85.715s38.376-85.715,85.715-85.715c47.339,0,85.715,38.376,85.715,85.715z"/>
     <path
          style="fill:#FFFFFF;stroke:none;"
          d="M55.537,113.882c0,0,34.311,0,61.459,0c-11.498,11.498-23.029,23.03-23.029,23.03c-2.439,2.441-3.66,5.641-3.66,8.84s1.221,6.397,3.66,8.838c4.883,4.882,12.797,4.882,17.678,0    l44.367-44.369c0.271-0.27,0.522-0.555,0.764-0.845c0.078-0.093,0.152-0.188,0.227-0.284c0.162-0.205,0.316-0.416,0.463-0.629c0.074-0.107,0.148-0.213,0.219-0.32c0.186-0.289,0.362-0.584,0.522-0.885c0.056-0.104,0.102-0.209,0.153-0.313    c0.113-0.227,0.221-0.454,0.318-0.686c0.059-0.139,0.113-0.279,0.166-0.42c0.08-0.209,0.154-0.421,0.223-0.635c0.042-0.131,0.086-0.262,0.123-0.393c0.096-0.332,0.18-0.668,0.246-1.006c0.014-0.07,0.021-0.143,0.034-0.213c0.052-0.289,0.095-0.58,0.126-0.871    c0.012-0.115,0.021-0.229,0.029-0.343c0.021-0.265,0.035-0.53,0.039-0.798c0.002-0.102,0.006-0.203,0.004-0.305c-0.002-0.363-0.017-0.728-0.052-1.091c-0.001-0.007-0.001-0.013-0.003-0.019c-0.033-0.349-0.086-0.696-0.15-1.043    c-0.021-0.123-0.05-0.244-0.076-0.367c-0.049-0.229-0.105-0.458-0.168-0.686c-0.038-0.143-0.078-0.283-0.121-0.424c-0.068-0.219-0.146-0.434-0.228-0.65c-0.049-0.131-0.093-0.263-0.146-0.393c-0.002-0.002-0.002-0.004-0.003-0.007    c-0.13-0.313-0.272-0.616-0.425-0.914c-0.066-0.13-0.141-0.257-0.213-0.384c-0.113-0.203-0.229-0.403-0.354-0.599c-0.074-0.118-0.151-0.237-0.23-0.354c-0.168-0.245-0.342-0.482-0.525-0.714c-0.045-0.057-0.086-0.117-0.133-0.174    c-0.24-0.293-0.496-0.572-0.762-0.842c-0.023-0.024-0.043-0.051-0.068-0.076l-44.367-44.367c-4.881-4.883-12.795-4.883-17.678,0c-4.881,4.881-4.881,12.795,0,17.678l23.029,23.029H55.537c-6.902,0-12.5,5.596-12.5,12.5c0,6.902,5.598,12.499,12.5,12.499z"/>
     <path
          style="stroke:none;" d="M53.537,111.883c0,0,34.311,0,61.459,0c-11.498,11.497-23.029,23.029-23.029,23.029c-2.439,2.441-3.66,5.641-3.66,8.84s1.221,6.397,3.66,8.838c4.883,4.882,12.797,4.882,17.678,0l44.367-44.369    c0.271-0.27,0.522-0.555,0.764-0.845c0.078-0.093,0.152-0.188,0.227-0.284c0.162-0.205,0.316-0.416,0.463-0.629c0.074-0.107,0.148-0.213,0.219-0.32c0.186-0.289,0.362-0.584,0.522-0.885c0.056-0.104,0.102-0.209,0.153-0.313c0.113-0.227,0.221-0.454,0.318-0.686    c0.059-0.139,0.113-0.279,0.166-0.42c0.08-0.209,0.154-0.421,0.223-0.635c0.042-0.131,0.086-0.262,0.123-0.393c0.096-0.332,0.18-0.668,0.246-1.006c0.014-0.07,0.021-0.143,0.034-0.213c0.052-0.289,0.095-0.58,0.126-0.871c0.012-0.115,0.021-0.229,0.029-0.343    c0.021-0.265,0.035-0.53,0.039-0.798c0.002-0.102,0.006-0.203,0.004-0.305c-0.002-0.363-0.017-0.728-0.052-1.091c-0.001-0.007-0.001-0.013-0.003-0.019c-0.033-0.349-0.086-0.696-0.15-1.043c-0.021-0.123-0.05-0.244-0.076-0.367    c-0.049-0.229-0.105-0.458-0.168-0.686c-0.038-0.143-0.078-0.283-0.121-0.424c-0.068-0.219-0.146-0.434-0.228-0.65c-0.049-0.131-0.093-0.263-0.146-0.393c-0.002-0.002-0.002-0.004-0.003-0.007c-0.13-0.313-0.272-0.616-0.425-0.914    c-0.066-0.13-0.141-0.257-0.213-0.384c-0.113-0.203-0.229-0.403-0.354-0.599c-0.074-0.118-0.151-0.237-0.23-0.354c-0.168-0.245-0.342-0.482-0.525-0.714c-0.045-0.057-0.086-0.117-0.133-0.174c-0.24-0.293-0.496-0.572-0.762-0.842    c-0.023-0.024-0.043-0.051-0.068-0.076l-44.367-44.367c-4.881-4.883-12.795-4.883-17.678,0c-4.881,4.881-4.881,12.795,0,17.678l23.029,23.029H53.537c-6.902,0-12.5,5.596-12.5,12.5c0,6.902,5.598,12.5,12.5,12.5z"/>
     <path
          style="fill: #0000FF; stroke: #000000" d="M54.537,112.882c0,0,34.311,0,61.459,0c-11.498,11.498-23.029,23.03-23.029,23.03c-2.439,2.441-3.66,5.641-3.66,8.84s1.221,6.397,3.66,8.838c4.883,4.882,12.797,4.882,17.678,0    l44.367-44.369c0.271-0.27,0.522-0.555,0.764-0.845c0.078-0.093,0.152-0.188,0.227-0.284c0.162-0.205,0.316-0.416,0.463-0.629c0.074-0.107,0.148-0.213,0.219-0.32c0.186-0.289,0.362-0.584,0.522-0.885c0.056-0.104,0.102-0.209,0.153-0.313    c0.113-0.227,0.221-0.454,0.318-0.686c0.059-0.139,0.113-0.279,0.166-0.42c0.08-0.209,0.154-0.421,0.223-0.635c0.042-0.131,0.086-0.262,0.123-0.393c0.096-0.332,0.18-0.668,0.246-1.006c0.014-0.07,0.021-0.143,0.034-0.213c0.052-0.289,0.095-0.58,0.126-0.871    c0.012-0.115,0.021-0.229,0.029-0.343c0.021-0.265,0.035-0.53,0.039-0.798c0.002-0.102,0.006-0.203,0.004-0.305c-0.002-0.363-0.017-0.728-0.052-1.091c-0.001-0.007-0.001-0.013-0.003-0.019c-0.033-0.349-0.086-0.696-0.15-1.043    c-0.021-0.123-0.05-0.244-0.076-0.367c-0.049-0.229-0.105-0.458-0.168-0.686c-0.038-0.143-0.078-0.283-0.121-0.424c-0.068-0.219-0.146-0.434-0.228-0.65c-0.049-0.131-0.093-0.263-0.146-0.393c-0.002-0.002-0.002-0.004-0.003-0.007    c-0.13-0.313-0.272-0.616-0.425-0.914c-0.066-0.13-0.141-0.257-0.213-0.384c-0.113-0.203-0.229-0.403-0.354-0.599c-0.074-0.118-0.151-0.237-0.23-0.354c-0.168-0.245-0.342-0.482-0.525-0.714c-0.045-0.057-0.086-0.117-0.133-0.174    c-0.24-0.293-0.496-0.572-0.762-0.842c-0.023-0.024-0.043-0.051-0.068-0.076l-44.367-44.367c-4.881-4.883-12.795-4.883-17.678,0c-4.881,4.881-4.881,12.795,0,17.678l23.029,23.029H54.537c-6.902,0-12.5,5.596-12.5,12.5c0,6.902,5.598,12.499,12.5,12.499z"/>
  </g>
</svg>
