<?xml version="1.0" encoding="iso-8859-1"?>
<svg xmlns="http://www.w3.org/2000/svg" width="325" height="325">
    <g
       transform="translate(180,-870)">
      <path
         d="M 241.42857,502.36217 L 210.53867,610.77492 L 143.27773,520.31235 L 30.625575,524.43569 L 95.87582,432.51227 L 57.142861,326.64788 L 164.73066,360.29865 L 253.44454,290.74752 L 254.68721,403.46826 L 348.24836,466.34769 L 241.42857,502.36217 z "
         transform="matrix(-0.1391731,-0.990268,0.990268,-0.1391731,-433.65983,1284.7272)"
         style="fill:#ffff00;stroke:#ffaa00;stroke-width:1px;"
         />
      <path
         d="M -322.85715 1145.2194 A 10 32.857143 0 1 1  -342.85715,1145.2194 A 10 32.857143 0 1 1  -322.85715 1145.2194 z"
         transform="matrix(1,0,0,0.7826087,288.57143,107.53216)"
         style="fill:#000000;stroke:#ffaa00;stroke-width:1px;"
         />
      <path
         d="M -302.85714,933.79077 A 74.285713,44.285713 0 1 1 -451.42857,933.79077 L -377.14285,933.79077 z"
         transform="matrix(0.4615384,0,0,0.483871,154.06594,636.24222)"
         style="fill:#000000;stroke:#ffaa00;stroke-width:1px;"
         />
      <path
         d="M -322.85715 1145.2194 A 10 32.857143 0 1 1  -342.85715,1145.2194 A 10 32.857143 0 1 1  -322.85715 1145.2194 z"
         transform="matrix(1,0,0,0.7826087,338.57143,107.53212)"
         style="fill:#000000;stroke:#ffaa00;stroke-width:1px;"
         />
    </g>
</svg>
