<?xml version="1.0" encoding="UTF-8"?>
<!DOCTYPE svg PUBLIC "-//W3C//DTD SVG 1.0//EN"
      "http://www.w3.org/TR/2001/REC-SVG-20050904/DTD/svg10.dtd">
<!-- Generator: Adobe Illustrator 9.0, SVG Export Plug-In  -->
<svg xmlns="http://www.w3.org/2000/svg" width="221" height="338">
  <g id="trash1">
       <path style="opacity:0.35;stroke:none;"
            d="M221.688,252.04c0-15.085-28.926-27.313-64.607-27.313s-64.607,12.229-64.607,27.313c0,5.362,3.669,10.359,9.983,14.579c-17.49,3.476-30.47,7.433-30.47,7.433l-24.77,62.429l33.686-13.637    c38.106,5.626,125.094-24.09,109.44-47.386c18.779-4.777,31.345-13.477,31.345-23.418z"/>
       <path style="stroke:none;"
            d="M39.346,24.093C28.733,37.457,28.149,55.866,36.787,74.11c3.459,7.307,8.394,14.586,14.751,21.501c13.253,14.418,30.993,25.468,49.952,31.116c19.366,5.769,37.848,5.245,52.037-1.473c8.821-4.177,15.539-10.632,19.523-18.674                    
            c10.615-13.364,11.197-31.773,2.56-50.018c-3.46-7.307-8.396-14.586-14.752-21.5c-13.254-14.418-30.993-25.469-49.952-31.116C91.539-1.822,73.059-1.299,58.872,5.418C50.048,9.596,43.33,16.051,39.346,24.093z"/>
       <path style="stroke:none;"
            d="M0,156.069v26.046c0,4.463,1.458,10.91,7.901,17.461c0,5.959,0,88.625,0,88.625c0,10.559,8.229,19.959,23.17,26.467c12.994,5.66,30.109,8.777,48.191,8.777c18.083,0,35.2-3.117,48.194-8.777c14.941-6.508,23.17-15.908,23.17-26.467    c0,0,0-83.289,0-89.096c6.072-6.404,7.463-12.662,7.463-16.99v-26.046c0-22-33.982-38.589-79.045-38.589C33.981,117.48,0,134.07,0,156.069z"/>
       <path style="fill:#0050b2;stroke:none;"
            d="M77.163,130.019c-35.341,0-63.99,12.479-63.99,27.872v129.004c0,15.393,28.649,27.873,63.99,27.873c35.342,0,63.993-12.48,63.993-27.873V157.891c0-15.393-28.65-27.872-63.993-27.872z"/>
       <path style="fill:#0050b2;stroke:none;"
            d="M22.553,195.948v90.871l28.425,3.677v-89.295l-28.425-5.253z"/>
       <path style="opacity:0.3;stroke:none;"
            d="M140.453,221.114c-2.613-15.678-44.855-2.371-60.534-9.146l60.663-19.4c0,0,2.484,44.225-0.129,28.547z"/>
       <path style="fill:#0050b2;stroke:none;" 
            d="M76.944,123.546c-39.583,0-71.672,13.977-71.672,31.217v26.047c0,17.24,32.089,31.217,71.672,31.217c39.584,0,71.674-13.977,71.674-31.217v-26.047c0-17.241-32.09-31.217-71.674-31.217z"/>
       <path style="fill:#0050b2;stroke:none;"
            d="M136.65,152.977c0,12.817-26.357,23.208-58.873,23.208c-32.513,0-58.871-10.391-58.871-23.208s26.357-23.207,58.871-23.207c32.515,0,58.873,10.39,58.873,23.207z"/>
       <path style="fill:#FFFFFF;stroke:none;"
            d="M9.443,152.066c1.83,13.495,17.766,33.187,83.179,34.405c-49.953,4.66-89.276-9.582-83.179-34.405z"/>
       <path style="fill:#BCBCBC;stroke:none;"
            d="M125.119,167.502c27.002-19.162-15.498-44.617-77.115-34.571c55.312-14.966,121.537,12.36,77.115,34.571z"/>
       <path style="stroke:none;"
            d="M9.083,323.155l39.185,14.9l18.763-16.176l-2.344-15.979l-38.163-9.787L9.083,323.155z"/>
       <path style="fill:#6E6E6E;stroke:none;"
            d="M27.186,298.047l-14.282,22.561l33.521,12.494l14.23-26.059l-33.469-8.996z"/>
       <path style="fill:#474747;stroke:none;"
            d="M62.687,319.083l-2.031-12.039l-14.23,26.059l16.262-14.02z"/>
       <path style="fill:#0050b2;stroke:none;"
            d="M154.678,39.504C128.802,11.355,86.343-1.292,59.841,11.255c-8.069,3.82-13.725,9.539-16.963,16.436c-13.01,15.758-9.239,41.46,11.524,64.047c25.876,28.149,68.336,40.796,94.838,28.249    c8.07-3.821,13.723-9.538,16.963-16.437c13.009-15.757,9.237-41.459-11.525-64.046z"/>
       <path style="fill:#0050b2;stroke:none;"
            d="M141.05,51.459c21.609,23.51,21.186,51.063-0.947,61.542c-22.133,10.479-57.598-0.083-79.209-23.592c-21.61-23.511-21.186-51.064,0.947-61.544c22.135-10.48,57.597,0.083,79.209,23.593z"/>
       <path style="fill:#BCBCBC;stroke:none;"
            d="M149.763,106.431c16.356-20.329,3.913-69.043-62.607-82.352c51.191,3.932,91.905,53.223,62.607,82.352z"/>
       <path style="fill:#CDCDCD;stroke:none;"
            d="M5.272,179.573c0.937,10.207,17.875,30.299,72.563,32.451c-26.698,1.061-73.614-9.527-72.563-32.451z"/>
       <path style="fill:#DFDFDF;stroke:none;"
            d="M133.603,30.234C75.756-0.681,46.428,21.85,38.316,35.081c5.801-12.679,32.487-43.137,95.287-4.847z"/>

       <path
                    style="fill:black;stroke:none;"
                    d="M64.13,170.831l4.5-1.654c-5.631-7.812-9.775-15.214-9.775-20.088c-3.91,2.005-7.357,4.663-10.381,7.648h9.024v18.034c4.209,0.609,8.648,1.027,13.245,1.243l-0.294-0.23l-6.319-4.952z"/>
       <path
                    style="fill:#0050b2;stroke:none;"
                    d="M38.274,170.182c4.961,1.771,10.695,3.212,16.974,4.238l-13.119-10.21c-1.429,1.987-2.708,3.999-3.855,5.972z"/>
       <path
              style="fill:pink;stroke:none;"
              d="M41.216,156.736l12.606-6.303l-5.252-3.677l3.152-7.354l-21.067,15.876l11.475,8.931c1.863-2.591,3.974-5.133,6.346-7.474h-7.259z"/>
       <path
              style="fill:#0050b2;stroke:none;"
              d="M48.475,156.736c-2.372,2.341-4.482,4.883-6.346,7.474l13.119,10.21c0.744,0.121,1.492,0.24,2.251,0.35v-18.034h-9.024z"/>
       <path
              style="fill:red;stroke:none;"
              d="M48.475,156.736c-2.372,2.341-4.482,4.883-6.346,7.474l13.119,10.21c0.744,0.121,1.492,0.24,2.251,0.35v-18.034h-9.024z"/>
       <path
              style="fill:orange;stroke:none;"
              d="M82.848,152.458c-3.68,0.859-7.61,2.028-11.804,3.564c4.549,4.549,8.029,8.703,10.706,12.476c2.532-4.053,3.594-9.328,1.099-16.04z"/>
       <path
              style="fill:green;stroke:none;"
              d="M85.85,151.819c5.64,7.671,12.556,17.453,15.991,22.337c11.961-2.115,21.805-5.754,27.934-10.295c-3.37-4.448-15.914-17.501-43.925-12.042z"/>
       <path
              style="fill:yellow;stroke:none;"
              d="M78.346,172.598l-0.648-0.954l0.759-6.079l-9.827,3.611c1.635,2.269,3.395,4.57,5.217,6.856c1.514-0.947,3.068-2.086,4.499-3.435z"/>
       <path
              style="fill:black;stroke:none;"
              d="M68.631,169.176l-4.5,1.654l6.319,4.952l0.294,0.23c0.979,0.046,1.966,0.083,2.959,0.109c0.048-0.029,0.096-0.06,0.144-0.09c-1.822-2.286-3.582-4.588-5.217-6.856z"/>
       <path
              style="fill:grey;stroke:none;"
              d="M68.631,169.176l-4.5,1.654l6.319,4.952l0.294,0.23c0.979,0.046,1.966,0.083,2.959,0.109c0.048-0.029,0.096-0.06,0.144-0.09c-1.822-2.286-3.582-4.588-5.217-6.856z"/>
       <path
              style="fill:green;stroke:none;"
              d="M80.355,147.28c1.065,1.814,1.883,3.539,2.493,5.179c1.021-0.238,2.02-0.448,3.002-0.64c-7.172-9.755-12.273-16.086-5.495-4.539z"/>
       <path
              style="fill:url(#aigrd18);stroke:none;"
              d="M78.346,172.598l2.414,3.557c1.869-0.037,3.712-0.111,5.531-0.216c-1.153-2.282-2.642-4.763-4.542-7.44c-0.961,1.538-2.132,2.902-3.403,4.1z"/>
       <path
              style="fill:magenta;stroke:none;"
              d="M82.848,152.458c2.496,6.712,1.434,11.987-1.099,16.04c1.9,2.678,3.389,5.158,4.542,7.44c5.464-0.312,10.68-0.922,15.55-1.783c-3.436-4.884-10.352-14.666-15.991-22.337c-0.983,0.192-1.981,0.401-3.002,0.64z"/>
       <path
              style="fill:green;stroke:none;"
              d="M82.848,152.458c2.496,6.712,1.434,11.987-1.099,16.04c1.9,2.678,3.389,5.158,4.542,7.44c5.464-0.312,10.68-0.922,15.55-1.783c-3.436-4.884-10.352-14.666-15.991-22.337c-0.983,0.192-1.981,0.401-3.002,0.64z"/>
       <path
              style="fill:red;stroke:none;"
              d="M73.848,176.033c0.025,0.032,0.051,0.064,0.077,0.097c1.275,0.032,2.557,0.055,3.853,0.055c1,0,1.995-0.01,2.983-0.029l-2.414-3.557c-1.431,1.349-2.984,2.487-4.499,3.435z"/>
       <path
              style="fill:orange;stroke:none;"
              d="M73.848,176.033c0.025,0.032,0.051,0.064,0.077,0.097c1.275,0.032,2.557,0.055,3.853,0.055c1,0,1.995-0.01,2.983-0.029l-2.414-3.557c-1.431,1.349-2.984,2.487-4.499,3.435z"/>
       <path
              style="fill:red;stroke:none;"
              d="M73.704,176.123c0.074,0.002,0.147,0.005,0.221,0.007c-0.025-0.032-0.051-0.064-0.077-0.097c-0.048,0.03-0.096,0.061-0.144,0.09z"/>
       <path
              style="fill:red;stroke:none;"
              d="M73.704,176.123c0.074,0.002,0.147,0.005,0.221,0.007c-0.025-0.032-0.051-0.064-0.077-0.097c-0.048,0.03-0.096,0.061-0.144,0.09z"/>
       <path
              style="fill:red;stroke:none;"
              d="M73.704,176.123c0.074,0.002,0.147,0.005,0.221,0.007c-0.025-0.032-0.051-0.064-0.077-0.097c-0.048,0.03-0.096,0.061-0.144,0.09z"/>
      </g>
</svg>
