/* XPM */
static char * split_black_xpm[] = {
"20 10 2 1",
" 	c None",
".	c #000000",
"          .         ",
"         ...        ",
"        .....       ",
"       .......      ",
"      .........     ",
"     ...........    ",
"    .............   ",
"   ...............  ",
" .................. ",
"...................."};
