/* XPM */
static char * logoAlliance_xpm[] = {
"78 50 4 1",
" 	s None",
".	c #EBEBC1C1FFFF",
"X	c #00000000B2B2",
"o	c #00000000B2B2",
"                                                                              ",
"  ..                                                                          ",
"   ....                                                                       ",
"    .....                                                                     ",
"    ........                                X                                 ",
"     ..........                             X                                 ",
"     ............X                        XX                                  ",
"      ..............                    XX                                    ",
"       ....XXXXX...X..                                                        ",
"       ..XX.........X....X    X            X       X                  X       ",
"        X............X.....    X            X            X         X  X       ",
"        X............X....XXXX  X      XXXX  o       XX  X    XXX     X       ",
"       X ............X...o...... X   XX       X    XX  XXX  XX        X       ",
"       X ............X..X........X. X         X   X         X        X        ",
"       X  ...........X..X........X....        X   X        X         X        ",
"       X   .........X...X........X......     X    X        X         X        ",
"       X   .........X...X........X..XXXXXXXXX     X        X         X        ",
"     X      .......X...X........X............    X         X        X         ",
"            ......X............X.............X.. X                  X  X      ",
"      X      ....X............X...X.........X....X       X             X      ",
"       XX    ..XX......X....XX.....X......XX.....X...     X      XX   X       ",
"         XXXXXX.......X.XXXX........XXXXXXX....XXX.....    XXXXXX XXXX        ",
"               .......X...................................                    ",
"               .......X......................................                 ",
"                ....XXX........................................               ",
"                ..................................................            ",
"                 ...................................................          ",
"                 .....................................................        ",
"                  ......................................................      ",
"                                                                              ",
"                                                                              ",
"                                                                              ",
"                           o   o   o                                          ",
"                     o     o   o   o                                          ",
"                     o     o   o oo                                           ",
"                     o    o   o           o   o   o     o                     ",
"                  o  o    o   o   o   oo  o    o  o   o  o   oo  o            ",
"                 o   o    o   o   o  o    o   o   o  o  o   o    o            ",
"                     o    o   o   o  o    o   o   o  o         oo             ",
"                ooo  o   o   o   o   o   o   o   o   o      ooo               ",
"               o     o   o   o   o   o   o   o   o   o      o   o             ",
"               o     o   o   o   o o  o  o   o   o o    o o    o              ",
"             ooo   ooo ooo ooo ooo  oo ooo ooo ooo  oooo   oooo               ",
"                                                                              ",
"                                                                              ",
"                                                                              ",
"                                                                              ",
"                                                                              ",
"                                                                              ",
"                                                                              "};
