/* XPM */
static char * logo_xpm[] = {
"68 60 3 1",
" 	s None",
".	c #000000000000",
"X	c #FFFFFFFFFFFF",
"                               .....                                ",
"                             .. XXXX..                              ",
"                            .X     XXX.                             ",
"                            .        XX.                            ",
"                         ...X         X.                            ",
"                       ..XX          XX.                            ",
"                    X..X             X.                             ",
"                   X.     ......     X.                             ",
"                  X.  X... XXXX.   X..                              ",
"                  .  X.      ..   X.                                ",
"                 X. X.    X..   ...                                 ",
"                 . X.    X.    .                                    ",
"                 .X.    X.     ....                                 ",
"                 .X.   X.        XX..                               ",
"                  .    .           XX...                            ",
"                      .             XXXX..                          ",
"                     X.                XXX.                         ",
"                     X.   .             XXX.                        ",
"                     XX.   .              XX..                      ",
"                      X.   .               XXX.                     ",
"                      XX.   .                XX.                    ",
"                       XX.   .                XX.                   ",
"                        XX.   .                XX.                  ",
" ....... ..              XX.  X..               XX.                 ",
" .  .  .  .             . XX.   X...             XX.                ",
" .  .  .  .             .  XX.    XX....          X.                ",
"    .     . ..    ...  .... XX.      XXX....       X.               ",
"    .     .. ..  .. ..  .    XX.        XXXX..     XX.              ",
"    .     .   .  .   .  .     X.   .        XX.     X.              ",
"    .     .   .  .   .  .      X.  ...        X..    X.             ",
"    .     .   .  .   .  .      .   .XX.        XX..  X.             ",
"    .     .   .  .. ..  .     X.   . XX..  . .        X.            ",
"   ...   ... ...  ...    ..   X.  .    X.   .X...     X.            ",
"                             X.   .     X.  . XXX...   .            ",
"   ....                      X. X.      X.   .   XXX.. .            ",
" X. XXX.                     .  X.        . X.      X...            ",
" X.   X.                    X. X.        X. X.       XX             ",
" X.   X.                    X.X.         X. X.                      ",
"  X.   X.                  X. X.         X. X.                      ",
"   X.  X.                 X. X.           X.X.                      ",
"    .   X.                X.X.            X. X.                     ",
"    X.  X.        ......... X.            X.  X.                    ",
"     .  X.       .XXXXXXXX  X....     .....   X.....                ",
"     X. X.     X.            XXXX.  X.XXXX     XXXXX.          ..   ",
"......   ........                .....              ........... X.  ",
". XXXX    XXXXXX                 XXXXX              XXXXXXXXXXX  X. ",
"X.                                                                . ",
" X....   ....................................    .....    ........  ",
"  XXXX.... XXXXXXXXXXXXXXXXXXXXXXXXXXXXXXXXXX..  X. X.    X. XXXXX  ",
"      XXX                                    XX.  X. .     X.       ",
"                               ...     ...     X.  X..     X.       ",
"     .......                  X.XX.   X.XX.     X.  X.    X.        ",
"  X.. XXXXXX..                X.  X.  X.  X.     X.      X.         ",
" X.        XXX.                X.  X.  X. X.      X.    X.          ",
" X.          XX.                X. X.   X. X.      X.  X.           ",
"X.             X.               X.  X.  X.  X.      X. X.           ",
"X.             X.                X. X.   X. X.      X. X.           ",
"X.              .                X.   .  X.   .     X.  .           ",
" X..............                 X.....  X.....     X....           ",
"   XXXXXXXXXXXXX                  XXXX    XXXX       XXX            "};
