#define logo_width 40
#define logo_height 40
static unsigned char logo_bits[] = {
  0x00, 0x00, 0x00, 0x00, 0x00, 0x00, 0x00, 0x70, 0x00, 0x00, 0x00, 0x00,
  0xfc, 0x00, 0x00, 0x00, 0x00, 0xff, 0x00, 0x00, 0x00, 0xc0, 0xff, 0x00,
  0x00, 0x00, 0x60, 0x70, 0x00, 0x00, 0x00, 0x30, 0x38, 0x00, 0x00, 0x00,
  0x18, 0x0c, 0x00, 0x00, 0x00, 0x08, 0x07, 0x00, 0x00, 0x00, 0x80, 0x3f,
  0x00, 0x00, 0x00, 0xc0, 0xe1, 0x00, 0x00, 0x00, 0xc0, 0x80, 0x03, 0x00,
  0x00, 0x80, 0x01, 0x07, 0x00, 0x00, 0x80, 0x01, 0x1c, 0x00, 0x00, 0x00,
  0x03, 0x18, 0x00, 0x00, 0x00, 0x06, 0x30, 0x00, 0x00, 0x00, 0x1e, 0x60,
  0x00, 0x00, 0x00, 0xfc, 0xe0, 0x00, 0x00, 0x00, 0xd8, 0xc7, 0x00, 0x00,
  0x00, 0x18, 0x9f, 0x01, 0x00, 0x00, 0x10, 0x3f, 0x01, 0x00, 0x00, 0x30,
  0xe6, 0x01, 0x00, 0x00, 0x18, 0x04, 0x01, 0x0c, 0x00, 0x08, 0x0c, 0x00,
  0x1c, 0x00, 0x0c, 0x08, 0x00, 0x16, 0x00, 0x04, 0x08, 0x00, 0x32, 0x00,
  0x02, 0x08, 0x00, 0x24, 0x00, 0x02, 0x18, 0x00, 0x3c, 0xf8, 0x8f, 0xff,
  0x20, 0xfe, 0xff, 0xff, 0xff, 0x7f, 0xec, 0xff, 0xff, 0xff, 0x7f, 0x3c,
  0x00, 0x00, 0x38, 0x07, 0x00, 0x00, 0x08, 0x60, 0x07, 0x00, 0x00, 0x08,
  0xe3, 0x0f, 0xf0, 0x01, 0x10, 0x82, 0x1b, 0x0c, 0x03, 0x30, 0x06, 0x1d,
  0x0c, 0x06, 0x20, 0x04, 0x07, 0xfc, 0x07, 0x60, 0x0c, 0x07, 0x00, 0x00,
  0x60, 0x0c, 0x01, 0x00, 0x00, 0x00, 0x00, 0x00, };
