/* XPM */
static char * lost_xpm[] = {
"40 40 4 1",
" 	c #C0C0C0C0C0C0",
".	c #FFFFFFFFFFFF",
"X	c #000000000000",
"o	c #D3D3D3D3D3D3",
"                                        ",
" .....................................X ",
" ....................................XX ",
" ..ooooooooooooooooooooooooooooooooooXX ",
" ..ooooooooooooooooooooooooooooooooooXX ",
" ..ooooooooooooooooooooooooooooooooooXX ",
" ..ooooooooooooooooooooooooooooooooooXX ",
" ..ooooooooooooooooooooooooooooooooooXX ",
" ..ooooooooooooooooooooooooooooooooooXX ",
" ..oooooooo.........oooooooooooooooooXX ",
" ..oooooooo.........oooooooooooooooooXX ",
" ..oooooooo.........oooooooooooooooooXX ",
" ..oooooooo.........    oooooooooooooXX ",
" ..oooooooo........      ooooooooooooXX ",
" ..oooooooo.......        oooooooooooXX ",
" ..oooooooo.......        oooooooooooXX ",
" ..ooooooooooooooo        oooooooooooXX ",
" ..ooooooooooooooo        oooooooooooXX ",
" ..ooooooooooooooo        oooooooooooXX ",
" ..oooooooooooooooo      ooooooooooooXX ",
" ..oooooooo..ooooooo    oooooooooooooXX ",
" ..ooooooooooooooooooooooooooooooooooXX ",
" ..ooooooooooooooo..oooooooooooooooooXX ",
" ..oo.....o..oo........o..o....o....oXX ",
" ..oo..o..o..o..oo..o..o..o..oo.....oXX ",
" ..oo..o..o..o..oo..o..o..o..oo..ooooXX ",
" ..oo....oo..oo...........o..ooo....oXX ",
" ..oo..ooooooooooooooooooooooooooooooXX ",
" ..oo..ooooooooooooooooooooooooooooooXX ",
" ..ooooooooooooooooooooooooooooooooooXX ",
" ..ooooooooooooooooooooooooooooooooooXX ",
" ..ooooooooooooooooooooooooooooooooooXX ",
" ..ooooooooooooooooooooooooooooooooooXX ",
" ..ooooooooooooooooooooooooooooooooooXX ",
" ..ooooooooooooooooooooooooooooooooooXX ",
" ..ooooooooooooooooooooooooooooooooooXX ",
" ..ooooooooooooooooooooooooooooooooooXX ",
" ..XXXXXXXXXXXXXXXXXXXXXXXXXXXXXXXXXXXX ",
" .XXXXXXXXXXXXXXXXXXXXXXXXXXXXXXXXXXXXX ",
"                                        "};
