<?xml version="1.0" encoding="UTF-8"?>
<svg xmlns="http://www.w3.org/2000/svg">
  <defs id="defs3">

    <!-- arrows -->

    <!-- 1 LARGE -->
  <marker style="overflow:visible;fill:inherit;stroke:inherit" id="Arrow1Lstart" refX="0.0" refY="0.0" orient="auto">
      <path transform="scale(0.8) translate(12.5,0)" style="fill-rule:evenodd;stroke-width:1.0pt;marker-start:none" d="M 0.0,0.0 L 5.0,-5.0 L -12.5,0.0 L 5.0,5.0 L 0.0,0.0 z "/>
    </marker>
    <marker style="overflow:visible;fill:inherit;stroke:inherit" id="Arrow1Lend" refX="0.0" refY="0.0" orient="auto">
      <path transform="scale(0.8) rotate(180) translate(12.5,0)" style="fill-rule:evenodd;stroke-width:1.0pt;marker-start:none;" d="M 0.0,0.0 L 5.0,-5.0 L -12.5,0.0 L 5.0,5.0 L 0.0,0.0 z "/>
    </marker>

    <!-- 1 Medium -->
    <marker style="overflow:visible;fill:inherit;stroke:inherit" id="Arrow1Mstart" refX="0.0" refY="0.0" orient="auto">
      <path transform="scale(0.4) translate(10,0)" style="fill-rule:evenodd;stroke-width:1.0pt;marker-start:none" d="M 0.0,0.0 L 5.0,-5.0 L -12.5,0.0 L 5.0,5.0 L 0.0,0.0 z "/>
    </marker>
    <marker style="overflow:visible;fill:inherit;stroke:inherit" id="Arrow1Mend" refX="0.0" refY="0.0" orient="auto">
      <path transform="scale(0.4) rotate(180) translate(10,0)" style="fill-rule:evenodd;stroke-width:1.0pt;marker-start:none;" d="M 0.0,0.0 L 5.0,-5.0 L -12.5,0.0 L 5.0,5.0 L 0.0,0.0 z "/>
    </marker>

    <!-- 1 small -->
    <marker style="overflow:visible;fill:inherit;stroke:inherit" id="Arrow1Sstart" refX="0.0" refY="0.0" orient="auto">
      <path transform="scale(0.2) translate(6,0)" style="fill-rule:evenodd;stroke-width:1.0pt;marker-start:none" d="M 0.0,0.0 L 5.0,-5.0 L -12.5,0.0 L 5.0,5.0 L 0.0,0.0 z "/>
    </marker>
   <marker style="overflow:visible;fill:inherit;stroke:inherit" id="Arrow1Send" refX="0.0" refY="0.0" orient="auto">
      <path transform="scale(0.2) rotate(180) translate(6,0)" style="fill-rule:evenodd;stroke-width:1.0pt;marker-start:none;" d="M 0.0,0.0 L 5.0,-5.0 L -12.5,0.0 L 5.0,5.0 L 0.0,0.0 z "/>
    </marker>

   <!-- 2 LARGE -->
   <marker style="overflow:visible;fill:inherit;stroke:inherit" id="Arrow2Lstart" refX="0.0" refY="0.0" orient="auto">
      <path transform="scale(1.1) translate(1,0)" d="M 8.7185878,4.0337352 L -2.2072895,0.016013256 L 8.7185884,-4.0017078 C 6.9730900,-1.6296469 6.9831476,1.6157441 8.7185878,4.0337352 z " style="font-size:12.0;fill-rule:evenodd;stroke-width:0.62500000;stroke-linejoin:round"/>
    </marker>
    <marker style="overflow:visible;fill:inherit;stroke:inherit" id="Arrow2Lend" refX="0.0" refY="0.0" orient="auto">
     <path transform="scale(1.1) rotate(180) translate(1,0)" d="M 8.7185878,4.0337352 L -2.2072895,0.016013256 L 8.7185884,-4.0017078 C 6.9730900,-1.6296469 6.9831476,1.6157441 8.7185878,4.0337352 z " style="font-size:12.0;fill-rule:evenodd;stroke-width:0.62500000;stroke-linejoin:round;"/>
   </marker>

   <!-- 2 Medium -->
  <marker style="overflow:visible;fill:inherit;stroke:inherit" id="Arrow2Mstart" refX="0.0" refY="0.0" orient="auto">
      <path transform="scale(0.6) translate(0,0)" d="M 8.7185878,4.0337352 L -2.2072895,0.016013256 L 8.7185884,-4.0017078 C 6.9730900,-1.6296469 6.9831476,1.6157441 8.7185878,4.0337352 z " style="font-size:12.0;fill-rule:evenodd;stroke-width:0.62500000;stroke-linejoin:round"/>
    </marker>
    <marker style="overflow:visible;fill:inherit;stroke:inherit" id="Arrow2Mend" refX="0.0" refY="0.0" orient="auto">
     <path transform="scale(0.6) rotate(180) translate(0,0)" d="M 8.7185878,4.0337352 L -2.2072895,0.016013256 L 8.7185884,-4.0017078 C 6.9730900,-1.6296469 6.9831476,1.6157441 8.7185878,4.0337352 z " style="font-size:12.0;fill-rule:evenodd;stroke-width:0.62500000;stroke-linejoin:round;"/>
   </marker>

    <!-- 2 small -->
    <marker style="overflow:visible;fill:inherit;stroke:inherit" id="Arrow2Sstart" refX="0.0" refY="0.0" orient="auto">
      <path transform="scale(0.3) translate(-2.3,0)" d="M 8.7185878,4.0337352 L -2.2072895,0.016013256 L 8.7185884,-4.0017078 C 6.9730900,-1.6296469 6.9831476,1.6157441 8.7185878,4.0337352 z " style="font-size:12.0;fill-rule:evenodd;stroke-width:0.62500000;stroke-linejoin:round"/>
    </marker>
    <marker style="overflow:visible;fill:inherit;stroke:inherit" id="Arrow2Send" refX="0.0" refY="0.0" orient="auto">
     <path transform="scale(0.3) rotate(180) translate(-2.3,0)" d="M 8.7185878,4.0337352 L -2.2072895,0.016013256 L 8.7185884,-4.0017078 C 6.9730900,-1.6296469 6.9831476,1.6157441 8.7185878,4.0337352 z " style="font-size:12.0;fill-rule:evenodd;stroke-width:0.62500000;stroke-linejoin:round;"/>
   </marker>
    </defs>
</svg>
