<?xml version="1.0" encoding="UTF-8"?>
<!DOCTYPE svg PUBLIC "-//W3C//DTD SVG 1.0//EN"
       "http://www.w3.org/TR/2001/REC-SVG-20050904/DTD/svg10.dtd">
<svg xmlns="http://www.w3.org/2000/svg" width="305" height="260"
     style="stroke: #000000; fill: none;">
  <title>scroll</title>
  <!-- main part -->
  <path
        d="M 30,230 280,230 A 20,20 0 0 0 300,210 L 300,10 A 20,20 0 0 1 280,30 L 20,30 A 20,20 0 0 0 0,50 L 0,250 A 20,20 0 0 0 30,250 L 30,50 A 20,20 0 0 1 0,50 M 270,10 A 10,10 0 0 0 285,15 L 285,30 270,30 z"/>
  <!-- others -->
  <path
        d="M 30,50 A 20,20 0 0 0 15,35 L 15,56 A 20,20 0 0 0 30,50 M 300,10 A 20,20 0 0 0 270,10 A 10,10 0 0 0 285,15 L 285,30 A 20,20 0 0 0 300,10"/>
</svg>
