<?xml version="1.0" encoding="UTF-8"?>
<!DOCTYPE svg PUBLIC "-//W3C//DTD SVG 1.0//EN"
       "http://www.w3.org/TR/2001/REC-SVG-20050904/DTD/svg10.dtd">
<svg xmlns="http://www.w3.org/2000/svg" width="53" height="354" style="stroke:#000000; fill:none;">
  <title>Burette</title>
  <g transform="translate(-194,-63) ">
    <!-- burette -->
    <polygon
             points="0,0 10,10 10,290 17,297 17,350 24,350 24,297 32,291 32,10 42,0 "
             transform="translate(196,65)"/>

    <!-- liquid -->
    <polygon
             points="10,110 10,290 17,297 17,330 24,330 24,297 32,291 32,110"
             transform="translate(196,65)" stroke="none" />

    <!-- lines -->
    <line x1="201" y1="395" x2="245" y2="395"/>
    <line x1="235" y1="385" x2="235" y2="405"/>
    <line x1="215" y1="330" x2="228" y2="330"/>
    <line x1="215" y1="300" x2="228" y2="300"/>
    <line x1="215" y1="270" x2="228" y2="270"/>
    <line x1="215" y1="240" x2="228" y2="240"/>
    <line x1="215" y1="210" x2="228" y2="210"/>
    <line x1="215" y1="180" x2="228" y2="180"/>
    <line x1="215" y1="150" x2="228" y2="150"/>
  </g>
</svg>
