<?xml version="1.0" encoding="UTF-8"?>
<!DOCTYPE svg PUBLIC "-//W3C//DTD SVG 1.0//EN"
       "http://www.w3.org/TR/2001/REC-SVG-20050904/DTD/svg10.dtd">
<svg xmlns="http://www.w3.org/2000/svg" width="136" height="214"
     style="fill:none;stroke:#000000;">
  <title>Erlenmeyer flask</title>
  <!-- flask -->
  <path fill="none"
        d="M 50,0 C 52.5,2.5 52.5,2.5 52.5,5 L 52.5,42.5 C 52.5,60 2.5,192.5 2.5,192.5 C 0,202.5 7.5,205 15,205 L 115,205 C 122.5,205 130,202.5 127.5,192.5 C 127.5,192.5 77.5,60 77.5,42.5 L 77.5,5 C 77.5,2.5 77.5,2.5 80,0"/>
  <!-- liquid -->
  <path stroke="none"
        d="M 28,122 C 23,141 3,193 3,193 C 0,203 8,205 15,205 L 115,205 C 122.5,205 130,202.5 127.5,192.5 C 127.5,192.5 107,136 103,122 "/>
  <!-- lines -->
  <g>
    <line x1="125" y1="187" x2="92" y2="187"/>
    <line x1="110" y1="145" x2="80" y2="145"/>
  </g>
</svg>
