/* XPM */
static char * AnimNo_xpm[] = {
"16 16 27 1",
". 	c None",
" 	c #FF0000",
"+	c #525152",
"@	c #424142",
"#	c #212021",
"$	c #848684",
"%	c #737173",
"&	c #BDBEBD",
"*	c #636163",
"=	c #ADAEAD",
"-	c #5A595A",
";	c #9C9EBD",
">	c #000000",
",	c #8C8E8C",
"'	c #6B696B",
")	c #313031",
"!	c #9C9E9C",
"~	c #84A6A5",
"{	c #393839",
"]	c #949694",
"^	c #A5A6A5",
"/	c #7B797B",
"(	c #8CAEAD",
"_	c #8C8EAD",
":	c #CECFCE",
"<	c #319694",
"[	c #424163",
"..........+@@@+.",
"...#@@@+$@@%&@@.",
".@@*@@=#-;>,'#')",
".+!=>-%>~)>=@*%#",
".%{#>$+)#@).....",
".*##>@#*]^^+@+..",
".)+/>(+#_>%:@%#)",
".##>>##>-#><++[>",
".$#*$*@@>>>>>>)@",
".@#@$$*$*@##>>@.",
"+#>$@@##@@@>@>#.",
"@@#****@@#@>>>#.",
"#>#@###@@##@#>).",
"@>>>#>>>>>>>>#..",
").@>>+#>>>>>>@..",
"........+@@>>).."};
