/* XPM */
static char * BackNo_xpm[] = {
"18 18 2 1",
" 	c #BFBFBFBFBFBF",
".	c #FFFFFFFFFFFF",
"                  ",
"                  ",
"                  ",
"                  ",
"       .          ",
"     . .          ",
"       .          ",
"   .    . . . . . ",
"                . ",
" .              . ",
"  .             . ",
"   .   .......... ",
"    .  .          ",
"     . .          ",
"      ..          ",
"                  ",
"                  ",
"                  "};
