/* XPM */
static char * Browser_xpm[] = {
"18 18 5 1",
" 	c #BEFBBEFBBEFB",
".	c #000000000000",
"X	c #FFFF8A2838E3",
"o	c #F7DEBAEA38E3",
"O	c #FFFF00000000",
"                  ",
"             .Xo  ",
"  OO        .XOO  ",
"   OO      .XOOoo ",
"    OO    .XOOooo ",
"     OOO .XOOoooX ",
"       OOXOOoooX. ",
"       .OOooooX.  ",
"      .OOOOooX.   ",
"     .OOXXOOX.    ",
"    OOO..XoOOO    ",
"   OO.  .... OO   ",
"  OO... ...   OO  ",
"  O.. ....     O  ",
"   . ...          ",
"   ...            ",
"  .               ",
"                  "};
