/* XPM */
static char * Editor_xpm[] = {
"18 18 4 1",
" 	c #BEFBBEFBBEFB",
".	c #000000000000",
"X	c #FFFF8A2838E3",
"o	c #F7DEBAEA38E3",
"                  ",
"             .Xo  ",
"            .Xoo  ",
"           .Xoooo ",
"          .Xooooo ",
"         .XoooooX ",
"        .XoooooX. ",
"       .XoooooX.  ",
"      .XXooooX.   ",
"     ..XXXooX.    ",
"    .....XoX.     ",
"    ..  ....      ",
"    ... ...       ",
"   .. ....        ",
"   . ...          ",
"   ...            ",
"  .               ",
"                  "};
