/* XPM */
static char * find_xpm[] = {
"20 20 4 1",
" 	c #BFBFBFBFBFBF",
".	c #FFFFFFFFFFFF",
"X	c #7F7F7F7F7F7F",
"o	c #000000000000",
"                    ",
"                    ",
"                    ",
"                    ",
"                    ",
"     .....          ",
"   ..XXXXXoo        ",
"  .XXooooooXo       ",
" .Xoo      oXo      ",
" .Xo        oo      ",
" .Xoo       oo      ",
"  oXoo     ooo      ",
"   ooXooooooooo     ",
"     ooooo  ooooo   ",
"              ooooo ",
"                oo  ",
"                    ",
"                    ",
"                    ",
"                    "};
