/* XPM */
static char * Forward_xpm[] = {
"20 20 3 1",
" 	c #BFBFBFBFBFBF",
".	c #FFFFFFFFFFFF",
"X	c #000000000000",
"                    ",
"                    ",
"                    ",
"                    ",
"                    ",
"           .X       ",
"           . X      ",
"           .  X     ",
"  ..........   X    ",
"  .             X   ",
"  .              X  ",
"  .             X   ",
"  XXXXXXXXXX   X    ",
"           X  X     ",
"           X X      ",
"           XX       ",
"                    ",
"                    ",
"                    ",
"                    "};
