/* XPM */
static char * frac_xpm[] = {
"24 18 3 1",
" 	c #FFFFFFFFFFFF",
".	c #BFBFBFBFBFBF",
"X	c #000000000000",
"                        ",
" ......X.X.X.X.X.......X",
" .......X.X.X.X........X",
" ......X.X.X.X.X.......X",
" .......X.X.X.X........X",
" ......X.X.X.X.X.......X",
" ......................X",
" ......................X",
" ..                  ..X",
" ..XXXXXXXXXXXXXXXXXX..X",
" ......................X",
" ......................X",
" ......X.X.X.X.X.......X",
" .......X.X.X.X........X",
" ......X.X.X.X.X.......X",
" .......X.X.X.X........X",
" ......X.X.X.X.X.......X",
"XXXXXXXXXXXXXXXXXXXXXXXX"};
