/* XPM */
static char * id_xpm[] = {
"24 18 3 1",
" 	c #FFFFFFFFFFFF",
".	c #BFBFBFBFBFBF",
"X	c #000000000000",
"                        ",
" ......................X",
" ......................X",
" ......................X",
" ....XXXXX.............X",
" ......X........X......X",
" ......X........X......X",
" ......X........X......X",
" ......X........X......X",
" ......X....XXXXX......X",
" ......X....X...X......X",
" ......X....X...X......X",
" ......X....X...X......X",
" ....XXXXX..XXXXX......X",
" ......................X",
" ......................X",
" ......................X",
"XXXXXXXXXXXXXXXXXXXXXXXX"};
