/* XPM */
static char * Image_xpm[] = {
"20 20 7 1",
" 	c #BFBFBFBFBFBF",
".	c #000000000000",
"X	c #FFFFFFFFFFFF",
"o	c #A4A4D6D6FEFE",
"O	c #FFFFE5E50000",
"+	c #B2B242420000",
"@	c #0000B2B20000",
"                    ",
"         ..         ",
"       ..  ..       ",
"     ..      ..     ",
" .................. ",
" .XXXXXXXXXXXXXXXX. ",
" .XXXXXXXXXXXXXXXX. ",
" .XXooooooooooooXX. ",
" .XXooOOooooooooXX. ",
" .XXoOOOOooo+oooXX. ",
" .XXoOOOOoo+++ooXX. ",
" .XXooOOoo+++++oXX. ",
" .XXoooooo+++++oXX. ",
" .XXoooooo+++++oXX. ",
" .XX@@@@@@@@@@@@XX. ",
" .XX@@@@@@@@@@@@XX. ",
" .XXXXXXXXXXXXXXXX. ",
" .XXXXXXXXXXXXXXXX. ",
" .................. ",
"                    "};
