/* XPM */
static char * Link_xpm[] = {
"18 18 3 1",
" 	c #BFBFBFBFBFBF",
".	c #FFFFFFFFFFFF",
"X	c #000000000000",
"                  ",
"                  ",
"                  ",
"   .XX      .XXX  ",
"  .XXXX    .XXXXX ",
" .XXXXXX  .XXXXXXX",
".XXX .XXX.XXX  .XX",
".XX   .X.XXX    .X",
".XX    .XXX    .XX",
".XXX   .XX.X  .XXX",
" .XXX  .X.XX .XXX ",
"  .XXX  .XXX.XXX  ",
"   .XXX.XXXXXXX   ",
"    .XXXXX.XXX    ",
"     .XXX         ",
"                  ",
"                  ",
"                  "};
