/* XPM */
static char * lmerge_xpm[] = {
"28 17 3 1",
" 	c #CF3CCB2BCF3C",
".	c #79E79E79DF7D",
"X	c #FFFF45144103",
".........          X.......X",
".........          .X.....X.",
".........          .X.....X.",
".........   X      ..X...X..",
".........   XX     ..X...X..",
".........   XXX    ...X.X...",
".........   XXXX   ...X.X...",
".........   XXXXX  ....X....",
".........   XXXXXX ....X....",
".........   XXXXX  ....X....",
".........   XXXX   ...X.X...",
".........   XXX    ...X.X...",
".........   XX     ..X...X..",
".........   X      ..X...X..",
".........          .X.....X.",
".........          .X.....X.",
".........          X.......X"};
