#define logo_width 50
#define logo_height 44
static unsigned char logo_bits[] = {
  0x00, 0x00, 0x00, 0x00, 0x00, 0x00, 0x00, 0x00, 0x00, 0x40, 0x00, 0x70,
  0x00, 0x00, 0x00, 0x00, 0x73, 0x00, 0x58, 0x00, 0x00, 0x00, 0x80, 0x42,
  0x00, 0x4e, 0x06, 0x00, 0x00, 0x00, 0x57, 0xfc, 0x62, 0x09, 0x00, 0x00,
  0x80, 0xba, 0xc6, 0xab, 0x04, 0x00, 0x40, 0xe0, 0x0e, 0xb7, 0x14, 0x02,
  0x00, 0xc0, 0xa1, 0x03, 0x98, 0xac, 0x3f, 0x00, 0xc0, 0xa2, 0x1c, 0x20,
  0x37, 0x61, 0x00, 0x80, 0x25, 0x49, 0x6e, 0xaa, 0x9a, 0x00, 0x00, 0xd6,
  0x40, 0x8c, 0x34, 0x46, 0x00, 0xc0, 0x40, 0xfe, 0xfb, 0x64, 0x8c, 0x00,
  0x20, 0xdf, 0x05, 0x73, 0xd5, 0x24, 0x01, 0x20, 0x11, 0x93, 0x0d, 0x69,
  0xd1, 0x01, 0x50, 0xe0, 0x00, 0x94, 0xc0, 0x1a, 0x02, 0x30, 0x02, 0x10,
  0x66, 0x20, 0x4b, 0x01, 0x10, 0x00, 0x00, 0xa0, 0x90, 0xb0, 0x00, 0x00,
  0x02, 0x10, 0x94, 0x08, 0xab, 0x00, 0x00, 0x00, 0xe0, 0x80, 0x08, 0xa0,
  0x00, 0x00, 0x02, 0x3c, 0x80, 0x08, 0x64, 0x00, 0x00, 0x00, 0xc2, 0x80,
  0x08, 0x00, 0x00, 0x40, 0x0b, 0x24, 0x81, 0x08, 0x04, 0x00, 0x00, 0x0d,
  0xc0, 0x80, 0x08, 0x00, 0x00, 0xc0, 0x08, 0x00, 0x80, 0x08, 0x04, 0x00,
  0x00, 0x12, 0x00, 0x80, 0x08, 0x1a, 0x00, 0x00, 0x08, 0x00, 0x80, 0x88,
  0x2a, 0x00, 0x00, 0x00, 0x00, 0x80, 0x08, 0x11, 0x00, 0x00, 0x00, 0x00,
  0x80, 0x08, 0x28, 0x00, 0x00, 0x00, 0x00, 0x80, 0x08, 0x10, 0x00, 0x00,
  0x00, 0x00, 0x80, 0x08, 0x00, 0x00, 0x00, 0x00, 0x00, 0x80, 0x08, 0x00,
  0x00, 0x00, 0x00, 0x00, 0x80, 0x08, 0x00, 0x00, 0x00, 0x00, 0x00, 0x80,
  0x08, 0x00, 0x00, 0x00, 0x00, 0x00, 0x80, 0x08, 0x00, 0x00, 0x00, 0x00,
  0x00, 0x80, 0x08, 0x00, 0x00, 0x00, 0x00, 0x00, 0x80, 0x08, 0x00, 0x00,
  0x00, 0x00, 0x00, 0x80, 0x08, 0x00, 0x00, 0x00, 0x00, 0x00, 0x80, 0x08,
  0x00, 0x00, 0x00, 0x00, 0x00, 0x80, 0x08, 0x00, 0x00, 0x00, 0x00, 0x00,
  0x40, 0x10, 0x00, 0x00, 0x00, 0x00, 0x00, 0x00, 0x00, 0x00, 0x00, 0x00,
  0x00, 0x00, 0x00, 0x00, 0x00, 0x00, 0x00, 0x00, 0x00, 0x00, 0x00, 0x00,
  0x00, 0x00, 0x00, 0x00, 0x00, 0x00, 0x00, 0x00, };
