/* XPM */
static char * Math_xpm[] = {
"18 18 3 1",
" 	c #BFBFBFBFBFBF",
".	c #FFFFFFFFFFFF",
"X	c #000000000000",
"                  ",
"                  ",
"       ........   ",
"      .XXXXXXXXX  ",
"      .X          ",
"     .X   XXX     ",
" .X  .X   .X      ",
" .X  .X   XXX     ",
"  .X .X .....     ",
"  .X.X  XXXXXX    ",
"  .X.X            ",
"   X.X   XXX      ",
"   .XX    .X      ",
"   .X    .X.      ",
"    X    XXX      ",
"                  ",
"                  ",
"                  "};
