/* XPM */
static char * Print_xpm[] = {
"20 20 4 1",
" 	c #BFBFBFBFBFBF",
".	c #000000000000",
"X	c #FFFFFFFFFFFF",
"o	c #999999999999",
"                    ",
"                    ",
"      ........      ",
"      .XXXXXX.      ",
"      .X....X.      ",
"      .XXXXXX....   ",
"      .X....X.   .  ",
"     ..XXXXXX.  ..  ",
"    .         .. .  ",
"   ............  .  ",
"   .          . ..  ",
"   .          ...   ",
"   .............    ",
"    .oooooooo..     ",
"     .........      ",
"                    ",
"                    ",
"                    ",
"                    ",
"                    "};
