/* XPM */
static char * save_xpm[] = {
"20 20 4 1",
" 	c #BFBFBFBFBFBF",
".	c #FFFFFFFFFFFF",
"X	c #7F7F7F7F7F7F",
"o	c #000000000000",
"                    ",
"                    ",
"  ...............   ",
" .XXXooooooooooXXo  ",
" .XXXo........oXXo  ",
" .XXXo........oXXo  ",
" .XXXo........oXXo  ",
" .XXXo........oXXo  ",
" .XXXo........oXXo  ",
" .XXXooooooooooXXo  ",
" .XXXXXXXXXXXXXXXo  ",
" .XXXXXXXXXXXXXXXo  ",
" .XXXXXXXXXXXXXXXo  ",
" .XXXooooooooooXXo  ",
" .XXXoooooooo.oXXo  ",
" .XXXoooooooo.oXXo  ",
"  XXXoooooooo.oXXo  ",
"   oooooooooooooo   ",
"                    ",
"                    "};
