/* XPM */
static char * spline_xpm[] = {
"24 18 3 1",
" 	c #FFFFFFFFFFFF",
".	c #BFBFBFBFBFBF",
"X	c #000000000000",
"                        ",
" ......................X",
" ......................X",
" ...................X..X",
" ...................X..X",
" ...................X..X",
" ...................X..X",
" ......XXX..........X..X",
" ....XX...XX.......X...X",
" ...X......X.......X...X",
" ..X........X......X...X",
" ..X........X.....X....X",
" .X..........X....X....X",
" .X...........X..X.....X",
" .X............XX......X",
" ......................X",
" ......................X",
"XXXXXXXXXXXXXXXXXXXXXXXX"};
