/* XPM */
static char * stopN_xpm[] = {
"18 18 3 1",
" 	c #BFBFBFBFBFBF",
".	c #FFFFFFFFFFFF",
"X	c #000000000000",
"                  ",
"                  ",
"      ......X     ",
"     .       X    ",
"    .         X   ",
"   .           X  ",
"  .             X ",
"  . X XXX X  XX X ",
"  .X X X X X X XX ",
"  . X  X X X XX X ",
"  .X X X X X X  X ",
"  . X  X  X  X  X ",
"  X             X ",
"   X           X  ",
"    X         X   ",
"     X       X    ",
"      XXXXXXX     ",
"                  "};
