/* XPM */
static char * Table_xpm[] = {
"18 18 3 1",
" 	c #BFBFBFBFBFBF",
".	c #FFFFFFFFFFFF",
"X	c #000000000000",
"                  ",
"  ..............  ",
"  .XXXXXXXXXXXXX  ",
"  .X  .X      .X  ",
"  .X...X.......X  ",
"  .XXXXXXXXXXXXX  ",
"  .X  .X      .X  ",
"  .X  .X      .X  ",
"  .X  .X      .X  ",
"  .X...X.......X  ",
"  .XXXXXXXXXXXXX  ",
"  .X  .X      .X  ",
"  .X  .X      .X  ",
"  .X  .X      .X  ",
"  .X...X.......X  ",
"  .XXXXXXXXXXXXX  ",
"                  ",
"                  "};
