/* XPM */
static char * toggle_xpm[] = {
"13 13 3 1",
" 	c #FFFFFFFFFFFF",
".	c #000000000000",
"X	c #BFBFBFBFBFBF",
"             ",
"            .",
"  XXXXXXXXX..",
"  XXXXXXXXX..",
"  XXXXXXXXX..",
"  XXXXXXXXX..",
"  XXXXXXXXX..",
"  XXXXXXXXX..",
"  XXXXXXXXX..",
"  XXXXXXXXX..",
"  XXXXXXXXX..",
"  ...........",
" ............"};
