/* XPM */
static char * toggle-s_xpm[] = {
"13 13 3 1",
" 	c #000000000000",
".	c #FFFFFFFFFFFF",
"X	c #FFFFE9E9C1C1",
"             ",
"            .",
"  XXXXXXXXX..",
"  XXXXXX XX..",
"  XXXXX XXX..",
"  XXXXX XXX..",
"  XX X XXXX..",
"  XX X XXXX..",
"  XXX XXXXX..",
"  XXX XXXXX..",
"  XXXXXXXXX..",
"  ...........",
" ............"};
